<svg xmlns="http://www.w3.org/2000/svg" width="141" height="142" viewBox="0 0 141 142"><g id="ffed0ab0-dbf9-4229-a4ba-134985dfa8a9" data-name="Camada 1"><path d="M118.35,45.86a41.27,41.27,0,0,0-65.64-31A27.68,27.68,0,0,0,16.48,49.82c-.66.55-1.3,1.13-1.9,1.74A28.92,28.92,0,0,0,35,100.93h71A28.92,28.92,0,0,0,134.9,72v0A29.1,29.1,0,0,0,118.35,45.86Zm3,41.54A21.57,21.57,0,0,1,106,93.77H35A21.76,21.76,0,0,1,22.85,54a3.58,3.58,0,0,0,1.22-4.51,20.2,20.2,0,0,1-2-8.84,20.52,20.52,0,0,1,20.5-20.5,20.23,20.23,0,0,1,9.07,2.11,3.58,3.58,0,0,0,3.86-.45,34.11,34.11,0,0,1,55.76,26.34v.14a3.58,3.58,0,0,0,2.33,3.35A21.86,21.86,0,0,1,127.74,72,21.63,21.63,0,0,1,121.37,87.4Z" fill="#3b7097"/><path d="M37,125.4,33.4,129a3.58,3.58,0,0,0,5.06,5.07l3.62-3.63a3.57,3.57,0,1,0-5-5.06Z" fill="#3b7097"/><path d="M82,125.4,78.33,129a3.58,3.58,0,0,0,5.06,5.07L87,130.46A3.57,3.57,0,1,0,82,125.4Z" fill="#3b7097"/><path d="M24.69,109.08a3.57,3.57,0,0,0-5.06,0L16,112.7a3.58,3.58,0,1,0,5.06,5.06l3.62-3.62a3.58,3.58,0,0,0,0-5.06Z" fill="#3b7097"/><path d="M69.62,109.08a3.57,3.57,0,0,0-5.06,0l-3.62,3.62A3.58,3.58,0,0,0,66,117.76l3.62-3.62A3.58,3.58,0,0,0,69.62,109.08Z" fill="#3b7097"/><path d="M109.49,109.08l-3.62,3.62a3.58,3.58,0,1,0,5,5.08l0,0,3.62-3.62a3.58,3.58,0,1,0-5-5.08Z" fill="#3b7097"/><path d="M29.18,72.63a25.47,25.47,0,0,1,11.16-21A24.12,24.12,0,0,1,51.71,19.47c.47-.22.95-.43,1.43-.63A24.1,24.1,0,0,0,22.45,51.61,25.35,25.35,0,0,0,36.64,98H50.53l0-.31A25.35,25.35,0,0,1,29.18,72.63Z" fill="#3b7097" opacity="0.2"/></g></svg>