<svg xmlns="http://www.w3.org/2000/svg" width="150" height="140" viewBox="0 0 150 140"><g id="b61690fe-17b8-491c-bd67-2dcddc2c6756" data-name="Camada 1"><rect x="61.2" y="31.69" width="27.54" height="102.74" fill="#ececec"/><path d="M91.31,137H58.64V29.12H91.31Zm-27.54-5.13h22.4V34.26H63.77Z" fill="#3b7097"/><rect x="63.13" y="30.56" width="11.95" height="103.42" fill="#d9d9d9"/><path d="M62.53,105.68l1.09-2.05c4.32-2.66,5.51-4,9.36-1.16.34.26.68.51,1,.74l2.84,2.06c2.68,2.15,5-.31,5.72-.89l2.87-2.17a2,2,0,0,1,3.19,1.53v27.71a2,2,0,0,1-1.88,2l-22.1,1a2,2,0,0,1-2-1.88l-1-25.06A1.94,1.94,0,0,1,62.53,105.68Z" fill="#9fdfff"/><path d="M75.07,104l-1-.75c-.37-.23-.71-.48-1-.74-3.85-2.86-5-1.5-9.36,1.16l-1.09,2.05a1.94,1.94,0,0,0-.93,1.75l1,25.06a2,2,0,0,0,2,1.88l10.4-.45Z" fill="#7dd6f9"/><path d="M91.31,137H58.64V29.12H91.31Zm-27.54-5.13h22.4V34.26H63.77Z" fill="#727272"/><path d="M42.45,5.57h65.09a0,0,0,0,1,0,0V8.73A21.71,21.71,0,0,1,85.84,30.45H64.16A21.71,21.71,0,0,1,42.45,8.73V5.57A0,0,0,0,1,42.45,5.57Z" fill="#ececec"/><path d="M82.91,33H67.09a27.23,27.23,0,0,1-27.2-27.2V3h70.22V5.81A27.23,27.23,0,0,1,82.91,33ZM45.14,8.13a22.1,22.1,0,0,0,22,19.75H82.91a22.1,22.1,0,0,0,22-19.75Z" fill="#3b7097"/><path d="M45,5.5H74.9a0,0,0,0,1,0,0V30.56a0,0,0,0,1,0,0h-8A21.87,21.87,0,0,1,45,8.69V5.5A0,0,0,0,1,45,5.5Z" fill="#d9d9d9"/><path d="M82.91,33H67.09a27.23,27.23,0,0,1-27.2-27.2V3h70.22V5.81A27.23,27.23,0,0,1,82.91,33ZM45.14,8.13a22.1,22.1,0,0,0,22,19.75H82.91a22.1,22.1,0,0,0,22-19.75Z" fill="#727272"/><rect x="58.91" y="53.81" width="19.68" height="2.05" fill="#727272"/><rect x="58.91" y="67.94" width="19.68" height="2.05" fill="#727272"/><rect x="58.91" y="82.07" width="19.68" height="2.05" fill="#727272"/><rect x="58.91" y="96.19" width="19.68" height="2.05" fill="#727272"/><rect x="58.91" y="110.32" width="19.68" height="2.05" fill="#727272"/></g></svg>