<svg xmlns="http://www.w3.org/2000/svg" width="141" height="142" viewBox="0 0 141 142"><g id="f4991d4a-2ccc-4994-8064-5ed2591d5769" data-name="Camada 1"><rect x="54.01" y="32.69" width="27.54" height="102.74" fill="#ececec"/><path d="M84.11,138H51.44V30.12H84.11Zm-27.53-5.13H79V35.26H56.58Z" fill="#3b7097"/><rect x="55.93" y="31.56" width="11.95" height="103.42" fill="#d9d9d9"/><path d="M55.34,106.68l1.09-2.05c4.32-2.66,5.51-4,9.35-1.16.35.26.69.51,1,.74l2.84,2.06c2.69,2.15,5-.31,5.72-.89l2.88-2.17a2,2,0,0,1,3.19,1.53v27.71a2,2,0,0,1-1.88,2l-22.1,1a2,2,0,0,1-2-1.88l-1-25.06A2,2,0,0,1,55.34,106.68Z" fill="#9fdfff"/><path d="M67.87,105l-1-.75c-.36-.23-.7-.48-1-.74-3.84-2.86-5-1.5-9.35,1.16l-1.09,2.05a2,2,0,0,0-.94,1.75l1,25.06a2,2,0,0,0,2,1.88l10.39-.45Z" fill="#7dd6f9"/><path d="M84.11,138H51.44V30.12H84.11Zm-27.53-5.13H79V35.26H56.58Z" fill="#727272"/><path d="M35.26,6.57h65.09a0,0,0,0,1,0,0V9.73A21.71,21.71,0,0,1,78.64,31.45H57A21.71,21.71,0,0,1,35.26,9.73V6.57A0,0,0,0,1,35.26,6.57Z" fill="#ececec"/><path d="M75.72,34H59.89a27.23,27.23,0,0,1-27.2-27.2V4h70.23V6.81A27.23,27.23,0,0,1,75.72,34ZM38,9.13A22.1,22.1,0,0,0,59.89,28.88H75.72a22.11,22.11,0,0,0,22-19.75Z" fill="#3b7097"/><path d="M37.85,6.5H67.71a0,0,0,0,1,0,0V31.56a0,0,0,0,1,0,0h-8A21.87,21.87,0,0,1,37.85,9.69V6.5A0,0,0,0,1,37.85,6.5Z" fill="#d9d9d9"/><path d="M75.72,34H59.89a27.23,27.23,0,0,1-27.2-27.2V4h70.23V6.81A27.23,27.23,0,0,1,75.72,34ZM38,9.13A22.1,22.1,0,0,0,59.89,28.88H75.72a22.11,22.11,0,0,0,22-19.75Z" fill="#727272"/><rect x="51.72" y="54.81" width="19.68" height="2.05" fill="#727272"/><rect x="51.72" y="68.94" width="19.68" height="2.05" fill="#727272"/><rect x="51.72" y="83.07" width="19.68" height="2.05" fill="#727272"/><rect x="51.72" y="97.19" width="19.68" height="2.05" fill="#727272"/><rect x="51.72" y="111.32" width="19.68" height="2.05" fill="#727272"/><circle cx="95.05" cy="28.38" r="13.26" fill="#4086f4"/><polygon points="93.78 33.7 87.98 27.9 89.36 26.52 93.7 30.86 100.67 23.06 102.12 24.35 93.78 33.7" fill="#fff"/></g></svg>