<svg id="e2897038-2eea-4031-a5ae-9bd289a8b576" data-name="Camada 1" xmlns="http://www.w3.org/2000/svg" width="410" height="410" viewBox="0 0 410 410"><path d="M112.64,333.64c-10.86,4.8-21.73,9.58-32.58,14.42-19.72,8.78-39.41,17.63-59.14,26.39-5,2.21-6.51,1.76-9.85-2.37v-6.14c2.23-7.51,3.1-15.3,4.53-23,3.53-18.9,6.81-37.85,10.2-56.78a10.12,10.12,0,0,1,.69-1.77c.59-.24,1.21-.43,1.77-.72q38.71-20.4,77.43-40.78c4.5-2.36,8.76-5.21,13.71-6.66-.25,3.68-.47,7.37-.76,11q-1.85,23.63-3.73,47.25c-.66,8.25-1.7,16.49-2,24.75C112.78,324.08,111,328.84,112.64,333.64Z" fill="#a7edfa"/><path d="M405,372.08l-2.12,2.1Q362.39,325.56,321.94,277c-7.92-9.49-15.49-19.28-23.92-28.34a2,2,0,0,1-.8-1.67l-2.91-39.47c1.4,1.49,2.85,2.92,4.19,4.47q48.94,56.63,97.86,113.29c2.55,5.62,2.58,11.81,3.89,17.71,1.76,7.87,2.45,16,4.7,23.75Z" fill="#fcba25"/><path d="M396.36,325.25Q347.43,268.6,298.5,212c-1.34-1.55-2.79-3-4.19-4.47v-.21a11.49,11.49,0,0,1,2.07-.92c12.83-2.87,25.7-5.6,38.51-8.57,9.79-2.28,19.74-3.89,29.36-6.89,1.92,1,3.82,2,5.75,3a7.69,7.69,0,0,1,4.24,5.94c3.77,20.9,7.63,41.78,11.44,62.67q5.25,28.7,10.46,57.41A13.58,13.58,0,0,1,396.36,325.25Z" fill="#1fa4e7"/><path d="M33.35,249.24c.46-8.44,2.76-16.58,4.06-24.89,1.25-7.94,3-15.81,4.32-23.74a8.9,8.9,0,0,1,4.8-6.88Q84.17,172.91,121.71,152c1.48-.82,3-1.48,4.75-.9-.28,3.93-.47,7.87-.85,11.79-1.31,13.4-2.56,26.81-3,40.27l-.83.59a15.09,15.09,0,0,0-2.14.77Q83,223.76,46.39,243C42.12,245.23,38.06,247.93,33.35,249.24Z" fill="#4de066"/><path d="M33.35,249.24c4.71-1.31,8.77-4,13-6.24q36.67-19.17,73.26-38.5a15.09,15.09,0,0,1,2.14-.77c0,2,.09,4.08-.07,6.1-.68,8.69-1.45,17.37-2.18,26.06l0,.23-.19.15c-5,1.45-9.21,4.3-13.71,6.66q-38.75,20.32-77.43,40.78c-.56.29-1.18.48-1.77.72l6.33-34.49.57-.74Z" fill="#fcda56"/><path d="M122.62,203.14c.43-13.46,1.68-26.87,3-40.27.38-3.92.57-7.86.85-11.79,4.28.53,7.43,3.53,11.23,5.12,1.39.58,2.74,1.28,4.1,1.93,3.54,5.44,7,10.93,10.63,16.33,9.05,13.54,19.77,25.7,31.15,37.3-8.21-1.08-16.44-2.07-24.64-3.24C146.82,206.79,134.72,204.94,122.62,203.14Z" fill="#45c767"/><path d="M364.24,190.9c-9.62,3-19.57,4.61-29.36,6.89-12.81,3-25.68,5.7-38.51,8.57a11.49,11.49,0,0,0-2.07.92c-.22-9.53-2-19-1.68-28.54l34.56-8.4Z" fill="#fcba25"/><path d="M246.6,197.8c9.63-11.59,18.9-23.44,26.27-36.64.74-1.34,1.46-2.69,2.19-4,3.56-.31,6.15-2.81,9.28-4.09,1.73-.7,3.14-2.24,5.24-1.91a144.18,144.18,0,0,1,2.29,27.43q-19.23,8.53-38.46,17C251.23,196.55,249.21,198.12,246.6,197.8Z" fill="#4de066"/><path d="M291.87,178.55a144.18,144.18,0,0,0-2.29-27.43c1.74-.64,3.24,0,4.7.85l32.9,18.37-34.56,8.4Z" fill="#45c768"/><path d="M33.39,249.2l-.57.74C32.83,249.56,32.83,249.17,33.39,249.2Z" fill="#4de066"/><path d="M297.22,247a2,2,0,0,0,.8,1.67c-.06,6.62.85,13.17,1.43,19.74,1,11.64,1.59,23.32,2.44,35,.34,4.8,1.46,9.61,1.26,14.37-.22,5.32,2.28,10.56.28,15.86l-54.49,24.2c-1.28.57-2.58,1.08-3.87,1.62l-37-38a3.83,3.83,0,0,1-.05-.76q0-38.07.08-76.15a3.85,3.85,0,0,1,0-.48,20.14,20.14,0,0,0,2.55-.74c16.18-7,32.39-14,48.51-21.11,2.69-1.2,4.47-1.15,6.85.72C276.29,231,286.79,238.94,297.22,247Z" fill="#4ce066"/><path d="M112.64,333.64c-1.61-4.8.14-9.56.3-14.32.27-8.26,1.31-16.5,2-24.75q1.91-23.62,3.73-47.25c.29-3.68.51-7.37.76-11l.19-.15,0-.24c.82,1.14,1.68,2.24,2.45,3.41q28.46,43.13,56.91,86.26c9.63,14.57,19.37,29.07,29.06,43.59l0,6.53c-7.17-2-13.68-5.63-20.44-8.62Q150,350.45,112.64,333.64Z" fill="#1fa4e7"/><path d="M303.43,333.57c2-5.3-.5-10.54-.28-15.86.2-4.76-.92-9.57-1.26-14.37-.85-11.65-1.41-23.33-2.44-35-.58-6.57-1.49-13.12-1.43-19.74,8.43,9.06,16,18.85,23.92,28.34q40.5,48.55,80.89,97.21c-3,2.13-5.8,1-8.68-.3q-42.67-19.14-85.39-38.21C307,334.89,305.21,334.26,303.43,333.57Z" fill="#45c768"/><path d="M208,375.67c0-2.18,0-4.35,0-6.53q0-23.88.1-47.77l37,38C232.84,365.13,220.73,371.12,208,375.67Z" fill="#fcda56"/><path d="M297.22,247c-10.43-8-20.93-16-31.24-24.11-2.38-1.87-4.16-1.92-6.85-.72-16.12,7.16-32.33,14.11-48.51,21.11a20.14,20.14,0,0,1-2.55.74q0-5.82-.07-11.66c6.33-1.6,10.21-6.68,14.71-10.69,8.4-7.48,16.27-15.55,23.89-23.83,2.61.32,4.63-1.25,6.81-2.21q19.26-8.46,38.46-17l.75.19c-.28,9.56,1.46,19,1.68,28.54v.21Z" fill="#fdda56"/><path d="M208,232.32q0,5.84.07,11.66a3.85,3.85,0,0,0,0,.48l-52.68-6.38c1,1.74,1.49,2.61,2,3.45q12.33,19.41,24.68,38.81Q195,300.52,208,320.61a3.83,3.83,0,0,0,.05.76q0,23.88-.1,47.77c-9.69-14.52-19.43-29-29.06-43.59q-28.5-43.1-56.91-86.26c-.77-1.17-1.63-2.27-2.45-3.41.73-8.68,1.5-17.36,2.18-26,.16-2,0-4.06.07-6.1l.83-.59c12.1,1.8,24.2,3.65,36.31,5.38,8.2,1.17,16.43,2.16,24.64,3.24,5,4.1,9,9.31,14.37,12.94A26.58,26.58,0,0,0,208,232.32Z" fill="#fdba24"/><path d="M208.25,75.55a29.74,29.74,0,1,1-29.69,29.77A29.69,29.69,0,0,1,208.25,75.55Z" fill="#fefdfd"/><path d="M208,320.61q-13-20.13-25.9-40.27Q169.72,261,157.43,241.53c-.53-.84-1-1.71-2-3.45l52.68,6.38Q208,282.53,208,320.61Z" fill="#45c767"/><path d="M206.63,18a88.08,88.08,0,0,0-88,88,87.15,87.15,0,0,0,17.55,52.74l65,87.55c.16.21.41.3.59.49a6.55,6.55,0,0,0,10.25-.49c18.72-25,53-71.62,66.22-89.21v0l.08-.11A88,88,0,0,0,206.63,18Z" fill="#3b7097"/><circle cx="206.76" cy="105.18" r="34.15" fill="#fff"/></svg>