<svg xmlns="http://www.w3.org/2000/svg" viewBox="0 0 150 150"><g id="a96539c0-88a0-4b66-9b16-d367fe7c5cb9" data-name="Camada 2"><rect width="150" height="150" fill="#fff"/></g><g id="bed61674-0e83-4e45-abd2-2f07c97c286b" data-name="Camada 1"><path d="M122.85,49.86a41.27,41.27,0,0,0-65.64-31A27.68,27.68,0,0,0,21,53.82c-.66.55-1.3,1.13-1.9,1.74a28.92,28.92,0,0,0,20.45,49.37h71A28.92,28.92,0,0,0,139.4,76v0A29.1,29.1,0,0,0,122.85,49.86Zm3,41.54a21.57,21.57,0,0,1-15.39,6.37H39.53A21.76,21.76,0,0,1,27.35,58a3.58,3.58,0,0,0,1.22-4.51,20.2,20.2,0,0,1-2-8.84,20.52,20.52,0,0,1,20.5-20.5,20.23,20.23,0,0,1,9.07,2.11A3.58,3.58,0,0,0,60,25.78a34.11,34.11,0,0,1,55.76,26.34v.14a3.58,3.58,0,0,0,2.33,3.35A21.86,21.86,0,0,1,132.24,76,21.63,21.63,0,0,1,125.87,91.4Z" fill="#3b7097"/><path d="M41.53,129.4,37.9,133A3.58,3.58,0,0,0,43,138.09l3.62-3.63a3.57,3.57,0,1,0-5-5.06Z" fill="#3b7097"/><path d="M86.46,129.4,82.83,133a3.58,3.58,0,0,0,5.06,5.07l3.62-3.63a3.57,3.57,0,1,0-5.05-5.06Z" fill="#3b7097"/><path d="M29.19,113.08a3.57,3.57,0,0,0-5.06,0l-3.62,3.62a3.58,3.58,0,1,0,5.06,5.06l3.62-3.62a3.58,3.58,0,0,0,0-5.06Z" fill="#3b7097"/><path d="M74.12,113.08a3.57,3.57,0,0,0-5.06,0l-3.62,3.62a3.58,3.58,0,0,0,5.06,5.06l3.62-3.62A3.58,3.58,0,0,0,74.12,113.08Z" fill="#3b7097"/><path d="M114,113.08l-3.62,3.62a3.58,3.58,0,1,0,5,5.08l0,0,3.62-3.62a3.58,3.58,0,1,0-5-5.08Z" fill="#3b7097"/><path d="M33.68,76.63a25.47,25.47,0,0,1,11.16-21A24.12,24.12,0,0,1,56.21,23.47c.47-.22.95-.43,1.43-.63A24.1,24.1,0,0,0,27,55.61,25.35,25.35,0,0,0,41.14,102H55l0-.31A25.35,25.35,0,0,1,33.68,76.63Z" fill="#3b7097" opacity="0.2"/></g></svg>