<svg xmlns="http://www.w3.org/2000/svg" viewBox="0 0 150 150"><g id="b99f3cb7-e63e-49b7-9005-d9a8044c2e83" data-name="Camada 2"><rect width="150" height="150" fill="#fff"/></g><g id="a4c805ba-32c6-407a-9614-fe0c3ba9a298" data-name="Camada 1"><path d="M132.66,34.15a17.1,17.1,0,0,0-27.21-12.84,11.48,11.48,0,0,0-15,14.48c-.27.23-.53.47-.78.73A12,12,0,0,0,98.11,57h29.42a12,12,0,0,0,12-12h0A12.05,12.05,0,0,0,132.66,34.15Zm1.25,17.23A9,9,0,0,1,127.53,54H98.11a9,9,0,0,1-5-16.5,1.49,1.49,0,0,0,.51-1.88A8.41,8.41,0,0,1,92.74,32a8.52,8.52,0,0,1,8.5-8.5,8.43,8.43,0,0,1,3.76.87,1.48,1.48,0,0,0,1.6-.18,14.14,14.14,0,0,1,23.12,10.92v.06a1.49,1.49,0,0,0,1,1.39,9,9,0,0,1,3.22,14.84Z" fill="#3b7097"/><path d="M132.11,103.09a21.75,21.75,0,0,1-21.76,21.76H39.4a21.76,21.76,0,0,1-12.18-39.8,3.58,3.58,0,0,0,1.22-4.51,20.2,20.2,0,0,1-2-8.84,20.52,20.52,0,0,1,20.5-20.5A20.23,20.23,0,0,1,56,53.31a3.58,3.58,0,0,0,3.86-.45,34.11,34.11,0,0,1,55.76,26.35v.13A3.58,3.58,0,0,0,118,82.69,21.86,21.86,0,0,1,132.11,103.09Z" fill="#fff"/><path d="M139.27,103.09v0A28.92,28.92,0,0,1,110.35,132H39.4A28.92,28.92,0,0,1,19,82.64c.6-.6,1.24-1.18,1.9-1.74A27.67,27.67,0,0,1,46.94,44.05,27.26,27.26,0,0,1,57.08,46a41.26,41.26,0,0,1,65.64,31A29.07,29.07,0,0,1,139.27,103.09Zm-13.53,15.39a21.61,21.61,0,0,0,6.37-15.39A21.86,21.86,0,0,0,118,82.69a3.58,3.58,0,0,1-2.33-3.35v-.13A34.11,34.11,0,0,0,59.87,52.86a3.58,3.58,0,0,1-3.86.45,20.23,20.23,0,0,0-9.07-2.11,20.52,20.52,0,0,0-20.5,20.5,20.2,20.2,0,0,0,2,8.84,3.58,3.58,0,0,1-1.22,4.51,21.76,21.76,0,0,0,12.18,39.8h70.95A21.57,21.57,0,0,0,125.74,118.48Z" fill="#3b7097"/><path d="M32.69,104.82a25.3,25.3,0,0,1,7.43-17.93,26.28,26.28,0,0,1,3.74-3.08A24.1,24.1,0,0,1,55.23,51.67c.47-.22.94-.43,1.43-.63A24.11,24.11,0,0,0,26,83.81a25.35,25.35,0,0,0,14.19,46.37H54l.06-.31A25.36,25.36,0,0,1,32.69,104.82Z" fill="#3b7097" opacity="0.2"/></g></svg>