<svg xmlns="http://www.w3.org/2000/svg" viewBox="0 0 150 150"><g id="b7a5de23-5d9d-474f-b403-ad37a9c71f14" data-name="Camada 2"><rect width="150" height="150" fill="#fff"/></g><g id="a51aa4a2-7f30-4ca6-bcdd-9567a2ee534c" data-name="Camada 1"><path d="M75,7.26h0a2.92,2.92,0,0,1,2.92,2.92v7.59A2.92,2.92,0,0,1,75,20.69h0a2.92,2.92,0,0,1-2.92-2.92V10.18A2.92,2.92,0,0,1,75,7.26Z" fill="#ffb000"/><path d="M39.09,16.84h0a2.92,2.92,0,0,1,4,1.07l3.79,6.57a2.92,2.92,0,0,1-1.07,4h0a2.91,2.91,0,0,1-4-1.07L38,20.82A2.9,2.9,0,0,1,39.09,16.84Z" fill="#ffb000"/><path d="M14.51,41.42h0a2.91,2.91,0,0,1,4-1.07l6.57,3.79a2.92,2.92,0,0,1,1.07,4h0a2.92,2.92,0,0,1-4,1.07l-6.57-3.8A2.9,2.9,0,0,1,14.51,41.42Z" fill="#ffb000"/><path d="M8.43,72.07H16A2.92,2.92,0,0,1,18.94,75h0A2.92,2.92,0,0,1,16,77.91H8.43A2.92,2.92,0,0,1,5.51,75h0A2.92,2.92,0,0,1,8.43,72.07Z" fill="#ffb000"/><path d="M134,72.07h7.59A2.92,2.92,0,0,1,144.49,75h0a2.92,2.92,0,0,1-2.92,2.92H134A2.92,2.92,0,0,1,131.06,75h0A2.92,2.92,0,0,1,134,72.07Z" fill="#ffb000"/><path d="M124.93,44.14l6.57-3.79a2.91,2.91,0,0,1,4,1.07h0a2.92,2.92,0,0,1-1.07,4l-6.57,3.79a2.92,2.92,0,0,1-4-1.07h0A2.92,2.92,0,0,1,124.93,44.14Z" fill="#ffb000"/><path d="M100.79,23.89l3.8-6.57a2.92,2.92,0,0,1,4-1.07h0a2.92,2.92,0,0,1,1.06,4l-3.79,6.57a2.92,2.92,0,0,1-4,1.07h0A2.92,2.92,0,0,1,100.79,23.89Z" fill="#ffb000"/><path d="M75,142.74h0a2.92,2.92,0,0,1-2.92-2.92v-7.59A2.92,2.92,0,0,1,75,129.31h0a2.92,2.92,0,0,1,2.92,2.92v7.59A2.92,2.92,0,0,1,75,142.74Z" fill="#ffb000"/><path d="M110.91,133.16h0a2.92,2.92,0,0,1-4-1.07l-3.79-6.57a2.92,2.92,0,0,1,1.07-4h0a2.91,2.91,0,0,1,4,1.07l3.8,6.58A2.9,2.9,0,0,1,110.91,133.16Z" fill="#ffb000"/><path d="M135.49,108.58h0a2.91,2.91,0,0,1-4,1.07l-6.57-3.79a2.92,2.92,0,0,1-1.07-4h0a2.92,2.92,0,0,1,4-1.07l6.57,3.8A2.9,2.9,0,0,1,135.49,108.58Z" fill="#ffb000"/><path d="M141.57,77.93H134A2.92,2.92,0,0,1,131.06,75h0A2.92,2.92,0,0,1,134,72.09h7.59A2.92,2.92,0,0,1,144.49,75h0A2.92,2.92,0,0,1,141.57,77.93Z" fill="#ffb000"/><path d="M16,77.93H8.43A2.92,2.92,0,0,1,5.51,75h0a2.92,2.92,0,0,1,2.92-2.92H16A2.92,2.92,0,0,1,18.94,75h0A2.92,2.92,0,0,1,16,77.93Z" fill="#ffb000"/><path d="M25.07,105.86l-6.57,3.79a2.91,2.91,0,0,1-4-1.07h0a2.92,2.92,0,0,1,1.07-4l6.57-3.79a2.92,2.92,0,0,1,4,1.07h0A2.92,2.92,0,0,1,25.07,105.86Z" fill="#ffb000"/><path d="M49.21,126.11l-3.8,6.57a2.92,2.92,0,0,1-4,1.07h0a2.92,2.92,0,0,1-1.06-4l3.79-6.57a2.92,2.92,0,0,1,4-1.07h0A2.92,2.92,0,0,1,49.21,126.11Z" fill="#ffb000"/><path d="M119.34,78.09c0,38.32-45.12,39.4-45.3,39.4A42.45,42.45,0,1,1,74,32.6C74.22,32.6,119.34,35.82,119.34,78.09Z" fill="#ffb000" opacity="0.2"/><path d="M47.48,74.74c0,38.32,26.86,42.62,26.68,42.62a42.45,42.45,0,0,1,0-84.89C74.34,32.47,47.48,32.47,47.48,74.74Z" fill="#fff" opacity="0.62"/><path d="M75.11,122.84A47.8,47.8,0,1,1,122.9,75,47.85,47.85,0,0,1,75.11,122.84Zm0-89.19A41.4,41.4,0,1,0,116.51,75,41.44,41.44,0,0,0,75.11,33.65Z" fill="#ffb000"/></g></svg>