<svg xmlns="http://www.w3.org/2000/svg" viewBox="0 0 150 150"><g id="ffc5cf02-a719-4d4f-80fb-56206eb8cc44" data-name="Camada 2"><rect width="150" height="150" fill="#fff"/></g><g id="a1803bed-9db4-48fb-be56-8efc0da5247e" data-name="Camada 1"><path d="M122.85,49.28a41.26,41.26,0,0,0-65.64-31,27.26,27.26,0,0,0-10.14-1.92A27.67,27.67,0,0,0,21,53.23c-.66.56-1.3,1.14-1.9,1.74a28.92,28.92,0,0,0,20.45,49.37h71a28.91,28.91,0,0,0,28.92-28.9v0A29.07,29.07,0,0,0,122.85,49.28Zm3,41.53a21.62,21.62,0,0,1-15.39,6.38H39.53A21.77,21.77,0,0,1,27.35,57.38a3.58,3.58,0,0,0,1.22-4.51,20.16,20.16,0,0,1-2-8.83,20.53,20.53,0,0,1,20.5-20.51,20.23,20.23,0,0,1,9.07,2.11A3.58,3.58,0,0,0,60,25.19a34.11,34.11,0,0,1,55.76,26.35v.13A3.58,3.58,0,0,0,118.09,55a21.86,21.86,0,0,1,14.15,20.4A21.61,21.61,0,0,1,125.87,90.81Z" fill="#3b7097"/><path d="M42.42,128.86l-3.62,3.62a3.58,3.58,0,0,0,5.06,5.06l3.62-3.62a3.58,3.58,0,1,0-5.06-5.06Z" fill="#3b7097"/><path d="M66.22,128.86l-3.62,3.62a3.57,3.57,0,1,0,5.05,5.06l3.63-3.62a3.58,3.58,0,1,0-5.06-5.06Z" fill="#3b7097"/><path d="M89.3,129.94l-3.62,3.62a3.58,3.58,0,1,0,5,5.08l0,0L94.36,135a3.58,3.58,0,1,0-5.06-5.06Z" fill="#3b7097"/><path d="M42.16,112.54a3.57,3.57,0,0,0-5.06,0l-3.62,3.62a3.58,3.58,0,0,0,5.06,5.06l3.62-3.62a3.57,3.57,0,0,0,0-5.06Z" fill="#3b7097"/><path d="M64.63,112.54a3.57,3.57,0,0,0-5.06,0L56,116.16a3.58,3.58,0,1,0,5,5.11l0,0,3.63-3.62A3.57,3.57,0,0,0,64.63,112.54Z" fill="#3b7097"/><path d="M87.09,112.54a3.57,3.57,0,0,0-5.06,0l-3.62,3.62a3.58,3.58,0,0,0,5.06,5.06l3.62-3.62A3.57,3.57,0,0,0,87.09,112.54Z" fill="#3b7097"/><path d="M109.56,112.54a3.57,3.57,0,0,0-5.06,0l-3.62,3.62a3.57,3.57,0,0,0,5.05,5.06l3.63-3.62A3.57,3.57,0,0,0,109.56,112.54Z" fill="#3b7097"/><path d="M32.82,77.15A25.47,25.47,0,0,1,44,56.13,24.1,24.1,0,0,1,55.35,24c.47-.23.95-.44,1.43-.63A24.1,24.1,0,0,0,26.09,56.13a25.36,25.36,0,0,0,14.19,46.38H54.17l0-.31A25.36,25.36,0,0,1,32.82,77.15Z" fill="#3b7097" opacity="0.2"/></g></svg>