<svg xmlns="http://www.w3.org/2000/svg" viewBox="0 0 150 150"><g id="e37d71e2-b09e-431c-be8e-2f4098b21935" data-name="Camada 2"><rect width="150" height="150" fill="#fff"/></g><g id="b32b257e-a549-41cf-84ad-b5b5d32e3076" data-name="Camada 1"><path d="M132.24,93.11a21.75,21.75,0,0,1-21.76,21.76H39.53a21.76,21.76,0,0,1-12.18-39.8,3.58,3.58,0,0,0,1.22-4.51,20.2,20.2,0,0,1-2-8.84,20.52,20.52,0,0,1,20.5-20.5,20.23,20.23,0,0,1,9.07,2.11A3.58,3.58,0,0,0,60,42.88a34.11,34.11,0,0,1,55.76,26.35v.13a3.58,3.58,0,0,0,2.33,3.35A21.86,21.86,0,0,1,132.24,93.11Z" fill="#fff"/><path d="M139.4,93.11v0A28.92,28.92,0,0,1,110.48,122H39.53A28.92,28.92,0,0,1,19.08,72.66c.6-.6,1.24-1.18,1.9-1.74A27.67,27.67,0,0,1,47.07,34.07,27.26,27.26,0,0,1,57.21,36a41.26,41.26,0,0,1,65.64,31A29.07,29.07,0,0,1,139.4,93.11ZM125.87,108.5a21.61,21.61,0,0,0,6.37-15.39,21.86,21.86,0,0,0-14.15-20.4,3.58,3.58,0,0,1-2.33-3.35v-.13A34.11,34.11,0,0,0,60,42.88a3.58,3.58,0,0,1-3.86.45,20.23,20.23,0,0,0-9.07-2.11,20.52,20.52,0,0,0-20.5,20.5,20.2,20.2,0,0,0,2,8.84,3.58,3.58,0,0,1-1.22,4.51,21.76,21.76,0,0,0,12.18,39.8h71A21.57,21.57,0,0,0,125.87,108.5Z" fill="#3b7097"/><path d="M32.82,94.84A25.47,25.47,0,0,1,44,73.82,24.12,24.12,0,0,1,55.35,41.68c.47-.22.95-.43,1.43-.62a24.1,24.1,0,0,0-30.7,32.76,25.36,25.36,0,0,0,14.2,46.38H54.16l.06-.31A25.36,25.36,0,0,1,32.82,94.84Z" fill="#3b7097" opacity="0.2"/></g></svg>