<svg xmlns="http://www.w3.org/2000/svg" viewBox="0 0 150 150"><g id="b44ec425-f0b2-4fe8-b73f-7663581d9c0e" data-name="Camada 2"><rect width="150" height="150" fill="#fff"/></g><g id="f8dff472-3670-414a-b327-5f9c905df6ba" data-name="Camada 1"><path d="M132.24,76a21.77,21.77,0,0,1-21.76,21.77H39.53A21.77,21.77,0,0,1,27.35,57.94a3.58,3.58,0,0,0,1.22-4.51,20.16,20.16,0,0,1-2-8.83,20.53,20.53,0,0,1,20.5-20.51,20.23,20.23,0,0,1,9.07,2.11A3.58,3.58,0,0,0,60,25.75,34.11,34.11,0,0,1,115.76,52.1v.13a3.58,3.58,0,0,0,2.33,3.35A21.87,21.87,0,0,1,132.24,76Z" fill="#3b7097" opacity="0.2"/><path d="M33.76,75.64a25.34,25.34,0,0,1,7.43-17.93,25.62,25.62,0,0,1,3.74-3.08A24.1,24.1,0,0,1,56.3,22.49c.47-.23.94-.44,1.43-.63A24.1,24.1,0,0,0,27,54.63,25.35,25.35,0,0,0,41.22,101H55.11l.06-.31A25.37,25.37,0,0,1,33.76,75.64Z" fill="#fff"/><path d="M139.4,76v0a28.91,28.91,0,0,1-28.92,28.9H39.53A28.92,28.92,0,0,1,19.08,55.53c.6-.6,1.24-1.18,1.9-1.74A27.67,27.67,0,0,1,47.07,16.94a27.26,27.26,0,0,1,10.14,1.92,41.26,41.26,0,0,1,65.64,31A29.07,29.07,0,0,1,139.4,76ZM125.87,91.37A21.61,21.61,0,0,0,132.24,76a21.87,21.87,0,0,0-14.15-20.4,3.58,3.58,0,0,1-2.33-3.35V52.1A34.11,34.11,0,0,0,60,25.75a3.58,3.58,0,0,1-3.86.45,20.23,20.23,0,0,0-9.07-2.11A20.53,20.53,0,0,0,26.57,44.6a20.16,20.16,0,0,0,2,8.83,3.58,3.58,0,0,1-1.22,4.51A21.77,21.77,0,0,0,39.53,97.75h71A21.62,21.62,0,0,0,125.87,91.37Z" fill="#3b7097"/><path d="M119.07,113.05a3.58,3.58,0,0,1,0,5.06l-3.62,3.63,0,0a3.58,3.58,0,0,1-5-5.08l3.62-3.63,0,0A3.58,3.58,0,0,1,119.07,113.05Z" fill="#3b7097"/><path d="M104.2,131a3.57,3.57,0,0,1-1,3.48l-3.62,3.62,0,0a3.58,3.58,0,1,1-5-5.08l3.62-3.62a3.58,3.58,0,0,1,6,1.58Z" fill="#3b7097"/><path d="M96.58,113.05a3.58,3.58,0,0,1,0,5.06L93,121.74a3.58,3.58,0,0,1-5.06-5.06l3.63-3.63A3.58,3.58,0,0,1,96.58,113.05Z" fill="#3b7097"/><path d="M80.77,129.38a3.57,3.57,0,0,1,0,5.06l-3.63,3.62a3.57,3.57,0,1,1-5-5.06l3.62-3.62A3.57,3.57,0,0,1,80.77,129.38Z" fill="#3b7097"/><path d="M74.12,113.05a3.58,3.58,0,0,1,0,5.06l-3.62,3.63a3.58,3.58,0,1,1-5.06-5.06l3.62-3.63A3.59,3.59,0,0,1,74.12,113.05Z" fill="#3b7097"/><path d="M58.3,129.38a3.57,3.57,0,0,1,0,5.06l-3.62,3.62A3.58,3.58,0,0,1,49.62,133l3.62-3.62A3.57,3.57,0,0,1,58.3,129.38Z" fill="#3b7097"/><path d="M51.65,113.05a3.57,3.57,0,0,1,0,5.06L48,121.74l-.05,0a3.57,3.57,0,1,1-5-5.1l3.63-3.63A3.58,3.58,0,0,1,51.65,113.05Z" fill="#3b7097"/><path d="M35.84,129.38a3.57,3.57,0,0,1,0,5.06l-3.63,3.62A3.57,3.57,0,1,1,27.16,133l3.62-3.62A3.57,3.57,0,0,1,35.84,129.38Z" fill="#3b7097"/><path d="M29.19,113.05a3.58,3.58,0,0,1,0,5.06l-3.62,3.63a3.58,3.58,0,1,1-5.06-5.06l3.62-3.63A3.59,3.59,0,0,1,29.19,113.05Z" fill="#3b7097"/></g></svg>