<svg xmlns="http://www.w3.org/2000/svg" viewBox="0 0 150 150"><g id="e09ca1e9-1901-427c-a581-59564c9e1476" data-name="Camada 2"><rect width="150" height="150" fill="#fff"/></g><g id="ae47d4f7-2eb0-4017-a561-b2484807652a" data-name="Camada 1"><path d="M93.13,36.53A29.12,29.12,0,0,0,81,41.9a22.9,22.9,0,0,1,5.86,1.6,43.87,43.87,0,0,1,6.57,2.68A5.35,5.35,0,0,1,95,47.27l.34-.07c27.65-5.27,31.86,11.49,32.1,12.58A29.31,29.31,0,0,0,93.13,36.53Z" fill="#ffb000" opacity="0.2"/><path d="M126.91,35l2.19-2.12a3,3,0,0,1,4.26.07h0a3,3,0,0,1-.06,4.26l-2.19,2.12a3,3,0,0,1-4.26-.06h0A3,3,0,0,1,126.91,35Z" fill="#ffb000"/><path d="M107.26,25.07l.83-2.93a3,3,0,0,1,3.72-2.08h0a3,3,0,0,1,2.08,3.72l-.83,2.93a3,3,0,0,1-3.73,2.08h0A3,3,0,0,1,107.26,25.07Z" fill="#ffb000"/><path d="M88.32,19.71h0A3,3,0,0,1,92,21.9l.75,3a3,3,0,0,1-2.19,3.66h0a3,3,0,0,1-3.66-2.18l-.74-3A3,3,0,0,1,88.32,19.71Z" fill="#ffb000"/><path d="M67.81,31.15h0a3,3,0,0,1,4.26.07l2.12,2.18a3,3,0,0,1-.06,4.27h0a3,3,0,0,1-4.26-.07l-2.13-2.18A3,3,0,0,1,67.81,31.15Z" fill="#ffb000"/><path d="M126.43,92.49a27.3,27.3,0,0,0-2.57-4.87c.15-.15-3.71-4.85-3.88-4.67a27.4,27.4,0,0,0-7.53-5.16A39.58,39.58,0,0,0,86.2,42.45c-1.44-.65-7.17-1.73-7.47-1.86A39.52,39.52,0,0,0,49.38,48,26.37,26.37,0,0,0,17.9,57.33a26.35,26.35,0,0,0-3.16,24.14,27.56,27.56,0,0,0,17.43,48.91H100.9a27.51,27.51,0,0,0,27-33Zm-10.3,25.56a21.37,21.37,0,0,1-15.22,6.3H32.17A21.54,21.54,0,0,1,20.12,85a3,3,0,0,0,1-3.8,20.07,20.07,0,0,1-2-8.75A20.34,20.34,0,0,1,39.48,52.11a20,20,0,0,1,9,2.09,3,3,0,0,0,3.26-.38,33.49,33.49,0,0,1,54.75,25.86v.14a3,3,0,0,0,2,2.82,21.63,21.63,0,0,1,14,20.18A21.39,21.39,0,0,1,116.13,118.05Z" fill="#3b7097"/><path d="M136.54,75.9h0a3,3,0,0,1,3.72-2.08l2.94.83a3,3,0,0,1,2.07,3.73h0a3,3,0,0,1-3.72,2.07l-2.93-.83A3,3,0,0,1,136.54,75.9Z" fill="#ffb000"/><path d="M129.5,89.68h0a3,3,0,0,1,4.24-.44l2.37,1.92a3,3,0,0,1,.44,4.24h0a3,3,0,0,1-4.24.44l-2.37-1.92A3,3,0,0,1,129.5,89.68Z" fill="#ffb000"/><path d="M138.19,52l2.95-.74a3,3,0,0,1,3.67,2.18h0a3,3,0,0,1-2.19,3.66l-3,.75A3,3,0,0,1,136,55.7h0A3,3,0,0,1,138.19,52Z" fill="#ffb000"/><path d="M124,42.16a32.16,32.16,0,0,0-45-1.44s7.41,1.88,7.16,1.8a26.53,26.53,0,0,1,33.36,3.72h0a26.63,26.63,0,0,1,.39,36.66,25.43,25.43,0,0,1,3.89,4.67A32.64,32.64,0,0,0,124,42.16Z" fill="#ffb000"/><path d="M27.4,103.08A24.14,24.14,0,0,1,34.49,86a25.2,25.2,0,0,1,3.57-3A23,23,0,0,1,48.92,52.31c.45-.21.9-.42,1.37-.6A23,23,0,0,0,21,83a24.23,24.23,0,0,0,13.56,44.3H47.78l.06-.3A24.22,24.22,0,0,1,27.4,103.08Z" fill="#3b7097" opacity="0.2"/></g></svg>