<svg id="afba6024-78af-41b4-8d49-c3c2de22b78f" data-name="Camada 1" xmlns="http://www.w3.org/2000/svg" width="917" height="600" viewBox="0 0 917 600"><g opacity="0.32"><path d="M340.75,202a5.17,5.17,0,0,1,1.27-3.93c.83-.83,2.49-1.27,4.93-1.27h5.15c2.48,0,4.14.44,5,1.27a5.37,5.37,0,0,1,1.27,3.93v20.15a5.44,5.44,0,0,1-1.27,3.93c-.83.83-2.49,1.26-5,1.26H347c-2.44,0-4.1-.43-4.93-1.26a5.23,5.23,0,0,1-1.27-3.93Zm6.81,18.67a.69.69,0,0,0,.78.78h2.4a.69.69,0,0,0,.79-.78V203.5a.7.7,0,0,0-.79-.79h-2.4a.7.7,0,0,0-.78.79Z" fill="#3b7097" opacity="0.39"/><path d="M500.52,103.53v24h5.28v5.75H488.65v-5.75h5.23V110.25h-5.23v-4.42l7.32-2.3Z" fill="#3b7097" opacity="0.43"/><path d="M444.94,203.91v30.21h6.63v7.21H430v-7.21h6.57V212.36H430V206.8l9.2-2.89Z" fill="#3b7097" opacity="0.43"/><path d="M464.22,196.16v27.09h5.94v6.47H450.84v-6.47h5.89V203.73h-5.89v-5l8.24-2.59Z" fill="#3b7097" opacity="0.43"/><path d="M444.17,81.64V110h6.22v6.78H430.14V110h6.19V89.58h-6.19V84.35l8.65-2.71Z" fill="#3b7097" opacity="0.43"/><path d="M453.61,136.6c0-1.95.42-3.38,1.37-4.28s2.71-1.38,5.38-1.38H466c2.7,0,4.52.47,5.42,1.38a5.82,5.82,0,0,1,1.38,4.28v22a5.92,5.92,0,0,1-1.38,4.28c-.9.9-2.72,1.38-5.42,1.38h-5.61c-2.67,0-4.47-.48-5.38-1.38a5.74,5.74,0,0,1-1.37-4.28ZM461,157a.75.75,0,0,0,.84.86h2.63a.77.77,0,0,0,.86-.86V138.21a.76.76,0,0,0-.86-.85h-2.63a.75.75,0,0,0-.84.85Z" fill="#3b7097" opacity="0.43"/><path d="M444.42,51.52a5.5,5.5,0,0,1,1.33-4.14c.87-.88,2.62-1.33,5.19-1.33h5.43c2.62,0,4.36.45,5.24,1.33A5.67,5.67,0,0,1,463,51.52V72.75a5.75,5.75,0,0,1-1.34,4.14c-.88.88-2.62,1.33-5.24,1.33h-5.43c-2.57,0-4.32-.45-5.19-1.33a5.58,5.58,0,0,1-1.33-4.14Zm7.17,19.67a.73.73,0,0,0,.82.83H455a.74.74,0,0,0,.83-.83V53.08a.74.74,0,0,0-.83-.83h-2.54a.73.73,0,0,0-.82.83Z" fill="#3b7097" opacity="0.43"/><path d="M406.53,303.63c0-2.15.47-3.71,1.52-4.7s3-1.51,5.89-1.51h6.16c3,0,5,.51,5.95,1.51a6.42,6.42,0,0,1,1.52,4.7v24.1a6.53,6.53,0,0,1-1.52,4.7c-1,1-3,1.51-5.95,1.51h-6.16c-2.92,0-4.9-.52-5.89-1.51s-1.52-2.61-1.52-4.7ZM414.68,326a.83.83,0,0,0,.93.94h2.87a.83.83,0,0,0,.94-.94V305.4a.83.83,0,0,0-.94-.94h-2.87a.83.83,0,0,0-.93.94Z" fill="#3b7097" opacity="0.43"/><path d="M491.85,129.89c0-2.22.49-3.85,1.57-4.88s3.09-1.58,6.13-1.58H506c3.09,0,5.15.54,6.19,1.58a6.72,6.72,0,0,1,1.57,4.88v25.05a6.81,6.81,0,0,1-1.57,4.89c-1,1-3.1,1.57-6.19,1.57h-6.4c-3,0-5.1-.54-6.13-1.57s-1.57-2.71-1.57-4.89Zm8.46,23.22a.85.85,0,0,0,1,1h3a.85.85,0,0,0,1-1V131.74a.86.86,0,0,0-1-1h-3a.86.86,0,0,0-1,1Z" fill="#3b7097" opacity="0.43"/><path d="M528.91,144.67v31.11h6.82v7.42H513.55v-7.42h6.77V153.37h-6.77v-5.73l9.47-3Z" fill="#3b7097" opacity="0.43"/><path d="M477,106.72v23.62h5.18V136H465.33v-5.64h5.14v-17h-5.14V109l7.19-2.26Z" fill="#3b7097" opacity="0.43"/><path d="M428.85,145.81c0-2.3.51-4,1.64-5.07s3.21-1.64,6.37-1.64h6.65c3.22,0,5.37.56,6.44,1.64a7,7,0,0,1,1.64,5.07v26.07A7,7,0,0,1,450,177c-1.07,1.08-3.22,1.64-6.44,1.64h-6.65c-3.16,0-5.3-.56-6.37-1.64s-1.64-2.81-1.64-5.07Zm8.8,24.15a.9.9,0,0,0,1,1h3.1a.91.91,0,0,0,1-1V147.73a.9.9,0,0,0-1-1h-3.1a.89.89,0,0,0-1,1Z" fill="#3b7097" opacity="0.43"/><path d="M398.42,422.59a5.05,5.05,0,0,1,1.24-3.82c.8-.8,2.42-1.23,4.79-1.23h5c2.42,0,4,.43,4.84,1.23a5.21,5.21,0,0,1,1.23,3.82V442.2A5.26,5.26,0,0,1,414.3,446c-.81.81-2.42,1.23-4.84,1.23h-5c-2.37,0-4-.42-4.79-1.23a5.1,5.1,0,0,1-1.24-3.82Zm6.63,18.17a.68.68,0,0,0,.76.77h2.34a.68.68,0,0,0,.76-.77V424a.68.68,0,0,0-.76-.77h-2.34a.68.68,0,0,0-.76.77Z" fill="#3b7097" opacity="0.43"/><path d="M537.31,201.38c0-2,.44-3.48,1.42-4.41s2.8-1.43,5.55-1.43h5.79c2.8,0,4.66.49,5.6,1.43a6,6,0,0,1,1.42,4.41v22.68a6.16,6.16,0,0,1-1.42,4.42c-.94.93-2.8,1.42-5.6,1.42h-5.79c-2.75,0-4.61-.49-5.55-1.42a5.94,5.94,0,0,1-1.42-4.42Zm7.65,21a.78.78,0,0,0,.89.88h2.7a.78.78,0,0,0,.89-.88V203.05a.79.79,0,0,0-.89-.89h-2.7a.79.79,0,0,0-.89.89Z" fill="#3b7097" opacity="0.43"/><path d="M501,278.26a4.9,4.9,0,0,1,1.18-3.7c.78-.78,2.34-1.18,4.63-1.18h4.84c2.35,0,3.91.4,4.69,1.18a5.12,5.12,0,0,1,1.19,3.7v18.95a5.15,5.15,0,0,1-1.19,3.69c-.78.78-2.34,1.19-4.69,1.19h-4.84c-2.29,0-3.85-.41-4.63-1.19a4.94,4.94,0,0,1-1.18-3.69Zm6.4,17.55a.65.65,0,0,0,.73.74h2.26a.65.65,0,0,0,.74-.74V279.65a.66.66,0,0,0-.74-.74h-2.26a.65.65,0,0,0-.73.74Z" fill="#3b7097" opacity="0.43"/><path d="M405.88,247.51c0-2.44.53-4.22,1.72-5.35s3.39-1.72,6.71-1.72h7c3.39,0,5.64.59,6.78,1.72s1.72,2.91,1.72,5.35v27.42a7.45,7.45,0,0,1-1.72,5.35c-1.14,1.13-3.39,1.72-6.78,1.72h-7c-3.32,0-5.58-.59-6.71-1.72s-1.72-3-1.72-5.35Zm9.26,25.4a.94.94,0,0,0,1.07,1.07h3.26a.94.94,0,0,0,1.07-1.07V249.53a.94.94,0,0,0-1.07-1.07h-3.26a.94.94,0,0,0-1.07,1.07Z" fill="#3b7097" opacity="0.43"/><path d="M463.55,246.75v23.36h5.12v5.59H452v-5.59h5.1V253.28H452V249l7.12-2.23Z" fill="#3b7097" opacity="0.43"/><path d="M419.54,361.49v28.42h6.24v6.79H405.51v-6.79h6.19V369.44h-6.19v-5.23l8.65-2.72Z" fill="#3b7097" opacity="0.43"/><path d="M348.48,281.55c0-2.09.46-3.62,1.49-4.6s2.91-1.48,5.77-1.48h6c2.91,0,4.86.51,5.83,1.48a6.32,6.32,0,0,1,1.49,4.6v23.63a6.41,6.41,0,0,1-1.49,4.61c-1,1-2.92,1.48-5.83,1.48h-6c-2.86,0-4.81-.51-5.77-1.48s-1.49-2.56-1.49-4.61Zm8,21.89a.81.81,0,0,0,.92.92h2.82a.81.81,0,0,0,.92-.92V283.29a.82.82,0,0,0-.92-.92h-2.82a.82.82,0,0,0-.92.92Z" fill="#3b7097" opacity="0.45"/><path d="M341,310.29V344h7.39v8h-24v-8h7.34V319.71h-7.34v-6.2l10.26-3.22Z" fill="#3b7097"/><path d="M557.62,221v30.72h6.74v7.34H542.45v-7.34h6.68V229.63h-6.68V224L551.8,221Z" fill="#3b7097" opacity="0.43"/><path d="M400,388.29v27.93h6.14v6.68H386.24v-6.68h6.08V396.1h-6.08V391l8.5-2.67Z" fill="#3b7097" opacity="0.43"/><path d="M561.74,274.78c0-2.45.53-4.24,1.73-5.38s3.41-1.73,6.75-1.73h7c3.41,0,5.68.6,6.81,1.73s1.73,2.93,1.73,5.38v27.58c0,2.4-.59,4.24-1.73,5.38s-3.4,1.73-6.81,1.73h-7c-3.34,0-5.61-.6-6.75-1.73s-1.73-3-1.73-5.38Zm9.32,25.55a1,1,0,0,0,1.07,1.08h3.28a1,1,0,0,0,1.08-1.08V276.81a1,1,0,0,0-1.08-1.08h-3.28a1,1,0,0,0-1.07,1.08Z" fill="#3b7097" opacity="0.43"/><path d="M511.51,337.39a5.18,5.18,0,0,1,1.27-3.95c.83-.83,2.5-1.27,4.94-1.27h5.18c2.49,0,4.16.44,5,1.27a5.47,5.47,0,0,1,1.26,3.95v20.24a5.49,5.49,0,0,1-1.26,3.94c-.84.84-2.51,1.27-5,1.27h-5.18c-2.44,0-4.11-.43-4.94-1.27a5.2,5.2,0,0,1-1.27-3.94Zm6.83,18.75a.7.7,0,0,0,.79.79h2.41a.7.7,0,0,0,.79-.79V338.88a.7.7,0,0,0-.79-.79h-2.41a.7.7,0,0,0-.79.79Z" fill="#3b7097" opacity="0.43"/><path d="M354.17,376.06c0-2,.44-3.51,1.43-4.45s2.82-1.43,5.59-1.43H367c2.82,0,4.7.49,5.64,1.43a6.08,6.08,0,0,1,1.43,4.45v22.83a6.16,6.16,0,0,1-1.43,4.45c-.94.94-2.82,1.43-5.64,1.43h-5.83c-2.77,0-4.65-.49-5.59-1.43s-1.43-2.47-1.43-4.45Zm7.71,21.15a.79.79,0,0,0,.89.89h2.72a.78.78,0,0,0,.89-.89V377.74a.78.78,0,0,0-.89-.89h-2.72a.79.79,0,0,0-.89.89Z" fill="#3b7097" opacity="0.43"/><path d="M469.18,373.4c0-2.07.45-3.58,1.46-4.54s2.87-1.46,5.69-1.46h5.94c2.88,0,4.79.5,5.74,1.46a6.16,6.16,0,0,1,1.47,4.54v23.26A6.24,6.24,0,0,1,488,401.2c-.95,1-2.86,1.46-5.74,1.46h-5.94c-2.82,0-4.74-.5-5.69-1.46s-1.46-2.52-1.46-4.54ZM477,395a.8.8,0,0,0,.9.91h2.77a.8.8,0,0,0,.91-.91V375.1a.8.8,0,0,0-.91-.9h-2.77a.8.8,0,0,0-.9.9Z" fill="#3b7097" opacity="0.43"/><path d="M471.63,332.44v33.43H479v8H455.13v-8h7.27V341.79h-7.27v-6.15l10.17-3.2Z" fill="#3b7097" opacity="0.43"/><path d="M462.39,406.34a5.79,5.79,0,0,1,1.39-4.34c.92-.91,2.75-1.39,5.44-1.39h5.68c2.74,0,4.56.48,5.48,1.39a5.92,5.92,0,0,1,1.4,4.34v22.21a6,6,0,0,1-1.4,4.34c-.92.91-2.74,1.39-5.48,1.39h-5.68c-2.69,0-4.52-.48-5.44-1.39a5.87,5.87,0,0,1-1.39-4.34Zm7.5,20.58a.77.77,0,0,0,.87.87h2.65a.76.76,0,0,0,.86-.87V408a.76.76,0,0,0-.86-.87h-2.65a.77.77,0,0,0-.87.87Z" fill="#3b7097" opacity="0.43"/><path d="M550.54,379.75V406h5.76v6.28H537.58V406h5.71V387.09h-5.71v-4.83l8-2.51Z" fill="#3b7097" opacity="0.43"/><path d="M544.82,281.43c0-2.27.49-3.93,1.6-5s3.16-1.6,6.25-1.6h6.54c3.16,0,5.25.55,6.31,1.6a6.9,6.9,0,0,1,1.61,5V307a7,7,0,0,1-1.61,5c-1.06,1-3.15,1.61-6.31,1.61h-6.54c-3.09,0-5.2-.56-6.25-1.61s-1.6-2.77-1.6-5Zm8.63,23.69a.88.88,0,0,0,1,1h3a.89.89,0,0,0,1-1V283.31a.88.88,0,0,0-1-1h-3a.88.88,0,0,0-1,1Z" fill="#3b7097" opacity="0.43"/><path d="M394.11,226.84v29.32h6.44v7H379.64v-7H386V235h-6.38v-5.39l8.92-2.81Z" fill="#3b7097" opacity="0.43"/><path d="M550.71,231.7c0-2.27.5-3.94,1.61-5s3.16-1.61,6.26-1.61h6.54c3.16,0,5.26.55,6.32,1.61a6.84,6.84,0,0,1,1.61,5v25.6a7,7,0,0,1-1.61,5c-1.06,1-3.16,1.6-6.32,1.6h-6.54c-3.1,0-5.21-.55-6.26-1.6s-1.61-2.78-1.61-5Zm8.64,23.71a.89.89,0,0,0,1,1h3a.88.88,0,0,0,1-1V233.58a.89.89,0,0,0-1-1h-3a.89.89,0,0,0-1,1Z" fill="#3b7097" opacity="0.43"/><path d="M581.62,308.06v30.75h6.75v7.34H566.44v-7.34h6.69V316.66h-6.69V311l9.36-2.94Z" fill="#3b7097" opacity="0.43"/><path d="M581.62,340.21V371h6.75v7.34H566.44V371h6.69V348.81h-6.69v-5.66l9.36-2.94Z" fill="#3b7097" opacity="0.43"/><path d="M567.17,352.8V387h7.5v8.18h-24.4V387h7.46V362.36h-7.46v-6.29l10.42-3.27Z" fill="#3b7097" opacity="0.43"/><path d="M564.26,314.67v28.42h6.23v6.79H550.23v-6.79h6.18V322.62h-6.18v-5.23l8.65-2.72Z" fill="#3b7097" opacity="0.43"/><path d="M317.45,277.69a5.32,5.32,0,0,1,1.29-4c.84-.85,2.54-1.29,5-1.29H329c2.53,0,4.22.44,5.07,1.29a5.53,5.53,0,0,1,1.28,4v20.52a5.61,5.61,0,0,1-1.28,4c-.85.85-2.54,1.29-5.07,1.29h-5.24c-2.48,0-4.18-.44-5-1.29a5.4,5.4,0,0,1-1.29-4Zm6.94,19a.7.7,0,0,0,.79.8h2.44a.7.7,0,0,0,.8-.8V279.21a.7.7,0,0,0-.8-.8h-2.44a.7.7,0,0,0-.79.8Z" fill="#3b7097" opacity="0.69"/><path d="M567.44,353.23c0-2,.45-3.52,1.45-4.47s2.83-1.44,5.6-1.44h5.87c2.83,0,4.72.49,5.67,1.44a6.18,6.18,0,0,1,1.43,4.47v22.95a6.24,6.24,0,0,1-1.43,4.47c-.95,1-2.84,1.44-5.67,1.44h-5.87c-2.77,0-4.66-.49-5.6-1.44s-1.45-2.48-1.45-4.47Zm7.75,21.26a.79.79,0,0,0,.89.89h2.74a.78.78,0,0,0,.89-.89V354.92a.79.79,0,0,0-.89-.9h-2.74a.79.79,0,0,0-.89.9Z" fill="#3b7097" opacity="0.43"/></g><path d="M450.15,404c0-2.39.52-4.14,1.69-5.25s3.32-1.69,6.58-1.69h6.89c3.32,0,5.54.58,6.65,1.69s1.69,2.86,1.69,5.25v26.94a7.3,7.3,0,0,1-1.69,5.25c-1.11,1.11-3.33,1.69-6.65,1.69h-6.89c-3.26,0-5.48-.58-6.58-1.69s-1.69-2.91-1.69-5.25Zm9.1,25a.92.92,0,0,0,1,1.05h3.2a.93.93,0,0,0,1.06-1.05V406a.93.93,0,0,0-1.06-1.05h-3.2a.92.92,0,0,0-1,1.05Z" fill="#3b7097"/><path d="M549.83,278.12c0-2.39.52-4.14,1.69-5.25s3.32-1.69,6.59-1.69H565c3.32,0,5.54.58,6.65,1.69s1.69,2.86,1.69,5.25v26.94c0,2.34-.58,4.14-1.69,5.25S568.31,312,565,312h-6.88c-3.27,0-5.48-.58-6.59-1.69s-1.69-2.91-1.69-5.25Zm9.09,25a.93.93,0,0,0,1.05,1.05h3.21a.93.93,0,0,0,1.05-1.05v-23a.93.93,0,0,0-1.05-1.05H560a.93.93,0,0,0-1.05,1.05Z" fill="#3b7097" opacity="0.79"/><path d="M565.49,335.57v32.95h7.24v7.87H549.22v-7.87h7.17V344.79h-7.17v-6.07l10-3.15Z" fill="#3b7097" opacity="0.64"/><path d="M515.27,385.66c0-2.39.52-4.14,1.69-5.25s3.32-1.69,6.58-1.69h6.89c3.33,0,5.54.58,6.65,1.69s1.69,2.86,1.69,5.25V412.6a7.32,7.32,0,0,1-1.69,5.25c-1.11,1.11-3.32,1.69-6.65,1.69h-6.89c-3.26,0-5.47-.58-6.58-1.69s-1.69-2.92-1.69-5.25Zm9.1,25a.92.92,0,0,0,1,1.05h3.21a.92.92,0,0,0,1-1.05v-23a.92.92,0,0,0-1-1.05h-3.21a.92.92,0,0,0-1,1.05Z" fill="#3b7097"/><path d="M444.33,405.51v32.95h7.23v7.87h-23.5v-7.87h7.17V414.72h-7.17v-6.06l10-3.15Z" fill="#3b7097"/><path d="M433.5,368v33h7.24v7.87H417.23V401h7.17V377.22h-7.17v-6.07l10-3.15Z" fill="#3b7097"/><path d="M457.1,352.23v33h7.24v7.87H440.83v-7.87H448V361.45h-7.18v-6.07l10-3.15Z" fill="#3b7097"/><path d="M573,278.78c0-2.39.53-4.14,1.69-5.25s3.32-1.69,6.58-1.69h6.9c3.32,0,5.53.58,6.64,1.69s1.7,2.86,1.7,5.25v26.94a7.28,7.28,0,0,1-1.7,5.25c-1.11,1.11-3.32,1.69-6.64,1.69h-6.9c-3.26,0-5.47-.58-6.58-1.69s-1.69-2.92-1.69-5.25Zm9.1,25a.93.93,0,0,0,1,1.06h3.22a.93.93,0,0,0,1.05-1.06v-23a.93.93,0,0,0-1.05-1.05h-3.22a.93.93,0,0,0-1,1.05Z" fill="#3b7097"/><path d="M534.85,298.63v32.95h7.24v7.87h-23.5v-7.87h7.17V307.84h-7.17v-6.06l10-3.15Z" fill="#3b7097" opacity="0.64"/><path d="M599.31,304.27v33h7.23v7.87H583v-7.87h7.18V313.48H583v-6.06l10-3.15Z" fill="#3b7097"/><path d="M422.5,341.77v33h7.23v7.87H406.22v-7.87h7.17V351h-7.17v-6.07l10-3.15Z" fill="#3b7097" opacity="0.78"/><path d="M532.58,331.06V364h7.24v7.87h-23.5V364h7.17V340.27h-7.17v-6.06l10-3.15Z" fill="#3b7097"/><path d="M556.88,316.84c0-2.39.53-4.14,1.7-5.25s3.32-1.69,6.58-1.69h6.89c3.32,0,5.54.58,6.65,1.69s1.69,2.86,1.69,5.25v27A7.29,7.29,0,0,1,578.7,349c-1.11,1.11-3.33,1.7-6.65,1.7h-6.89c-3.26,0-5.48-.59-6.58-1.7s-1.7-2.91-1.7-5.24Zm9.1,25a.92.92,0,0,0,1,1.05h3.21a.92.92,0,0,0,1-1.05v-23a.93.93,0,0,0-1-1.05H567a.93.93,0,0,0-1,1.05Z" fill="#3b7097"/><path d="M551.53,359.71c0-2.39.52-4.14,1.69-5.25s3.32-1.69,6.58-1.69h6.89c3.32,0,5.54.58,6.65,1.69s1.69,2.86,1.69,5.25v26.94a7.3,7.3,0,0,1-1.69,5.25c-1.11,1.11-3.33,1.69-6.65,1.69H559.8c-3.26,0-5.48-.58-6.58-1.69s-1.69-2.91-1.69-5.25Zm9.09,25a.93.93,0,0,0,1,1.05h3.21a.93.93,0,0,0,1-1.05v-23a.93.93,0,0,0-1-1.05h-3.21a.93.93,0,0,0-1,1.05Z" fill="#3b7097"/><path d="M502.13,311.77c0-2.39.53-4.14,1.69-5.25s3.33-1.69,6.59-1.69h6.88c3.33,0,5.55.58,6.66,1.69s1.69,2.86,1.69,5.25v26.94A7.32,7.32,0,0,1,524,344c-1.11,1.11-3.33,1.69-6.66,1.69h-6.88c-3.26,0-5.47-.58-6.59-1.69s-1.69-2.92-1.69-5.25Zm9.1,25a.93.93,0,0,0,1,1.06h3.21a.93.93,0,0,0,1-1.06v-23a.93.93,0,0,0-1-1.05h-3.21a.93.93,0,0,0-1,1.05Z" fill="#3b7097"/><path d="M477.62,381.42c0-2.39.53-4.14,1.7-5.25s3.32-1.69,6.58-1.69h6.89c3.32,0,5.54.58,6.65,1.69s1.69,2.86,1.69,5.25v26.94a7.3,7.3,0,0,1-1.69,5.25c-1.11,1.11-3.33,1.69-6.65,1.69H485.9c-3.26,0-5.48-.58-6.58-1.69s-1.7-2.91-1.7-5.25Zm9.1,25a.93.93,0,0,0,1,1.05H491a.93.93,0,0,0,1-1.05v-23a.94.94,0,0,0-1-1.06h-3.21a.94.94,0,0,0-1,1.06Z" fill="#3b7097"/><path d="M556.55,267.88v32.95h7.24v7.87H540.28v-7.87h7.17V277.1h-7.17V271l10-3.15Z" fill="#3b7097"/><path d="M403.2,380.4v33h7.23v7.87H386.92v-7.87h7.18V389.61h-7.18v-6.06l10-3.15Z" fill="#3b7097"/><path d="M467.74,360.83c0-2.39.53-4.14,1.7-5.25s3.32-1.69,6.58-1.69h6.89c3.32,0,5.54.58,6.65,1.69s1.69,2.86,1.69,5.25v26.94a7.3,7.3,0,0,1-1.69,5.25c-1.11,1.11-3.33,1.69-6.65,1.69H476c-3.26,0-5.47-.58-6.58-1.69s-1.7-2.91-1.7-5.25Zm9.1,25a.93.93,0,0,0,1.05,1h3.21a.93.93,0,0,0,1-1v-23a.93.93,0,0,0-1-1.05h-3.21a.93.93,0,0,0-1.05,1.05Z" fill="#3b7097"/><path d="M564,248.31c0-2.39.51-4.14,1.69-5.25s3.32-1.69,6.58-1.69h6.88c3.33,0,5.55.58,6.65,1.69s1.69,2.86,1.69,5.25v26.94c0,2.34-.58,4.14-1.69,5.25s-3.32,1.69-6.65,1.69H572.3c-3.26,0-5.48-.58-6.58-1.69s-1.69-2.91-1.69-5.25Zm9.09,25a.93.93,0,0,0,1,1.05h3.2a.93.93,0,0,0,1.06-1.05v-23a.93.93,0,0,0-1.06-1h-3.2a.93.93,0,0,0-1,1Z" fill="#3b7097"/><path d="M517.82,348.81v32.95h7.23v7.87h-23.5v-7.87h7.17V358h-7.17V352l10-3.15Z" fill="#3b7097"/><g opacity="0.72"><path d="M401.16,132.11v32.95h7.23v7.88H384.88v-7.88h7.18V141.33h-7.18v-6.06l10-3.16Z" fill="#3b7097" opacity="0.33"/><path d="M491.34,101.44v32.95h7.23v7.88H475.06v-7.88h7.18V110.66h-7.18V104.6l10-3.16Z" fill="#3b7097" opacity="0.33"/><path d="M403.45,188c0-2.38.52-4.14,1.69-5.25s3.32-1.69,6.59-1.69h6.88c3.32,0,5.54.58,6.65,1.69S427,185.59,427,188v26.94a7.3,7.3,0,0,1-1.69,5.26c-1.11,1.11-3.33,1.69-6.65,1.69h-6.88c-3.27,0-5.49-.58-6.59-1.69s-1.69-2.92-1.69-5.26Zm9.1,25a.93.93,0,0,0,1,1.06h3.21a.94.94,0,0,0,1.06-1.06V190a.93.93,0,0,0-1.06-1.05h-3.21a.92.92,0,0,0-1,1.05Z" fill="#3b7097" opacity="0.33"/><path d="M489.74,155.74c0-2.39.52-4.14,1.69-5.25s3.33-1.69,6.59-1.69h6.88c3.33,0,5.54.58,6.65,1.69s1.69,2.86,1.69,5.25v26.94a7.27,7.27,0,0,1-1.69,5.25c-1.11,1.11-3.32,1.69-6.65,1.69H498c-3.26,0-5.48-.58-6.59-1.69s-1.69-2.92-1.69-5.25Zm9.1,25a.93.93,0,0,0,1.05,1.05h3.2a.93.93,0,0,0,1.06-1.05v-23a.93.93,0,0,0-1.06-1.05h-3.2a.93.93,0,0,0-1.05,1.05Z" fill="#3b7097" opacity="0.33"/><path d="M418.64,107.88c0-2.39.53-4.14,1.7-5.25s3.33-1.69,6.59-1.69h6.88c3.32,0,5.54.58,6.65,1.69s1.69,2.86,1.69,5.25v26.94c0,2.34-.58,4.14-1.69,5.25s-3.33,1.69-6.65,1.69h-6.88c-3.26,0-5.48-.58-6.59-1.69s-1.7-2.91-1.7-5.25Zm9.11,25a.93.93,0,0,0,1,1H432a.92.92,0,0,0,1.05-1v-23a.92.92,0,0,0-1.05-1h-3.21a.93.93,0,0,0-1,1Z" fill="#3b7097" opacity="0.33"/><path d="M450.79,121.79a4.73,4.73,0,0,1,1.17-3.61c.76-.77,2.29-1.17,4.53-1.17h4.73c2.29,0,3.81.4,4.58,1.17a4.93,4.93,0,0,1,1.16,3.61v18.53a5,5,0,0,1-1.16,3.61c-.77.76-2.29,1.16-4.58,1.16h-4.73c-2.24,0-3.77-.4-4.53-1.16a4.79,4.79,0,0,1-1.17-3.61ZM457.05,139a.64.64,0,0,0,.72.72H460a.64.64,0,0,0,.72-.72V123.15a.64.64,0,0,0-.72-.72h-2.21a.64.64,0,0,0-.72.72Z" fill="#3b7097" opacity="0.33"/><path d="M388.43,197.38v33h7.24v7.87H372.16v-7.87h7.18V206.6h-7.18v-6.07l10-3.15Z" fill="#3b7097" opacity="0.33"/><path d="M445.77,75.72c0-2.39.52-4.14,1.69-5.25s3.33-1.69,6.59-1.69h6.88c3.33,0,5.54.58,6.65,1.69s1.69,2.86,1.69,5.25v26.94c0,2.34-.58,4.14-1.69,5.25s-3.32,1.7-6.65,1.7h-6.88c-3.26,0-5.48-.59-6.59-1.7s-1.69-2.91-1.69-5.25Zm9.1,25a.93.93,0,0,0,1.05,1h3.2a.92.92,0,0,0,1.05-1v-23a.92.92,0,0,0-1.05-1h-3.2a.93.93,0,0,0-1.05,1Z" fill="#3b7097" opacity="0.33"/><path d="M457.32,154.52v32.95h7.23v7.87H441v-7.87h7.18V163.74H441v-6.07l10-3.15Z" fill="#3b7097" opacity="0.33"/><path d="M355.57,175.29a4.43,4.43,0,0,1,1.07-3.34c.71-.7,2.12-1.07,4.19-1.07h4.38c2.11,0,3.52.37,4.23,1.07a4.6,4.6,0,0,1,1.08,3.34v17.13a4.67,4.67,0,0,1-1.08,3.34c-.71.71-2.12,1.08-4.23,1.08h-4.38c-2.07,0-3.48-.37-4.19-1.08a4.49,4.49,0,0,1-1.07-3.34Zm5.78,15.87a.59.59,0,0,0,.67.67h2a.59.59,0,0,0,.67-.67V176.55a.59.59,0,0,0-.67-.67h-2a.6.6,0,0,0-.67.67Z" fill="#3b7097" opacity="0.33"/><path d="M483,170.88v33h7.24v7.87h-23.5v-7.87h7.17V180.09h-7.17V174l10-3.15Z" fill="#3b7097" opacity="0.33"/><path d="M452.58,231.4c0-2.39.52-4.14,1.7-5.25s3.32-1.69,6.58-1.69h6.88c3.33,0,5.54.58,6.65,1.69s1.69,2.86,1.69,5.25v26.94a7.27,7.27,0,0,1-1.69,5.25c-1.11,1.11-3.32,1.69-6.65,1.69h-6.88c-3.26,0-5.48-.58-6.58-1.69s-1.7-2.92-1.7-5.25Zm9.1,25a.93.93,0,0,0,1.05,1.06h3.2a.94.94,0,0,0,1.06-1.06v-23a.94.94,0,0,0-1.06-1h-3.2a.93.93,0,0,0-1.05,1Z" fill="#3b7097" opacity="0.91"/><path d="M328.18,242.39c0-2.39.53-4.13,1.7-5.25s3.33-1.69,6.59-1.69h6.88c3.33,0,5.54.58,6.65,1.69s1.69,2.86,1.69,5.25v26.94a7.27,7.27,0,0,1-1.69,5.25c-1.11,1.11-3.32,1.69-6.65,1.69h-6.88c-3.26,0-5.48-.58-6.59-1.69s-1.7-2.92-1.7-5.25Zm9.11,25a.92.92,0,0,0,1,1h3.21a.93.93,0,0,0,1-1v-23a.93.93,0,0,0-1-1.05h-3.21a.92.92,0,0,0-1,1.05Z" fill="#3b7097" opacity="0.33"/><path d="M436.43,240.81v32.95h7.23v7.87H420.15v-7.87h7.18V250h-7.18V244l10-3.15Z" fill="#3b7097" opacity="0.8"/><path d="M514,188.81c0-2.39.53-4.13,1.69-5.25s3.32-1.69,6.58-1.69h6.89c3.32,0,5.54.58,6.65,1.69s1.7,2.86,1.7,5.25v26.94a7.28,7.28,0,0,1-1.7,5.25c-1.11,1.11-3.33,1.69-6.65,1.69h-6.89c-3.26,0-5.47-.58-6.58-1.69s-1.69-2.92-1.69-5.25Zm9.1,25a.93.93,0,0,0,1,1h3.22a.93.93,0,0,0,1-1v-23a.93.93,0,0,0-1-1h-3.22a.93.93,0,0,0-1,1Z" fill="#3b7097" opacity="0.33"/><path d="M326.1,306.69c0-2.39.51-4.14,1.69-5.25s3.32-1.69,6.58-1.69h6.88c3.33,0,5.55.58,6.65,1.69s1.7,2.86,1.7,5.25v26.94a7.28,7.28,0,0,1-1.7,5.25c-1.1,1.11-3.32,1.69-6.65,1.69h-6.88c-3.26,0-5.47-.58-6.58-1.69s-1.69-2.92-1.69-5.25Zm9.1,25a.92.92,0,0,0,1,1.05h3.2a.93.93,0,0,0,1.06-1.05v-23a.93.93,0,0,0-1.06-1.05h-3.2a.92.92,0,0,0-1,1.05Z" fill="#3b7097" opacity="0.33"/><path d="M319.77,295V327.9H327v7.87H303.5V327.9h7.18V304.17H303.5V298.1l10-3.15Z" fill="#3b7097" opacity="0.33"/><path d="M372.07,266.85c0-2.4.53-4.15,1.69-5.26s3.33-1.69,6.59-1.69h6.89c3.32,0,5.53.58,6.65,1.69s1.69,2.86,1.69,5.26v26.93a7.3,7.3,0,0,1-1.69,5.25c-1.12,1.11-3.33,1.69-6.65,1.69h-6.89c-3.26,0-5.48-.58-6.59-1.69s-1.69-2.91-1.69-5.25Zm9.1,24.95a.93.93,0,0,0,1.05,1.06h3.21a.93.93,0,0,0,1.05-1.06v-23a.93.93,0,0,0-1.05-1.05h-3.21a.93.93,0,0,0-1.05,1.05Z" fill="#3b7097" opacity="0.33"/><path d="M475.7,216.45c0-2.39.53-4.14,1.69-5.25s3.33-1.7,6.59-1.7h6.89c3.32,0,5.54.59,6.65,1.7s1.69,2.86,1.69,5.25v26.94a7.32,7.32,0,0,1-1.69,5.25c-1.11,1.11-3.33,1.69-6.65,1.69H484c-3.26,0-5.48-.58-6.59-1.69s-1.69-2.92-1.69-5.25Zm9.1,25a.93.93,0,0,0,1.05,1.06h3.21a.93.93,0,0,0,1.05-1.06v-23a.93.93,0,0,0-1.05-1.05h-3.21a.93.93,0,0,0-1.05,1.05Z" fill="#3b7097" opacity="0.33"/></g><path d="M360.75,398.62c0-2.39.52-4.14,1.69-5.25s3.32-1.69,6.59-1.69h6.88c3.32,0,5.54.58,6.65,1.69s1.69,2.86,1.69,5.25v26.94a7.27,7.27,0,0,1-1.69,5.25c-1.11,1.11-3.33,1.69-6.65,1.69H369c-3.27,0-5.49-.58-6.59-1.69s-1.69-2.92-1.69-5.25Zm9.09,24.95a.94.94,0,0,0,1.05,1.06h3.21a.93.93,0,0,0,1-1.06v-23a.92.92,0,0,0-1-1.05h-3.21a.93.93,0,0,0-1.05,1.05Z" fill="#3b7097"/><path d="M564.75,348.91c0-2.39.52-4.15,1.69-5.26S569.77,342,573,342h6.88c3.33,0,5.54.58,6.65,1.69s1.69,2.87,1.69,5.26v26.93c0,2.34-.58,4.15-1.69,5.26s-3.32,1.69-6.65,1.69H573c-3.26,0-5.48-.59-6.59-1.69s-1.69-2.92-1.69-5.26Zm9.1,24.95a.93.93,0,0,0,1,1.06h3.22a.92.92,0,0,0,1-1.06v-23a.93.93,0,0,0-1-1.06h-3.22a.93.93,0,0,0-1,1.06Z" fill="#3b7097"/><path d="M537.62,382.82c0-2.39.52-4.14,1.69-5.25s3.33-1.69,6.59-1.69h6.88c3.33,0,5.54.58,6.65,1.69s1.69,2.86,1.69,5.25v26.94a7.27,7.27,0,0,1-1.69,5.25c-1.11,1.11-3.32,1.69-6.65,1.69H545.9c-3.26,0-5.48-.58-6.59-1.69s-1.69-2.92-1.69-5.25Zm9.1,25a.93.93,0,0,0,1,1.05H551a.93.93,0,0,0,1.06-1.05v-23a.94.94,0,0,0-1.06-1.05h-3.2a.93.93,0,0,0-1,1.05Z" fill="#3b7097"/><path d="M545.65,300.87v32.95h7.24v7.87h-23.5v-7.87h7.17V310.08h-7.17V304l10-3.15Z" fill="#3b7097"/><path d="M496.5,408.5v32.95h7.23v7.87h-23.5v-7.87h7.17V417.71h-7.17v-6.06l10-3.15Z" fill="#3b7097"/><path d="M523.77,396.43v32.95H531v7.88H507.49v-7.88h7.18V405.65h-7.18v-6.07l10-3.15Z" fill="#3b7097"/><g opacity="0.87"><path d="M340.09,365.63c0-2.39.52-4.14,1.69-5.25s3.33-1.7,6.59-1.7h6.88c3.32,0,5.54.59,6.65,1.7s1.7,2.86,1.7,5.25v26.94a7.28,7.28,0,0,1-1.7,5.25c-1.11,1.11-3.33,1.69-6.65,1.69h-6.88c-3.26,0-5.48-.58-6.59-1.69s-1.69-2.92-1.69-5.25Zm9.1,24.95a.93.93,0,0,0,1,1.06h3.22a.92.92,0,0,0,1-1.06v-23a.92.92,0,0,0-1-1.05h-3.22a.93.93,0,0,0-1,1.05Z" fill="#3b7097" opacity="0.78"/><path d="M337.79,353.89v32.95H345v7.87H321.51v-7.87h7.18V363.1h-7.18V357l10-3.15Z" fill="#3b7097" opacity="0.78"/><path d="M365.64,348.65c0-2.39.52-4.15,1.69-5.25s3.33-1.69,6.59-1.69h6.88c3.32,0,5.54.58,6.65,1.69s1.7,2.86,1.7,5.25v26.94a7.28,7.28,0,0,1-1.7,5.25c-1.11,1.11-3.33,1.69-6.65,1.69h-6.88c-3.26,0-5.48-.58-6.59-1.69s-1.69-2.92-1.69-5.25Zm9.1,25a.93.93,0,0,0,1,1.05H379a.93.93,0,0,0,1.05-1.05v-23a.94.94,0,0,0-1.05-1.06h-3.21a.93.93,0,0,0-1,1.06Z" fill="#3b7097" opacity="0.78"/><path d="M483.84,331.8c0-2.39.52-4.14,1.68-5.25s3.33-1.69,6.6-1.69H499c3.32,0,5.54.58,6.65,1.69s1.69,2.86,1.69,5.25v26.94a7.32,7.32,0,0,1-1.69,5.25c-1.11,1.11-3.33,1.69-6.65,1.69h-6.88c-3.27,0-5.48-.58-6.6-1.69s-1.68-2.92-1.68-5.25Zm9.09,25a.93.93,0,0,0,1.05,1.05h3.21a.93.93,0,0,0,1.05-1.05v-23a.93.93,0,0,0-1.05-1H494a.93.93,0,0,0-1.05,1Z" fill="#3b7097" opacity="0.83"/><path d="M559.22,226.61v32.95h7.23v7.87H542.94v-7.87h7.18V235.82h-7.18v-6.06l10-3.15Z" fill="#3b7097" opacity="0.78"/><path d="M537.78,255.62v33H545v7.87H521.51v-7.87h7.18V264.84h-7.18v-6.07l10-3.15Z" fill="#3b7097" opacity="0.78"/><path d="M401,286.13c0-2.39.53-4.14,1.69-5.25s3.33-1.69,6.59-1.69h6.88c3.33,0,5.55.58,6.66,1.69s1.69,2.86,1.69,5.25v26.94a7.29,7.29,0,0,1-1.69,5.25c-1.11,1.12-3.33,1.69-6.66,1.69H409.3c-3.26,0-5.48-.57-6.59-1.69s-1.69-2.91-1.69-5.25Zm9.1,25a.93.93,0,0,0,1.05,1.05h3.21a.93.93,0,0,0,1.05-1.05v-23a.93.93,0,0,0-1.05-1.05h-3.21a.93.93,0,0,0-1.05,1.05Z" fill="#3b7097" opacity="0.78"/><path d="M431.82,300.77c0-2.39.52-4.14,1.69-5.25s3.33-1.69,6.59-1.69H447c3.33,0,5.54.58,6.66,1.69s1.68,2.86,1.68,5.25v26.94a7.3,7.3,0,0,1-1.68,5.25c-1.12,1.11-3.33,1.69-6.66,1.69H440.1c-3.26,0-5.48-.58-6.59-1.69s-1.69-2.91-1.69-5.25Zm9.1,25a.93.93,0,0,0,1,1h3.22a.93.93,0,0,0,1.05-1v-23a.93.93,0,0,0-1.05-1.05H442a.93.93,0,0,0-1,1.05Z" fill="#3b7097" opacity="0.78"/><path d="M515.68,214V247h7.23v7.87H499.42V247h7.17V223.23h-7.17v-6.06l10-3.15Z" fill="#3b7097" opacity="0.61"/><path d="M544.36,214V247h7.23v7.87H528.08V247h7.18V223.23h-7.18v-6.06l10-3.15Z" fill="#3b7097" opacity="0.78"/><path d="M372.27,310.75V343.7h7.24v7.87H356V343.7h7.17V320H356V313.9l10-3.15Z" fill="#3b7097" opacity="0.78"/><path d="M497.31,257.17v32.95h7.23V298H481v-7.87h7.18V266.38H481v-6.06l10-3.15Z" fill="#3b7097" opacity="0.78"/><path d="M519.13,262.52v33h7.23v7.88H502.85v-7.88H510V271.74h-7.18v-6.07l10-3.15Z" fill="#3b7097" opacity="0.78"/><path d="M467.08,312.82c0-2.39.53-4.13,1.69-5.25s3.33-1.69,6.59-1.69h6.88c3.33,0,5.54.58,6.65,1.69s1.69,2.86,1.69,5.25v26.95a7.32,7.32,0,0,1-1.69,5.25c-1.11,1.11-3.32,1.69-6.65,1.69h-6.88c-3.26,0-5.49-.58-6.59-1.69s-1.69-2.92-1.69-5.25Zm9.1,25a.92.92,0,0,0,1,1.06h3.21a.93.93,0,0,0,1.05-1.06v-23a.92.92,0,0,0-1.05-1.05h-3.21a.92.92,0,0,0-1,1.05Z" fill="#3b7097" opacity="0.78"/><path d="M403.65,331.6v32.95h7.24v7.88H387.38v-7.88h7.18V340.82h-7.18v-6.07l10-3.15Z" fill="#3b7097" opacity="0.78"/><path d="M455.74,280.47c0-2.39.52-4.14,1.69-5.25s3.33-1.69,6.59-1.69h6.88c3.33,0,5.54.58,6.65,1.69s1.7,2.86,1.7,5.25v26.94a7.26,7.26,0,0,1-1.7,5.25c-1.11,1.11-3.32,1.69-6.65,1.69H464c-3.26,0-5.49-.58-6.59-1.69s-1.69-2.91-1.69-5.25Zm9.1,25a.92.92,0,0,0,1.05,1.05h3.2a.93.93,0,0,0,1.06-1.05v-23a.94.94,0,0,0-1.06-1.05h-3.2a.93.93,0,0,0-1.05,1.05Z" fill="#3b7097" opacity="0.78"/><path d="M436.64,321v33h7.23v7.87H420.36V354h7.18V330.25h-7.18v-6.07l10-3.15Z" fill="#3b7097" opacity="0.78"/><path d="M392.61,301.15v33h7.23V342h-23.5V334.1h7.17V310.37h-7.17V304.3l10-3.15Z" fill="#3b7097" opacity="0.78"/></g><path d="M400.19,419.15c0-2.39.53-4.14,1.7-5.25s3.33-1.69,6.59-1.69h6.88c3.32,0,5.54.58,6.65,1.69s1.69,2.86,1.69,5.25v26.94c0,2.34-.58,4.14-1.69,5.25s-3.33,1.69-6.65,1.69h-6.88c-3.26,0-5.48-.58-6.59-1.69s-1.7-2.91-1.7-5.25Zm9.11,25a.93.93,0,0,0,1,1.05h3.21a.92.92,0,0,0,1.05-1.05v-23a.92.92,0,0,0-1.05-1.05h-3.21a.93.93,0,0,0-1,1.05Z" fill="#3b7097"/><path d="M453.61,426.25c0-2.4.52-4.14,1.69-5.25s3.32-1.69,6.58-1.69h6.89c3.33,0,5.55.58,6.66,1.69s1.68,2.85,1.68,5.25v26.94a7.36,7.36,0,0,1-1.68,5.25c-1.11,1.1-3.33,1.69-6.66,1.69h-6.89c-3.26,0-5.47-.59-6.58-1.69s-1.69-2.92-1.69-5.25Zm9.09,24.95a.94.94,0,0,0,1.05,1.06H467A.93.93,0,0,0,468,451.2v-23a.93.93,0,0,0-1.06-1.05h-3.21a.93.93,0,0,0-1.05,1.05Z" fill="#3b7097"/><path d="M609.41,306.86a155.7,155.7,0,0,1-311.39,0c0-86,155.69-272.47,155.69-272.47S609.41,220.87,609.41,306.86Z" fill="#3c7295" opacity="0.05"/><path d="M83,518.43l9.62,12.34v27.1l-8.52,11.9H77.83l-19.54-.07-2.79-2.8V521.22l2.86-2.87ZM64,561H78.56l6-7.94-.22-18.51L78,526.87H64Z" fill="#3c7295"/><path d="M138,525.33v42l-2.71,2.43h-2.72l-2.72-2.43V545.09H111.17v22.25l-2.71,2.43h-2.72L103,567.34V525.26h.07l7.57-6.91h19.76l7.49,6.91H138ZM111.1,536.79h18.8v-7l-2.57-2.57H113.67l-2.57,2.57Z" fill="#3c7295"/><path d="M175.74,518.43l9.62,12.34v27.1l-8.52,11.9H170.6l-19.54-.07-2.79-2.8V521.22l2.86-2.87Zm-19,42.6h14.54l5.95-7.94-.22-18.51-6.32-7.71h-14Z" fill="#3c7295"/><path d="M224.8,518.35v.08H225l2.72,2.64v.29l5.65,16.82h.08l-.08,12.2-5.65,16.45-2.79,2.94H203.43l-2.87-2.94-5.65-16.45-.08-12.2h.08l5.65-17,2.87-2.87Zm-21.3,20.13h-.07v11.31L208,561.25h12.27l4.55-11.46V538.48h-.07l-4-11.53H207.54Z" fill="#3c7295"/><path d="M268.07,518.5l8.37,8.45.07,5.8-2.13,2.35h-4l-2.27-2.35V530l-2.87-3H253.74L251,529.81v2.86l25.64,14.25v14.33l-8,8.52H250.66l-8.45-8.38v-6.53l2.79-2.72h2.87l2.79,2.79v3.31l2.86,3h11.53l2.94-2.72v-5.88l-25.71-14.54V527h.08l8.59-8.6Z" fill="#3c7295"/><path d="M339.83,525.33v42l-2.72,2.43h-2.72l-2.72-2.43V545.09H313v22.25l-2.72,2.43h-2.72l-2.72-2.43V525.26h.08l7.56-6.91h19.76l7.49,6.91h.08Zm-26.89,11.46h18.81v-7l-2.57-2.57H315.52l-2.58,2.57Z" fill="#3c7295"/><path d="M403.8,526.87v14.4l-8,8.67L378,549.72v17.4l-2.86,2.65h-3.53l-2.86-2.65v-46l2.71-2.71,23.88-.08ZM378,541.2h14.47l2.5-2.58v-9.18l-2.5-2.49H378Z" fill="#3c7295"/><path d="M444.94,525.62l.07,15.72v.15l-3.89,3.82,3.82,3.3v18.73l-2.87,2.43h-2.94l-2.79-2.43V552.51l-2.86-2.65.66-.07-15.06-.07v17.62l-2.94,2.43h-2.86l-2.87-2.43V521.22l2.87-2.79,24.31-.08Zm-25.86,15.5h14.47l2.57-2.5v-9.1l-2.57-2.5H419.08Z" fill="#3c7295"/><path d="M484.45,518.35v.08h.15l2.72,2.64v.29L493,538.18h.08l-.08,12.2-5.65,16.45-2.79,2.94H463.08l-2.87-2.94-5.65-16.45-.08-12.2h.08l5.65-17,2.87-2.87Zm-21.3,20.13h-.07v11.31l4.55,11.46H479.9l4.55-11.46V538.48h-.07l-4-11.53H467.19Z" fill="#3c7295"/><path d="M536,518.35l3,2.87v28.57l-8.67,17-2.86,2.94H513.39l-2.93-2.94-8.6-17h-.07V521.22l2.94-2.87h2.86l3,2.87v26.22l7.49,14.84h4.63l7.49-14.84V521.22l2.94-2.87Z" fill="#3c7295"/><path d="M583.91,525.33v42l-2.72,2.43h-2.72l-2.72-2.43V545.09H557.1v22.25l-2.72,2.43h-2.72l-2.72-2.43V525.26H549l7.56-6.91h19.76l7.49,6.91h.08ZM557,536.79h18.81v-7l-2.57-2.57H559.59L557,529.81Z" fill="#3c7295"/><path d="M640,518.43l9.63,12.34v27.1l-8.53,11.9h-6.24l-19.54-.07-2.79-2.8V521.22l2.87-2.87ZM621.07,561h14.55l6-7.94-.22-18.51L635,526.87h-14Z" fill="#3c7295"/><path d="M713.4,525.33v42l-2.72,2.43H708l-2.72-2.43V545.09H686.59v22.25l-2.72,2.43h-2.71l-2.72-2.43V525.26h.07l7.57-6.91h19.76l7.49,6.91h.07Zm-26.88,11.46h18.8v-7l-2.57-2.57H689.09l-2.57,2.57Z" fill="#3c7295"/><path d="M754.31,518.35l3.38,3.31-.07,9-2.72,2.72H752l-2.72-2.8v-3.23l-1.1-1.1H736.17l-4.41,15.5.08,8.15,4.48,12h13.51l1.84-1.91.07-10.73H741.61l-2.72-2.72v-2.86l2.79-2.72L757,541,760,544.5v22l-3.23,3.31H731.62l-3.09-3.16L723,551.77H723V540.39l5.58-18.73,3.53-3.31Z" fill="#3c7295"/><path d="M803.45,518.35l2.94,2.72v40.1l-8.45,8.6H777.6v-.07l-8.38-8.38L769.08,521l2.86-2.65h2.79l2.87,2.72.07,37.24,2.72,2.86h14.47l2.94-2.64V521l2.86-2.65Z" fill="#3c7295"/><path d="M851.79,525.33v42l-2.72,2.43h-2.72l-2.72-2.43V545.09H825v22.25l-2.71,2.43h-2.72l-2.72-2.43V525.26h.08l7.56-6.91h19.76l7.49,6.91h.08ZM824.9,536.79h18.81v-7l-2.58-2.57H827.47l-2.57,2.57Z" fill="#3c7295"/><path d="M665.94,508.23l3.53,3.38v3.45l-3.23,7.78h-3.6l.59-4.33h-2.06l-3.45-3.45v-3.38l3.52-3.45Z" fill="#3c7295"/><path d="M707.67,487.57l2.91.31,3,3-.05,2.55L699.88,507.1l-2.8.2-3-3-.11-3.11Z" fill="#3c7295"/><path d="M323.5,504.42l-.32,2.91-3,3-2.54,0L304,496.63l-.21-2.8,3-3,3.12-.11Z" fill="#3c7295"/></svg>