<svg width="114" height="25" viewBox="0 0 114 25" fill="none" xmlns="http://www.w3.org/2000/svg">
<path d="M4.13672 16.3896C3.60677 17.1846 3.08398 17.8327 2.56836 18.334C2.0599 18.8281 1.56576 19.0752 1.08594 19.0752C0.842448 19.0752 0.659831 19.0179 0.538086 18.9033C0.330404 18.7171 0.226562 18.5417 0.226562 18.377C0.226562 18.2122 0.280273 18.0905 0.387695 18.0117C1.46908 17.2311 2.66862 14.9395 3.98633 11.1367L4.62012 9.33203C5.35059 7.26953 5.97005 5.99121 6.47852 5.49707C6.65755 5.361 6.84375 5.29297 7.03711 5.29297C7.23047 5.29297 7.39876 5.3252 7.54199 5.38965C7.68522 5.44694 7.81055 5.52214 7.91797 5.61523C8.16146 5.83008 8.2832 6.08073 8.2832 6.36719C8.2832 6.47461 8.23307 6.62858 8.13281 6.8291C8.03255 7.02962 7.91797 7.29102 7.78906 7.61328L6.4248 11.4053C8.16504 11.0902 9.60091 10.3704 10.7324 9.24609C11.7923 8.19336 12.3223 7.11198 12.3223 6.00195C12.3223 4.94922 11.8496 4.25814 10.9043 3.92871C10.582 3.81413 10.2061 3.75684 9.77637 3.75684C9.35384 3.75684 8.92057 3.81055 8.47656 3.91797C8.03255 4.02539 7.5957 4.16504 7.16602 4.33691C6.29948 4.68783 5.59049 5.09961 5.03906 5.57227C4.89583 5.70833 4.73828 5.77637 4.56641 5.77637C4.39453 5.77637 4.2334 5.74056 4.08301 5.66895C3.93262 5.59733 3.80013 5.50423 3.68555 5.38965C3.42057 5.139 3.28809 4.88477 3.28809 4.62695C3.28809 4.36198 3.38118 4.12565 3.56738 3.91797C3.75358 3.71029 4.00065 3.52409 4.30859 3.35938C4.61654 3.1875 4.97103 3.03711 5.37207 2.9082C5.77311 2.77214 6.1849 2.65755 6.60742 2.56445C7.4668 2.38542 8.31901 2.2959 9.16406 2.2959C10.0163 2.2959 10.7933 2.40332 11.4951 2.61816C12.2041 2.82585 12.7878 3.10872 13.2461 3.4668C14.1699 4.18294 14.6318 5.09245 14.6318 6.19531V6.36719C14.5674 7.7207 14.0553 8.91309 13.0957 9.94434C12.2578 10.8395 11.1764 11.5449 9.85156 12.0605C8.6556 12.5332 7.52409 12.7695 6.45703 12.7695H6.17773C6.08464 12.7695 5.99512 12.7624 5.90918 12.748C5.26465 14.3737 4.67383 15.5876 4.13672 16.3896ZM14.0625 15.2402C14.0911 14.6172 14.195 14.0228 14.374 13.457C14.5531 12.8841 14.793 12.3327 15.0938 11.8027C15.3945 11.2656 15.7454 10.7607 16.1465 10.2881C16.5547 9.80827 16.9951 9.38932 17.4678 9.03125C18.4919 8.26497 19.5267 7.88184 20.5723 7.88184C21.7969 7.88184 22.6133 8.38672 23.0215 9.39648C23.1647 9.74023 23.2327 10.1484 23.2256 10.6211C23.2184 11.0866 23.1289 11.5199 22.957 11.9209C22.7852 12.3148 22.5452 12.6764 22.2373 13.0059C21.9365 13.3281 21.5749 13.6182 21.1523 13.876C20.737 14.1338 20.2822 14.3522 19.7881 14.5312C18.7712 14.8893 17.6826 15.0755 16.5225 15.0898C16.4938 15.1901 16.4759 15.3405 16.4688 15.541C16.4616 15.7415 16.4831 15.9671 16.5332 16.2178C16.5833 16.4613 16.6693 16.6797 16.791 16.873C17.0488 17.3027 17.4212 17.5176 17.9082 17.5176C18.7389 17.5176 19.5482 17.2741 20.3359 16.7871C20.6152 16.6224 20.8408 16.4541 21.0127 16.2822C21.1917 16.1032 21.3457 16.0137 21.4746 16.0137C21.6035 16.0137 21.7145 16.0924 21.8076 16.25C21.9079 16.4004 21.958 16.5723 21.958 16.7656C21.958 17.1452 21.8506 17.4746 21.6357 17.7539C20.7334 18.6562 19.3906 19.1074 17.6074 19.1074C16.5547 19.1074 15.7096 18.7923 15.0723 18.1621C14.3561 17.446 14.0195 16.472 14.0625 15.2402ZM20.3359 9.31055C19.584 9.31055 18.8607 9.82617 18.166 10.8574C17.5788 11.7454 17.1061 12.7982 16.748 14.0156C17.944 13.8939 18.9824 13.4212 19.8633 12.5977C20.6725 11.8242 21.0771 11.083 21.0771 10.374C21.0771 9.66504 20.8301 9.31055 20.3359 9.31055ZM30.627 16.6582C29.5384 18.291 28.3317 19.1074 27.0068 19.1074C25.8109 19.1074 25.0052 18.4701 24.5898 17.1953C24.4466 16.7585 24.375 16.2214 24.375 15.584C24.375 14.9466 24.4645 14.3092 24.6436 13.6719C24.8298 13.0273 25.0804 12.4186 25.3955 11.8457C25.7106 11.2728 26.0794 10.7464 26.502 10.2666C26.9316 9.77962 27.39 9.36068 27.877 9.00977C28.8939 8.25781 29.9036 7.88184 30.9062 7.88184C31.9089 7.88184 32.625 8.35091 33.0547 9.28906C33.1406 9.19596 33.2194 9.10286 33.291 9.00977C33.3626 8.90951 33.4414 8.81641 33.5273 8.73047C33.7135 8.54427 33.8747 8.45117 34.0107 8.45117C34.154 8.45117 34.3008 8.47624 34.4512 8.52637C34.6087 8.5765 34.7591 8.64453 34.9023 8.73047C35.2533 8.93815 35.3857 9.13151 5.2998 9.31055C34.9059 10.1628 34.5765 11.0007 34.3115 11.8242L32.7217 16.8945C31.4684 20.7402 29.8786 23.2253 27.9521 24.3496C27.4437 24.6504 27.0033 24.8223 26.6309 24.8652C26.2585 24.9154 25.9899 24.9189 25.8252 24.876C25.6605 24.833 25.5137 24.7721 25.3848 24.6934C25.1055 24.5143 24.9658 24.3532 24.9658 24.21C24.9658 23.9593 25.1305 23.8053 25.46 23.748C25.7965 23.6908 26.1475 23.5547 26.5127 23.3398C26.8779 23.1322 27.2253 22.8779 27.5547 22.5771C28.9082 21.3239 29.9323 19.3509 30.627 16.6582ZM27.4043 12.9307C27.2181 13.4463 27.0713 13.9762 26.9639 14.5205C26.8564 15.0576 26.8027 15.498 26.8027 15.8418C26.8027 16.1855 26.8135 16.4469 26.835 16.626C26.8564 16.805 26.8994 16.9626 26.9639 17.0986C27.1071 17.3994 27.3184 17.5498 27.5977 17.5498C27.877 17.5498 28.1527 17.4531 28.4248 17.2598C28.6969 17.0592 28.9834 16.7871 29.2842 16.4434C29.585 16.0996 29.8857 15.695 30.1865 15.2295C30.4873 14.764 30.7738 14.2627 31.0459 13.7256C31.6475 12.5368 32.07 11.4017 32.3135 10.3203C32.2777 10.1198 32.1559 9.91569 31.9482 9.70801C31.54 9.31413 31.1712 9.11719 30.8418 9.11719C30.5124 9.11719 30.1829 9.22103 29.8535 9.42871C29.5241 9.62923 29.209 9.90495 28.9082 10.2559C28.6146 10.5996 28.3389 11.0042 28.0811 11.4697C27.8232 11.9281 27.5977 12.415 27.4043 12.9307ZM44.2266 16.1426C44.2266 16.8014 44.4593 17.1309 44.9248 17.1309C45.2471 17.1309 45.512 17.0807 45.7197 16.9805C45.9346 16.8802 46.0778 16.8301 46.1494 16.8301C46.2998 16.8301 46.375 16.9089 46.375 17.0664C46.375 17.6823 46.0527 18.2122 45.4082 18.6562C44.7279 19.1217 44.0332 19.2363 43.3242 19C42.8587 18.8353 42.515 18.4808 42.293 17.9365C42.1855 17.6572 42.1318 17.403 42.1318 17.1738C42.1318 16.8014 42.1676 16.4076 42.2393 15.9922C41.5732 17.3529 40.7461 18.291 39.7578 18.8066C39.3639 19.0072 38.945 19.1074 38.501 19.1074C38.057 19.1074 37.6702 19.0179 37.3408 18.8389C37.0186 18.6527 36.7428 18.3984 36.5137 18.0762C36.0482 17.403 35.8369 16.5579 35.8799 15.541C35.9229 14.2663 36.2988 13.0166 37.0078 11.792C37.6595 10.6462 38.4831 9.71159 39.4785 8.98828C40.474 8.25065 41.4049 7.88184 42.2715 7.88184C43.138 7.88184 43.8363 8.2793 44.3662 9.07422C44.8604 8.2793 45.2972 7.88184 45.6768 7.88184C46.085 7.88184 46.3929 7.95703 46.6006 8.10742C46.9945 8.39388 47.1341 8.64453 47.0195 8.85938C45.222 12.5404 44.2982 14.832 44.248 15.7344C44.2337 15.8633 44.2266 15.9993 44.2266 16.1426ZM38.2646 16.1855C38.2646 17.0449 38.5404 17.4746 39.0918 17.4746C39.5143 17.4746 40.0335 17.1165 40.6494 16.4004C41.5518 15.3477 42.3503 13.9297 43.0449 12.1465C43.2669 11.5879 43.4531 11.0293 43.6035 10.4707C43.5749 9.98372 43.3708 9.62565 42.9912 9.39648C42.8623 9.31771 42.6689 9.27832 42.4111 9.27832C42.1605 9.27832 41.8633 9.37142 41.5195 9.55762C41.1829 9.74382 40.8535 9.99805 40.5312 10.3203C40.2161 10.6426 39.9189 11.0257 39.6396 11.4697C39.3675 11.9066 39.1276 12.3828 38.9199 12.8984C38.4831 14.0013 38.2646 15.097 38.2646 16.1855ZM54.9043 14.4883L54.915 14.1768C54.9938 12.0355 55.5345 10.0124 56.5371 8.10742C57.4609 6.36719 58.6247 4.95996 60.0283 3.88574C61.4176 2.82585 62.7712 2.2959 64.0889 2.2959C65.0915 2.2959 65.8828 2.64323 66.4629 3.33789C66.957 3.93945 67.2041 4.67708 67.2041 5.55078C67.2041 6.59635 66.821 7.6276 66.0547 8.64453C65.6107 9.23177 65.138 9.6543 64.6367 9.91211C64.4004 10.041 64.1784 10.1055 63.9707 10.1055C63.7702 10.1055 63.584 10.0625 63.4121 9.97656C63.2402 9.89062 63.0898 9.7832 62.9609 9.6543C62.696 9.375 62.5635 9.12435 62.5635 8.90234C62.5635 8.68034 62.6208 8.52637 62.7354 8.44043C63.9098 7.59538 64.7083 6.72526 65.1309 5.83008C65.2956 5.48633 65.3779 5.14974 65.3779 4.82031C65.3779 4.12565 65.0485 3.77832 64.3896 3.77832C63.3584 3.77832 62.2949 4.34049 61.1992 5.46484C60.1751 6.50326 59.3158 7.80664 58.6211 9.375C57.8978 10.9863 57.5146 12.4652 57.4717 13.8115L57.4609 14.2197C57.4609 15.8311 57.8011 16.8874 58.4814 17.3887C58.7249 17.5677 59.015 17.6572 59.3516 17.6572C59.6953 17.6572 60.0176 17.6143 60.3184 17.5283C60.6191 17.4424 60.9199 17.3242 61.2207 17.1738C61.7077 16.9232 62.3307 16.4899 63.0898 15.874C63.319 15.695 63.5088 15.7201 63.6592 15.9492C63.7881 16.1354 63.8525 16.3503 63.8525 16.5938C63.8525 17.002 63.7952 17.2812 63.6807 17.4316C63.5732 17.5749 63.3835 17.7467 63.1113 17.9473C62.8464 18.1478 62.5205 18.334 62.1338 18.5059C61.2314 18.9069 60.347 19.1074 59.4805 19.1074C58.6139 19.1074 57.9157 19.0036 57.3857 18.7959C56.8558 18.5811 56.4082 18.2767 56.043 17.8828C55.2839 17.0521 54.9043 15.9206 54.9043 14.4883ZM74.1328 9.91211C73.7389 9.91211 73.0335 10.5137 72.0166 11.7168L71.125 12.8125L69.4062 15.0576C68.9909 15.8454 68.665 16.5007 68.4287 17.0234L67.8486 18.2695C67.6982 18.5775 67.5658 18.7959 67.4512 18.9248C67.3438 19.0465 67.1934 19.1074 67 19.1074C66.8138 19.1074 66.6312 19.0716 66.4521 19C66.2803 18.9355 66.1299 18.8496 66.001 18.7422C65.7288 18.513 65.5928 18.2624 65.5928 17.9902C65.5928 17.8828 65.668 17.6715 65.8184 17.3564L66.248 16.4863C67.5872 13.7292 68.8011 10.2344 69.8896 6.00195C70.2907 4.44076 70.5807 3.03711 70.7598 1.79102C70.8385 1.18945 71.1322 0.888672 71.6406 0.888672C71.9701 0.888672 72.2422 0.967448 72.457 1.125C72.8724 1.43294 73.0729 1.76237 73.0586 2.11328C73.0443 2.46419 72.9941 2.85807 72.9082 3.29492C72.8223 3.73177 72.7113 4.20801 72.5752 4.72363C72.4391 5.2321 72.2852 5.76921 72.1133 6.33496C71.6406 7.77441 71.2897 8.81283 71.0605 9.4502C70.3587 11.3766 69.9255 12.5046 69.7607 12.834C69.8682 12.7051 70.0078 12.5296 70.1797 12.3076C71.4831 10.596 72.2887 9.57552 72.5967 9.24609C72.9046 8.90951 73.166 8.65169 73.3809 8.47266C73.832 8.07878 74.4049 7.88184 75.0996 7.88184C75.6654 7.88184 76.1201 8.07161 76.4639 8.45117C76.7861 8.81641 76.9473 9.21745 76.9473 9.6543C76.9473 10.084 76.8971 10.4743 76.7969 10.8252C76.7038 11.1689 76.582 11.5199 76.4316 11.8779C76.2812 12.236 76.1165 12.6048 75.9375 12.9844L75.4004 14.1123C74.8991 15.251 74.6484 16.096 74.6484 16.6475C74.6484 17.0342 74.806 17.2275 75.1211 17.2275C75.4219 17.2275 75.694 17.1631 75.9375 17.0342C76.1882 16.9053 76.3493 16.8408 76.4209 16.8408C76.5713 16.8408 76.6465 16.916 76.6465 17.0664C76.6465 17.7038 76.3242 18.2373 75.6797 18.667C75.2357 18.9606 74.8311 19.1074 74.4658 19.1074C74.1006 19.1074 73.7962 19.0716 73.5527 19C73.3164 18.9212 73.1051 18.7959 72.9189 18.624C72.4964 18.2373 72.2852 17.668 72.2852 16.916C72.2852 16.1068 72.5501 15.0898 73.0801 13.8652L74.2402 11.3945C74.4622 10.9362 74.5732 10.5745 74.5732 10.3096C74.5732 10.0446 74.4264 9.91211 74.1328 9.91211ZM88.624 16.8838C88.7887 16.8838 88.8711 16.9661 88.8711 17.1309C88.8711 17.7539 88.5632 18.2767 87.9473 18.6992C87.5319 18.9714 87.0449 19.1074 86.4863 19.1074C86.028 19.1074 85.6771 19 85.4336 18.7852C84.9967 18.3984 84.7783 17.9258 84.7783 17.3672C84.7783 16.6582 85.0755 15.5732 85.6699 14.1123C84.5671 15.6019 83.7936 16.5938 83.3496 17.0879C82.9056 17.5749 82.5189 17.9544 82.1895 18.2266C81.4733 18.8138 80.8252 19.1074 80.2451 19.1074C79.3571 19.1074 78.7663 18.7243 78.4727 17.958C78.3867 17.7217 78.3438 17.4531 78.3438 17.1523C78.3438 16.8444 78.3939 16.5042 78.4941 16.1318C78.6016 15.7523 78.7376 15.3584 78.9023 14.9502C79.0671 14.542 79.2461 14.123 79.4395 13.6934L80.0195 12.4043C80.7643 10.75 81.04 9.76888 80.8467 9.46094C80.7607 9.32487 80.5996 9.1888 80.3633 9.05273C80.2773 9.0026 80.2344 8.91667 80.2344 8.79492C80.2344 8.66602 80.2845 8.54427 80.3848 8.42969C80.4922 8.3151 80.6283 8.21484 80.793 8.12891C81.1439 7.96419 81.4948 7.88184 81.8457 7.88184C82.1966 7.88184 82.4616 7.92122 82.6406 8C82.8268 8.07161 82.9772 8.16471 83.0918 8.2793C83.3281 8.51562 83.4463 8.77702 83.4463 9.06348C83.4463 9.34993 83.3997 9.6722 83.3066 10.0303C83.2135 10.3812 83.0918 10.7643 82.9414 11.1797C82.791 11.5951 82.6263 12.0247 82.4473 12.4688C81.9531 13.6289 81.6201 14.3952 81.4482 14.7676L81.0508 15.5947C80.8288 16.0889 80.7178 16.4362 80.7178 16.6367C80.7178 16.8372 80.75 16.9805 80.8145 17.0664C80.8789 17.1452 80.9935 17.1846 81.1582 17.1846C81.3301 17.1846 81.527 17.1058 81.749 16.9482C81.971 16.7907 82.2145 16.5794 82.4795 16.3145C82.7445 16.0495 83.0202 15.7451 83.3066 15.4014C83.5931 15.0505 83.8724 14.6888 84.1445 14.3164C84.6816 13.5859 85.0755 12.9987 85.3262 12.5547C86.8444 9.86914 87.6536 8.46549 87.7539 8.34375C87.9831 8.03581 88.2158 7.88184 88.4521 7.88184C88.6956 7.88184 88.9069 7.91048 89.0859 7.96777C89.265 8.0179 89.4189 8.0931 89.5479 8.19336C89.8486 8.41536 89.9453 8.63737 89.8379 8.85938C88.0905 12.5046 87.1488 14.7962 87.0127 15.7344C86.9769 16.0566 86.959 16.2786 86.959 16.4004C86.959 16.9447 87.1237 17.2168 87.4531 17.2168C87.7611 17.2168 88.0153 17.1631 88.2158 17.0557C88.4163 16.9411 88.5524 16.8838 88.624 16.8838ZM90.8262 17.958C90.7188 17.7217 90.665 17.4424 90.665 17.1201C90.665 16.7979 90.7152 16.4434 90.8154 16.0566C90.9157 15.6628 91.0446 15.2617 91.2021 14.8535C91.3597 14.4453 91.5352 14.0299 91.7285 13.6074L92.2764 12.3613C92.9854 10.7214 93.2467 9.75456 93.0605 9.46094C92.9746 9.32487 92.8099 9.1888 92.5664 9.05273C92.4876 9.0026 92.4482 8.91667 92.4482 8.79492C92.4482 8.66602 92.4984 8.54427 92.5986 8.42969C92.7061 8.3151 92.8457 8.21484 93.0176 8.12891C93.3613 7.96419 93.7087 7.88184 94.0596 7.88184C94.4105 7.88184 94.6755 7.92122 94.8545 8C95.0407 8.07161 95.1947 8.16471 95.3164 8.2793C95.5456 8.51562 95.6602 8.80208 95.6602 9.13867C95.6602 9.47526 95.5957 9.85482 95.4668 10.2773C95.3379 10.6999 95.1768 11.1439 94.9834 11.6094C94.79 12.0749 94.5788 12.5511 94.3496 13.0381L93.7158 14.4453C93.2646 15.4837 93.0391 16.1712 93.0391 16.5078C93.0391 17.1667 93.2718 17.4961 93.7373 17.4961C94.9333 17.4961 96.054 16.7871 97.0996 15.3691C97.7083 14.5456 98.1452 13.6504 98.4102 12.6836C98.5319 12.2253 98.5928 11.8099 98.5928 11.4375C98.5928 11.0579 98.5785 10.7428 98.5498 10.4922C98.5283 10.2415 98.4889 10.0195 98.4316 9.82617C98.3385 9.48242 98.181 9.18522 97.959 8.93457C97.8086 8.74837 97.8766 8.52995 98.1631 8.2793C98.4782 8.01432 98.9258 7.88184 99.5059 7.88184C99.8639 7.88184 100.179 8.05013 100.451 8.38672C100.795 8.78776 100.967 9.36426 100.967 10.1162C100.967 10.861 100.856 11.5951 100.634 12.3184C100.412 13.0345 100.107 13.7256 99.7207 14.3916C99.334 15.0505 98.8757 15.6663 98.3457 16.2393C97.8229 16.8122 97.2572 17.3099 96.6484 17.7324C95.3451 18.6491 94.0417 19.1074 92.7383 19.1074C91.8001 19.1074 91.1628 18.7243 90.8262 17.958ZM110.312 16.1426C110.312 16.8014 110.545 17.1309 111.011 17.1309C111.333 17.1309 111.598 17.0807 111.806 16.9805C112.021 16.8802 112.164 16.8301 112.235 16.8301C112.386 16.8301 112.461 16.9089 112.461 17.0664C112.461 17.6823 112.139 18.2122 111.494 18.6562C110.814 19.1217 110.119 19.2363 109.41 19C108.945 18.8353 108.601 18.4808 108.379 17.9365C108.271 17.6572 108.218 17.403 108.218 17.1738C108.218 16.8014 108.254 16.4076 108.325 15.9922C107.659 17.3529 106.832 18.291 105.844 18.8066C105.45 19.0072 105.031 19.1074 104.587 19.1074C104.143 19.1074 103.756 19.0179 103.427 18.8389C103.104 18.6527 102.829 18.3984 102.6 18.0762C102.134 17.403 101.923 16.5579 101.966 15.541C102.009 14.2663 102.385 13.0166 103.094 11.792C103.745 10.6462 104.569 9.71159 105.564 8.98828C106.56 8.25065 107.491 7.88184 108.357 7.88184C109.224 7.88184 109.922 8.2793 110.452 9.07422C110.946 8.2793 111.383 7.88184 111.763 7.88184C112.171 7.88184 112.479 7.95703 112.687 8.10742C113.08 8.39388 113.22 8.64453 113.105 8.85938C111.308 12.5404 110.384 14.832 110.334 15.7344C110.32 15.8633 110.312 15.9993 110.312 16.1426ZM104.351 16.1855C104.351 17.0449 104.626 17.4746 105.178 17.4746C105.6 17.4746 106.119 17.1165 106.735 16.4004C107.638 15.3477 108.436 13.9297 109.131 12.1465C109.353 11.5879 109.539 11.0293 109.689 10.4707C109.661 9.98372 109.457 9.62565 109.077 9.39648C108.948 9.31771 108.755 9.27832 108.497 9.27832C108.246 9.27832 107.949 9.37142 107.605 9.55762C107.269 9.74382 106.939 9.99805 106.617 10.3203C106.302 10.6426 106.005 11.0257 105.726 11.4697C105.453 11.9066 105.214 12.3828 105.006 12.8984C104.569 14.0013 104.351 15.097 104.351 16.1855Z" fill="black"/>
</svg>
