<svg id="a8d110d6-7772-45a4-8a7d-72940e6d9090" data-name="Camada 1" xmlns="http://www.w3.org/2000/svg" viewBox="0 0 410 171"><path d="M286.19,121.25l-20.25-6-18.47,5.36-17.88-5.36-19.05,6-18.49-6-19.66,4.77-17.87-4.77-19.66,4.17L117,115.89l-3.14.47c1.14,1.73,2.25,3.47,3.23,5.28,1.07,2,2.18,4.51,3.14,6.82.49.45,1,.87,1.45,1.24,1.87,1.44.8,19.43,1.26,21.65H290.53l.17-32.22Z" fill="#3b7097" opacity="0.8"/><path d="M285.16,101.06l-20.26-6-18.47,5.36L228.55,95.1l-19,6L191,95.1l-19.67,4.77L153.48,95.1l-19.66,4.17-17.88-3.58-13.68,2.08c2,3.18,3.87,6.39,5.81,9.59,1.3,2.13,2.73,4.21,4.13,6.31l4.94-1.89L135,119.53l19.07-7.15,17.87,6L191,113l19.06,4.17L228,112.38,247,117.14l19.07-5.36,19.66,5.36,3.91-1V98.94Z" fill="#3b7097" opacity="0.69"/><path d="M286.19,81.39l-20.25-6L247.47,80.8l-17.88-5.36-19.05,6-18.49-6L172.39,80.2l-17.87-4.76-19.66,4.17L117,76,97.32,79l-6.55-.87c3.57,4.9,6.27,10.54,8.89,16a8.69,8.69,0,0,1,1.18,1.45c.54.83,1.06,1.67,1.58,2.5l15.75-6,17.88,7.75,19.06-7.15,17.88,6,19.06-5.36,19.07,4.17L229,92.72l19.07,4.76,19.07-5.36,19.66,5.36,3.91-1V79.27Z" fill="#3b7097" opacity="0.52"/><path d="M286,78.26c-3.27,0-4.88-1.25-7.11-3-2.62-2-5.88-4.55-11.71-4.55s-9.1,2.52-11.72,4.55l0,0a11.59,11.59,0,0,1-10.41,2,9.37,9.37,0,0,1-2.59-1.18l-1.16-.88-.06-.05A20,20,0,0,0,232.61,71a15.48,15.48,0,0,0-4.27-.22c-5.1.32-8.09,2.63-10.52,4.52-2.23,1.72-3.85,3-7.11,3s-4.87-1.25-7.1-3c-2.62-2-5.88-4.55-11.71-4.55s-9.1,2.52-11.72,4.55c-2.23,1.72-3.84,3-7.1,3s-4.88-1.25-7.11-3c-2.62-2-5.88-4.55-11.71-4.55h-.06a12.6,12.6,0,0,0-7.69,2.53,20.68,20.68,0,0,1-4,2.41,13.45,13.45,0,0,0-2,1.08,8.63,8.63,0,0,1-5.11,1.51c-.34,0-.66,0-1,0-4.38-1.06-8.55-4.64-11.25-6.18a16.23,16.23,0,0,0-6.6-1.3c-5.83,0-9.09,2.52-11.71,4.55-2.23,1.72-3.84,3-7.1,3s-4.88-1.25-7.11-3L90.28,75l-3.42-1.74c.07.14.13.3.19.45a53.24,53.24,0,0,1,8.36,12,18,18,0,0,0,2.4.16c5.83,0,9.09-2.52,11.71-4.55,2.23-1.73,3.84-3,7.1-3s4.88,1.25,7.11,3c2.62,2,5.88,4.55,11.71,4.55s9.1-2.52,11.72-4.55c2.23-1.73,3.84-3,7.1-3s4.87,1.25,7.1,3c2.62,2,5.88,4.55,11.72,4.55s9.09-2.52,11.71-4.55c2.23-1.73,3.85-3,7.11-3s4.87,1.25,7.1,3c2.62,2,5.88,4.55,11.71,4.55s9.1-2.52,11.72-4.55c2.23-1.73,3.84-3,7.1-3s4.87,1.25,7.11,3c2.62,2,5.88,4.55,11.71,4.55s9.09-2.52,11.71-4.55c2.24-1.73,3.85-3,7.11-3s4.87,1.25,7.1,3c2.62,2,5.88,4.55,11.72,4.55a19.1,19.1,0,0,0,4.71-.5V77.2A7.48,7.48,0,0,1,286,78.26Z" fill="#3b7097"/><path d="M286,97.08c-3.27,0-4.88-1.25-7.11-3-2.62-2-5.88-4.55-11.71-4.55s-9.1,2.53-11.72,4.55c-2.23,1.73-3.84,3-7.1,3s-4.87-1.25-7.1-3c-2.62-2-5.88-4.55-11.72-4.55s-9.09,2.53-11.71,4.55c-2.23,1.73-3.85,3-7.11,3s-4.87-1.25-7.1-3c-2.62-2-5.88-4.55-11.71-4.55s-9.1,2.53-11.72,4.55c-2.23,1.73-3.84,3-7.1,3s-4.88-1.25-7.11-3c-2.62-2-5.88-4.55-11.71-4.55s-9.09,2.53-11.71,4.55c-2.23,1.73-3.85,3-7.11,3s-4.87-1.25-7.1-3c-2.62-2-5.88-4.55-11.72-4.55s-9.09,2.53-11.71,4.55a16.17,16.17,0,0,1-3.58,2.31c1.36,2.13,2.68,4.28,4,6.45a26.51,26.51,0,0,0,4.21-2.8c2.23-1.73,3.84-3,7.1-3s4.88,1.25,7.11,3c2.62,2,5.88,4.55,11.71,4.55s9.1-2.53,11.72-4.55c2.23-1.73,3.84-3,7.1-3s4.87,1.25,7.1,3c2.62,2,5.88,4.55,11.72,4.55s9.09-2.53,11.71-4.55c2.23-1.73,3.85-3,7.11-3s4.87,1.25,7.1,3c2.62,2,5.88,4.55,11.71,4.55s9.1-2.53,11.72-4.55c2.23-1.73,3.84-3,7.1-3s4.87,1.25,7.11,3c2.62,2,5.88,4.55,11.71,4.55s9.09-2.53,11.71-4.55c2.24-1.73,3.85-3,7.11-3s4.87,1.25,7.1,3c2.62,2,5.88,4.55,11.72,4.55a18.64,18.64,0,0,0,4.71-.51V96.21A11.27,11.27,0,0,1,286,97.08Z" fill="#3b7097"/><path d="M286,115.9c-3.27,0-4.88-1.25-7.11-3-2.62-2-5.88-4.55-11.71-4.55s-9.1,2.52-11.72,4.55c-2.23,1.73-3.84,3-7.1,3s-4.87-1.25-7.1-3c-2.62-2-5.88-4.55-11.72-4.55s-9.09,2.52-11.71,4.55c-2.23,1.73-3.85,3-7.11,3s-4.87-1.25-7.1-3c-2.62-2-5.88-4.55-11.71-4.55s-9.1,2.52-11.72,4.55c-2.23,1.73-3.84,3-7.1,3s-4.88-1.25-7.11-3c-2.62-2-5.88-4.55-11.71-4.55s-9.09,2.52-11.71,4.55c-2.23,1.73-3.85,3-7.11,3s-4.87-1.25-7.1-3c-2.62-2-5.88-4.55-11.72-4.55a16.1,16.1,0,0,0-7,1.52c1.35,2.16,2.81,4.27,4.22,6.41a9.09,9.09,0,0,1,2.82-.4c3.27,0,4.88,1.25,7.11,3,2.62,2,5.88,4.56,11.71,4.56s9.1-2.53,11.72-4.56c2.23-1.72,3.84-3,7.1-3s4.87,1.25,7.1,3c2.62,2,5.88,4.56,11.72,4.56s9.09-2.53,11.71-4.56c2.23-1.72,3.85-3,7.11-3s4.87,1.25,7.1,3c2.62,2,5.88,4.56,11.71,4.56s9.1-2.53,11.72-4.56c2.23-1.72,3.84-3,7.1-3s4.87,1.25,7.11,3c2.62,2,5.88,4.56,11.71,4.56s9.09-2.53,11.71-4.56c2.24-1.72,3.85-3,7.11-3s4.87,1.25,7.1,3c2.62,2,5.88,4.56,11.72,4.56a19.1,19.1,0,0,0,4.71-.51V115A11.27,11.27,0,0,1,286,115.9Z" fill="#3b7097"/><polygon points="23.11 73.39 25.32 151.69 194.45 151.69 183.75 131.59 136.8 114.48 126.43 85.86 82.74 67.25 23.11 73.39" fill="#89644c"/><g id="a137c1e9-8361-43e7-b001-15eab340d4af" data-name="outline"><path d="M204.32,147.07l-13.27-17.68a4.91,4.91,0,0,0-2.51-1.76l-46.68-14-9-27.06a5,5,0,0,0-2.84-3L86.16,64.08A4.9,4.9,0,0,0,84,63.56H64.32l-45.18.06L19.19,152a4.91,4.91,0,0,0,4.91,4.92H211.41C210.46,153.58,204.32,147.07,204.32,147.07Zm-177.72,0V73.39H82.81l41.43,18.45,9.1,27.31a4.92,4.92,0,0,0,3.25,3.15l47.57,14.28L192,147.07Z" fill="#724f2b"/></g><g id="eb23103e-b52e-40d9-900f-0fca556713d2" data-name="outline"><path d="M95.06,68.53,90,66A11,11,0,0,0,95.06,68.53Z" fill="#386539"/></g><polygon points="386.02 73.39 383.81 151.69 214.68 151.69 225.38 131.59 272.33 114.48 282.7 85.86 326.39 67.25 386.02 73.39" fill="#89644c"/><g id="a5f918c9-e1b1-429f-a5fe-5e961faeadb0" data-name="outline"><path d="M197.72,156.9H385a4.92,4.92,0,0,0,4.92-4.92L390,63.62l-45.18-.06H325.16a4.9,4.9,0,0,0-2.19.52L279.13,83.56a5,5,0,0,0-2.84,3l-9,27.06-46.68,14a4.93,4.93,0,0,0-2.52,1.76l-13.26,17.68S198.67,153.58,197.72,156.9Zm19.37-9.83L225,136.58l47.58-14.28a4.92,4.92,0,0,0,3.25-3.15l9.1-27.31,41.43-18.45h56.21v73.68Z" fill="#724f2b"/></g><g id="ec8af95c-f0fb-4f88-a164-11b9dfe56281" data-name="outline"><path d="M314.07,68.53l5.1-2.55A11,11,0,0,1,314.07,68.53Z" fill="#386539"/></g><rect x="110.99" y="42.91" width="22.8" height="29.74" rx="9.62" fill="#386539" opacity="0.42"/><path d="M122.39,39.22A13.39,13.39,0,0,0,109,52.6v9.56a13.39,13.39,0,0,0,11.48,13.23V87.62c1.27,0,2.55,0,3.82,0V75.39a13.38,13.38,0,0,0,11.47-13.23V52.6A13.38,13.38,0,0,0,122.39,39.22ZM132,62.16a9.59,9.59,0,0,1-7.65,9.37V67l4.89-3.26a1.91,1.91,0,0,0-2.09-3.2l0,0-2.76,1.84V48.78a1.91,1.91,0,1,0-3.82,0v6l-2.77-1.84a1.91,1.91,0,0,0-2.12,3.18l4.89,3.26V71.53a9.58,9.58,0,0,1-7.65-9.37V52.6a9.56,9.56,0,1,1,19.12,0Z" fill="#386539"/><rect x="283.24" y="37.7" width="22.8" height="29.74" rx="9.62" fill="#386539" opacity="0.42"/><path d="M294.64,34a13.39,13.39,0,0,0-13.39,13.39V57a13.4,13.4,0,0,0,11.48,13.23V82.4h3.82V70.18A13.39,13.39,0,0,0,308,57V47.39A13.38,13.38,0,0,0,294.64,34Zm9.56,23a9.57,9.57,0,0,1-7.65,9.36V61.79l4.89-3.25a1.91,1.91,0,0,0-2.09-3.2l0,0-2.76,1.84V43.56a1.91,1.91,0,0,0-3.82,0v6L290,47.71a1.91,1.91,0,0,0-2.12,3.18l4.89,3.26V66.31A9.56,9.56,0,0,1,285.08,57V47.39a9.56,9.56,0,1,1,19.12,0Z" fill="#386539"/><rect x="21.67" y="41.22" width="38.73" height="24.13" fill="#f2f2f2"/><path d="M44.91,49h7.75v15.5H44.91Z" fill="#4298d1"/><path d="M29.42,49h7.74v15.5H29.42Z" fill="#4298d1"/><path d="M66.62,66.6l28.64-1.25V41.22H60.4l.4,25.38C61.22,66.31,65.14,65.77,66.62,66.6Z" fill="#ebebeb"/><rect x="72.02" y="52.84" width="11.62" height="12.51" fill="#c94536"/><path d="M44.91,56.71h7.75v7.75H44.91Z" fill="#69b9e7"/><path d="M29.42,56.71h7.74v7.75H29.42Z" fill="#69b9e7"/><path d="M95.26,41.22H21.67L41,23.79H77.83Z" fill="#de4c3b"/><path d="M60.4,41.22,77.83,23.79,95.26,41.22Z" fill="#c94536"/><path d="M50.72,16H62.34v7.75H50.72Z" fill="#c94536"/><path d="M54.36,65.35a1.93,1.93,0,0,0,.23-.89V49A1.93,1.93,0,0,0,52.66,47H44.91A1.93,1.93,0,0,0,43,49v15.5a1.93,1.93,0,0,0,.23.89ZM46.85,50.9h3.87v3.87H46.85Zm0,7.75h3.87v3.87H46.85Z"/><path d="M38.87,65.35a1.93,1.93,0,0,0,.23-.89V49A1.93,1.93,0,0,0,37.16,47H29.42A1.93,1.93,0,0,0,27.48,49v15.5a1.93,1.93,0,0,0,.23.89ZM31.35,50.9h3.88v3.87H31.35Zm0,7.75h3.88v3.87H31.35Z"/><path d="M23.17,65.35c.39,0,.58,0,.44-.1V43.15H58.46V66.76a14.47,14.47,0,0,1,3.66-.05c0-.54.22-23.56.22-23.56h31v22.2H97.2V41.22a.42.42,0,0,0,0-.12,1.71,1.71,0,0,0-.1-.51,1.65,1.65,0,0,0-.44-.74h0L79.2,22.42a2,2,0,0,0-1.37-.57H64.27V16a1.93,1.93,0,0,0-1.93-1.94H50.72A1.94,1.94,0,0,0,48.78,16v5.81H41a2,2,0,0,0-1.3.5L20.37,39.78l0,0a1.49,1.49,0,0,0-.12.14,2.36,2.36,0,0,0-.28.42,1.19,1.19,0,0,0-.08.2,1.78,1.78,0,0,0-.1.51.61.61,0,0,0,0,.13L20,65.08ZM90.59,39.28H65.08L77.83,26.53ZM52.66,18H60.4v3.87H52.66ZM41.78,25.72H73.16L59.6,39.28H26.72Z"/><path d="M74,65.35V54.77H81.7V65.35h3.88V52.84a1.94,1.94,0,0,0-1.94-1.94H72a1.94,1.94,0,0,0-1.94,1.94V65.35Z"/><rect x="19.96" y="65.08" width="77.19" height="3.32"/><rect x="315.33" y="41.45" width="38.73" height="24.13" fill="#f2f2f2"/><path d="M338.57,49.19h7.74V64.68h-7.74Z" fill="#4298d1"/><path d="M323.08,49.19h7.74V64.68h-7.74Z" fill="#4298d1"/><path d="M360.28,66.83l28.64-1.25V41.45H354.06l.4,25.38C354.88,66.54,358.8,66,360.28,66.83Z" fill="#ebebeb"/><rect x="365.68" y="53.07" width="11.62" height="12.51" fill="#c94536"/><path d="M338.57,56.94h7.74v7.74h-7.74Z" fill="#69b9e7"/><path d="M323.08,56.94h7.74v7.74h-7.74Z" fill="#69b9e7"/><path d="M388.92,41.45H315.33L334.7,24h36.79Z" fill="#de4c3b"/><path d="M354.06,41.45,371.49,24l17.43,17.43Z" fill="#c94536"/><path d="M344.38,16.27H356V24H344.38Z" fill="#c94536"/><path d="M348,65.58a1.94,1.94,0,0,0,.23-.9V49.19a1.93,1.93,0,0,0-1.94-1.93h-7.74a1.93,1.93,0,0,0-1.94,1.93V64.68a1.94,1.94,0,0,0,.23.9ZM340.5,51.13h3.88V55H340.5Zm0,7.75h3.88v3.87H340.5Z"/><path d="M332.53,65.58a1.94,1.94,0,0,0,.23-.9V49.19a1.93,1.93,0,0,0-1.94-1.93h-7.74a1.93,1.93,0,0,0-1.94,1.93V64.68a1.94,1.94,0,0,0,.23.9ZM325,51.13h3.88V55H325Zm0,7.75h3.88v3.87H325Z"/><path d="M316.83,65.58c.39,0,.58-.06.44-.1V43.38h34.85V67a14.47,14.47,0,0,1,3.66,0c0-.54.22-23.56.22-23.56h31v22.2h3.88V41.45a.42.42,0,0,0,0-.12,1.84,1.84,0,0,0-.1-.52,1.67,1.67,0,0,0-.44-.73h0L372.86,22.65a1.91,1.91,0,0,0-1.37-.57H357.93V16.27A1.93,1.93,0,0,0,356,14.33H344.38a1.94,1.94,0,0,0-1.94,1.94v5.81H334.7a1.94,1.94,0,0,0-1.3.5L314,40l0,0a1.49,1.49,0,0,0-.12.14,2.71,2.71,0,0,0-.28.41,1.8,1.8,0,0,0-.08.21,1.78,1.78,0,0,0-.1.51.61.61,0,0,0,0,.13l.23,23.86Zm67.41-26.07h-25.5l12.75-12.76Zm-37.93-21.3h7.75v3.87h-7.75ZM335.44,26h31.38L353.26,39.51H320.38Z"/><path d="M367.62,65.58V55h7.74V65.58h3.88V53.07a1.94,1.94,0,0,0-1.94-1.94H365.68a1.94,1.94,0,0,0-1.94,1.94V65.58Z"/><rect x="313.62" y="65.31" width="77.19" height="3.32"/></svg> 
