<svg id="b7bfb7a8-158d-41c6-8234-edb7bc53eb7a" data-name="Camada 1" xmlns="http://www.w3.org/2000/svg" viewBox="0 0 410 171"><path d="M285.69,121.25l-20.26-6L247,120.65l-17.87-5.36-19.05,6-18.49-6-19.66,4.77L154,115.29l-19.66,4.17-17.87-3.57-3.14.47c1.14,1.73,2.25,3.47,3.22,5.28,1.08,2,2.18,4.51,3.15,6.82.49.45,1,.87,1.45,1.24,1.87,1.44.8,19.43,1.25,21.65H290l.17-32.22Z" fill="#3b7097" opacity="0.8"/><path d="M284.65,101.06l-20.26-6-18.47,5.36L228.05,95.1l-19.05,6-18.49-6-19.66,4.77L153,95.1l-19.67,4.17-17.87-3.58-13.68,2.08c2,3.18,3.87,6.39,5.81,9.59,1.3,2.13,2.73,4.21,4.13,6.31l4.93-1.89,17.88,7.75,19.06-7.15,17.88,6L190.51,113l19.07,4.17,17.87-4.76,19.07,4.76,19.07-5.36,19.66,5.36,3.91-1V98.94Z" fill="#3b7097" opacity="0.69"/><path d="M285.69,81.39l-20.26-6L247,80.8l-17.87-5.36-19.05,6-18.49-6L171.89,80.2,154,75.44l-19.66,4.17L116.48,76,96.82,79l-6.55-.87c3.56,4.9,6.26,10.54,8.89,16a8.69,8.69,0,0,1,1.18,1.45l1.58,2.5,15.75-6,17.87,7.75,19.07-7.15,17.87,6,19.07-5.36,19.07,4.17,17.87-4.76,19.07,4.76,19.06-5.36,19.67,5.36,3.91-1V79.27Z" fill="#3b7097" opacity="0.52"/><path d="M285.48,78.26c-3.26,0-4.87-1.25-7.1-3-2.62-2-5.88-4.55-11.72-4.55s-9.09,2.52-11.71,4.55l-.06,0a11.58,11.58,0,0,1-10.41,2,9.45,9.45,0,0,1-2.58-1.18l-1.16-.88-.06-.05A20,20,0,0,0,232.1,71a15.45,15.45,0,0,0-4.27-.22c-5.09.32-8.08,2.63-10.51,4.52-2.24,1.72-3.85,3-7.11,3s-4.87-1.25-7.1-3c-2.62-2-5.88-4.55-11.72-4.55s-9.09,2.52-11.71,4.55c-2.23,1.72-3.84,3-7.11,3s-4.87-1.25-7.1-3c-2.62-2-5.88-4.55-11.71-4.55h-.06a12.61,12.61,0,0,0-7.7,2.53,20.09,20.09,0,0,1-4,2.41,13.88,13.88,0,0,0-2,1.08,8.68,8.68,0,0,1-5.11,1.51c-.34,0-.66,0-1,0-4.38-1.06-8.55-4.64-11.25-6.18a16.27,16.27,0,0,0-6.6-1.3c-5.83,0-9.09,2.52-11.71,4.55-2.23,1.72-3.85,3-7.11,3s-4.87-1.25-7.1-3L89.78,75l-3.43-1.74c.07.14.14.3.2.45a53.2,53.2,0,0,1,8.35,12,18.12,18.12,0,0,0,2.4.16c5.84,0,9.1-2.52,11.72-4.55,2.23-1.73,3.84-3,7.1-3s4.87,1.25,7.1,3c2.62,2,5.89,4.55,11.72,4.55s9.09-2.52,11.71-4.55c2.23-1.73,3.85-3,7.11-3s4.87,1.25,7.1,3c2.62,2,5.88,4.55,11.71,4.55s9.1-2.52,11.72-4.55c2.23-1.73,3.84-3,7.1-3s4.88,1.25,7.11,3c2.62,2,5.88,4.55,11.71,4.55s9.09-2.52,11.71-4.55c2.24-1.73,3.85-3,7.11-3s4.87,1.25,7.1,3c2.62,2,5.88,4.55,11.72,4.55s9.09-2.52,11.71-4.55c2.23-1.73,3.84-3,7.1-3s4.88,1.25,7.11,3c2.62,2,5.88,4.55,11.71,4.55a19.18,19.18,0,0,0,4.72-.5V77.2A7.51,7.51,0,0,1,285.48,78.26Z" fill="#3b7097"/><path d="M285.48,97.08c-3.26,0-4.87-1.25-7.1-3-2.62-2-5.88-4.55-11.72-4.55S257.57,92.08,255,94.1c-2.23,1.73-3.84,3-7.1,3s-4.88-1.25-7.11-3c-2.62-2-5.88-4.55-11.71-4.55s-9.1,2.53-11.72,4.55c-2.23,1.73-3.84,3-7.1,3s-4.87-1.25-7.1-3c-2.62-2-5.88-4.55-11.72-4.55s-9.09,2.53-11.71,4.55c-2.23,1.73-3.84,3-7.11,3s-4.87-1.25-7.1-3c-2.62-2-5.88-4.55-11.71-4.55s-9.1,2.53-11.72,4.55c-2.23,1.73-3.84,3-7.1,3s-4.87-1.25-7.1-3c-2.63-2-5.89-4.55-11.72-4.55S107,92.08,104.41,94.1a16.17,16.17,0,0,1-3.58,2.31c1.35,2.13,2.67,4.28,4,6.45a26.51,26.51,0,0,0,4.21-2.8c2.23-1.73,3.84-3,7.1-3s4.87,1.25,7.1,3c2.62,2,5.89,4.55,11.72,4.55s9.09-2.53,11.71-4.55c2.23-1.73,3.85-3,7.11-3s4.87,1.25,7.1,3c2.62,2,5.88,4.55,11.71,4.55s9.1-2.53,11.72-4.55c2.23-1.73,3.84-3,7.1-3s4.88,1.25,7.11,3c2.62,2,5.88,4.55,11.71,4.55s9.09-2.53,11.71-4.55c2.24-1.73,3.85-3,7.11-3s4.87,1.25,7.1,3c2.62,2,5.88,4.55,11.72,4.55s9.09-2.53,11.71-4.55c2.23-1.73,3.84-3,7.1-3s4.88,1.25,7.11,3c2.62,2,5.88,4.55,11.71,4.55a18.72,18.72,0,0,0,4.72-.51V96.21A11.32,11.32,0,0,1,285.48,97.08Z" fill="#3b7097"/><path d="M285.48,115.9c-3.26,0-4.87-1.25-7.1-3-2.62-2-5.88-4.55-11.72-4.55s-9.09,2.52-11.71,4.55c-2.23,1.73-3.84,3-7.1,3s-4.88-1.25-7.11-3c-2.62-2-5.88-4.55-11.71-4.55s-9.1,2.52-11.72,4.55c-2.23,1.73-3.84,3-7.1,3s-4.87-1.25-7.1-3c-2.62-2-5.88-4.55-11.72-4.55s-9.09,2.52-11.71,4.55c-2.23,1.73-3.84,3-7.11,3s-4.87-1.25-7.1-3c-2.62-2-5.88-4.55-11.71-4.55s-9.1,2.52-11.72,4.55c-2.23,1.73-3.84,3-7.1,3s-4.87-1.25-7.1-3c-2.63-2-5.89-4.55-11.72-4.55a16.11,16.11,0,0,0-7.05,1.52c1.35,2.16,2.81,4.27,4.22,6.41a9.2,9.2,0,0,1,2.83-.4c3.26,0,4.87,1.25,7.1,3,2.62,2,5.89,4.56,11.72,4.56s9.09-2.53,11.71-4.56c2.23-1.72,3.85-3,7.11-3s4.87,1.25,7.1,3c2.62,2,5.88,4.56,11.71,4.56s9.1-2.53,11.72-4.56c2.23-1.72,3.84-3,7.1-3s4.88,1.25,7.11,3c2.62,2,5.88,4.56,11.71,4.56s9.09-2.53,11.71-4.56c2.24-1.72,3.85-3,7.11-3s4.87,1.25,7.1,3c2.62,2,5.88,4.56,11.72,4.56s9.09-2.53,11.71-4.56c2.23-1.72,3.84-3,7.1-3s4.88,1.25,7.11,3c2.62,2,5.88,4.56,11.71,4.56a19.18,19.18,0,0,0,4.72-.51V115A11.32,11.32,0,0,1,285.48,115.9Z" fill="#3b7097"/><polygon points="22.61 73.39 24.82 151.69 193.95 151.69 183.24 131.59 136.3 114.48 125.93 85.86 82.24 67.25 22.61 73.39" fill="#89644c"/><g id="e1fa67d4-389e-4ea5-9520-086d28bd2348" data-name="outline"><path d="M203.81,147.07l-13.26-17.68a4.89,4.89,0,0,0-2.52-1.76l-46.68-14-9-27.06a4.9,4.9,0,0,0-2.83-3L85.66,64.08a4.91,4.91,0,0,0-2.2-.52H63.81l-45.17.06L18.69,152a4.91,4.91,0,0,0,4.91,4.92H210.9C210,153.58,203.81,147.07,203.81,147.07Zm-177.72,0V73.39H82.3l41.43,18.45,9.11,27.31a4.9,4.9,0,0,0,3.25,3.15l47.57,14.28,7.87,10.49Z" fill="#724f2b"/></g><g id="b6bc5cc1-0fae-4c1e-9e0b-5d6b1e8e14f2" data-name="outline"><path d="M94.55,68.53,89.45,66A11,11,0,0,0,94.55,68.53Z" fill="#386539"/></g><polygon points="385.52 73.39 383.31 151.69 214.18 151.69 224.88 131.59 271.83 114.48 282.2 85.86 325.88 67.25 385.52 73.39" fill="#89644c"/><g id="e9bf8e7e-9d03-4f55-ad0d-e4ca8288f927" data-name="outline"><path d="M197.22,156.9h187.3a4.91,4.91,0,0,0,4.91-4.92l.05-88.36-45.17-.06H324.66a4.94,4.94,0,0,0-2.2.52L278.62,83.56a4.93,4.93,0,0,0-2.83,3l-9,27.06-46.68,14a4.89,4.89,0,0,0-2.52,1.76l-13.26,17.68S198.17,153.58,197.22,156.9Zm19.37-9.83,7.87-10.49L272,122.3a4.88,4.88,0,0,0,3.24-3.15l9.11-27.31,41.43-18.45H382v73.68Z" fill="#724f2b"/></g><g id="f4692e69-ac6e-449a-b634-64eb99b00b33" data-name="outline"><path d="M313.57,68.53l5.1-2.55A11,11,0,0,1,313.57,68.53Z" fill="#386539"/></g><rect x="110.49" y="42.91" width="22.8" height="29.74" rx="9.62" fill="#386539" opacity="0.42"/><path d="M121.89,39.22A13.38,13.38,0,0,0,108.5,52.6v9.56A13.39,13.39,0,0,0,120,75.39V87.62c1.28,0,2.55,0,3.83,0V75.39a13.39,13.39,0,0,0,11.47-13.23V52.6A13.38,13.38,0,0,0,121.89,39.22Zm9.56,22.94a9.59,9.59,0,0,1-7.65,9.37V67l4.88-3.26a1.91,1.91,0,1,0-2.09-3.2l0,0-2.76,1.84V48.78a1.92,1.92,0,1,0-3.83,0v6l-2.76-1.84a1.91,1.91,0,0,0-2.12,3.18L120,59.36V71.53a9.6,9.6,0,0,1-7.65-9.37V52.6a9.57,9.57,0,0,1,19.13,0Z" fill="#386539"/><rect x="282.74" y="37.7" width="22.8" height="29.74" rx="9.62" fill="#386539" opacity="0.42"/><path d="M294.14,34a13.38,13.38,0,0,0-13.39,13.39V57a13.4,13.4,0,0,0,11.47,13.23V82.4h3.83V70.18A13.4,13.4,0,0,0,307.52,57V47.39A13.38,13.38,0,0,0,294.14,34Zm9.56,23a9.58,9.58,0,0,1-7.65,9.36V61.79l4.88-3.25a1.91,1.91,0,1,0-2.09-3.2l0,0-2.76,1.84V43.56a1.92,1.92,0,0,0-3.83,0v6l-2.76-1.84a1.91,1.91,0,0,0-2.12,3.18l4.88,3.26V66.31A9.58,9.58,0,0,1,284.57,57V47.39a9.57,9.57,0,0,1,19.13,0Z" fill="#386539"/><rect x="21.17" y="41.22" width="38.73" height="24.13" fill="#f2f2f2"/><path d="M44.41,49h7.74v15.5H44.41Z" fill="#4298d1"/><path d="M28.91,49h7.75v15.5H28.91Z" fill="#4298d1"/><path d="M66.12,66.6l28.64-1.25V41.22H59.9l.4,25.38C60.72,66.31,64.64,65.77,66.12,66.6Z" fill="#ebebeb"/><rect x="71.52" y="52.84" width="11.62" height="12.51" fill="#c94536"/><path d="M44.41,56.71h7.74v7.75H44.41Z" fill="#69b9e7"/><path d="M28.91,56.71h7.75v7.75H28.91Z" fill="#69b9e7"/><path d="M94.76,41.22H21.17L40.53,23.79h36.8Z" fill="#de4c3b"/><path d="M59.9,41.22,77.33,23.79,94.76,41.22Z" fill="#c94536"/><path d="M50.22,16H61.83v7.75H50.22Z" fill="#c94536"/><path d="M53.86,65.35a1.93,1.93,0,0,0,.23-.89V49A1.93,1.93,0,0,0,52.15,47H44.41A1.93,1.93,0,0,0,42.47,49v15.5a1.93,1.93,0,0,0,.23.89ZM46.34,50.9h3.88v3.87H46.34Zm0,7.75h3.88v3.87H46.34Z"/><path d="M38.37,65.35a1.93,1.93,0,0,0,.23-.89V49A1.93,1.93,0,0,0,36.66,47H28.91A1.92,1.92,0,0,0,27,49v15.5a1.92,1.92,0,0,0,.22.89ZM30.85,50.9h3.87v3.87H30.85Zm0,7.75h3.87v3.87H30.85Z"/><path d="M22.66,65.35c.4,0,.59,0,.44-.1V43.15H58V66.76a14.46,14.46,0,0,1,3.66-.05c0-.54.21-23.56.21-23.56h31v22.2h3.87V41.22s0-.08,0-.12a2.1,2.1,0,0,0-.1-.51,1.85,1.85,0,0,0-.44-.74h0L78.7,22.42a2,2,0,0,0-1.37-.57H63.77V16a1.94,1.94,0,0,0-1.94-1.94H50.22A1.94,1.94,0,0,0,48.28,16v5.81H40.53a1.91,1.91,0,0,0-1.29.5L19.87,39.78s0,0,0,0-.07.1-.11.14a1.92,1.92,0,0,0-.28.42,1.19,1.19,0,0,0-.08.2,1.79,1.79,0,0,0-.11.51s0,.08,0,.13l.23,23.86ZM90.08,39.28H64.57L77.33,26.53ZM52.15,18H59.9v3.87H52.15ZM41.28,25.72H72.65L59.1,39.28H26.21Z"/><path d="M73.45,65.35V54.77H81.2V65.35h3.87V52.84a1.93,1.93,0,0,0-1.93-1.94H71.52a1.94,1.94,0,0,0-1.94,1.94V65.35Z"/><rect x="19.46" y="65.08" width="77.19" height="3.32"/><rect x="314.83" y="41.45" width="38.73" height="24.13" fill="#f2f2f2"/><path d="M338.06,49.19h7.75V64.68h-7.75Z" fill="#4298d1"/><path d="M322.57,49.19h7.75V64.68h-7.75Z" fill="#4298d1"/><path d="M359.78,66.83l28.64-1.25V41.45H353.56l.4,25.38C354.38,66.54,358.3,66,359.78,66.83Z" fill="#ebebeb"/><rect x="365.18" y="53.07" width="11.62" height="12.51" fill="#c94536"/><path d="M338.06,56.94h7.75v7.74h-7.75Z" fill="#69b9e7"/><path d="M322.57,56.94h7.75v7.74h-7.75Z" fill="#69b9e7"/><path d="M388.42,41.45H314.83L334.19,24H371Z" fill="#de4c3b"/><path d="M353.56,41.45,371,24l17.43,17.43Z" fill="#c94536"/><path d="M343.87,16.27h11.62V24H343.87Z" fill="#c94536"/><path d="M347.52,65.58a1.94,1.94,0,0,0,.23-.9V49.19a1.93,1.93,0,0,0-1.94-1.93h-7.75a1.93,1.93,0,0,0-1.93,1.93V64.68a1.94,1.94,0,0,0,.23.9ZM340,51.13h3.87V55H340Zm0,7.75h3.87v3.87H340Z"/><path d="M332,65.58a1.94,1.94,0,0,0,.23-.9V49.19a1.93,1.93,0,0,0-1.94-1.93h-7.75a1.92,1.92,0,0,0-1.93,1.93V64.68a1.93,1.93,0,0,0,.22.9Zm-7.52-14.45h3.87V55h-3.87Zm0,7.75h3.87v3.87h-3.87Z"/><path d="M316.32,65.58c.4,0,.59-.06.44-.1V43.38h34.86V67a14.46,14.46,0,0,1,3.66,0c0-.54.21-23.56.21-23.56h31v22.2h3.87V41.45c0-.05,0-.08,0-.12a2.28,2.28,0,0,0-.1-.52,1.88,1.88,0,0,0-.44-.73h0L372.36,22.65a1.93,1.93,0,0,0-1.37-.57H357.43V16.27a1.94,1.94,0,0,0-1.94-1.94H343.87a1.94,1.94,0,0,0-1.93,1.94v5.81h-7.75a1.91,1.91,0,0,0-1.29.5L313.53,40l0,0s-.07.1-.11.14a2.13,2.13,0,0,0-.28.41,2.47,2.47,0,0,0-.19.72s0,.08,0,.13l.23,23.86Zm67.42-26.07H358.23L371,26.75Zm-37.93-21.3h7.75v3.87h-7.75ZM334.93,26h31.38L352.76,39.51H319.87Z"/><path d="M367.11,65.58V55h7.75V65.58h3.87V53.07a1.93,1.93,0,0,0-1.93-1.94H365.18a1.94,1.94,0,0,0-1.94,1.94V65.58Z"/><rect x="313.12" y="65.31" width="77.19" height="3.32"/><polygon points="312.65 68.29 279.43 82.82 266.97 76.59 248.28 80.75 229.59 76.59 210.9 80.75 192.21 76.59 173.53 80.75 152.76 76.59 136.15 80.75 119.53 78.67 94.62 68.29 21.94 66.21 24.02 59.98 36.48 57.9 55.16 64.13 73.85 57.9 94.62 59.98 152.76 57.9 169.37 64.13 188.06 57.9 206.75 62.06 227.51 57.9 244.13 62.06 262.81 57.9 323.03 59.98 341.72 55.83 356.26 62.06 379.1 57.9 391.56 64.13 391.56 68.29 316.81 68.29 312.65 68.29" fill="#3b7097" opacity="0.24"/><path d="M283,59.2c-3.26,0-4.88-1.25-7.11-3-2.62-2-5.88-4.56-11.71-4.56s-9.09,2.53-11.71,4.56l-.06,0a11.58,11.58,0,0,1-10.41,2,9.51,9.51,0,0,1-2.59-1.18l-1.15-.88-.06-.06a20.19,20.19,0,0,0-8.58-4.24,15.48,15.48,0,0,0-4.27-.22c-5.09.32-8.09,2.63-10.52,4.52-2.23,1.72-3.84,3-7.1,3s-4.88-1.25-7.11-3c-2.62-2-5.88-4.56-11.71-4.56s-9.1,2.53-11.72,4.56c-2.23,1.72-3.84,3-7.1,3s-4.87-1.25-7.1-3c-2.62-2-5.88-4.56-11.72-4.56h-.06a12.6,12.6,0,0,0-7.69,2.53,20.68,20.68,0,0,1-4,2.41,12.85,12.85,0,0,0-2,1.08,8.69,8.69,0,0,1-5.12,1.51c-.34,0-.66,0-1,0C127.12,58.1,123,54.52,120.25,53a16.4,16.4,0,0,0-6.59-1.31c-5.84,0-9.1,2.53-11.72,4.56-2.23,1.72-3.84,3-7.1,3S90,58,87.73,56.23l-.42-.33-3.42-1.74c.07.14.13.3.2.45a53.53,53.53,0,0,1,8.35,12,18,18,0,0,0,2.4.16c5.83,0,9.09-2.52,11.71-4.55,2.23-1.73,3.85-3,7.11-3s4.87,1.25,7.1,3c2.62,2,5.88,4.55,11.71,4.55s9.1-2.52,11.72-4.55c2.23-1.73,3.84-3,7.1-3s4.88,1.25,7.11,3c2.62,2,5.88,4.55,11.71,4.55s9.09-2.52,11.71-4.55c2.24-1.73,3.85-3,7.11-3s4.87,1.25,7.1,3c2.62,2,5.88,4.55,11.72,4.55s9.09-2.52,11.71-4.55c2.23-1.73,3.84-3,7.1-3s4.88,1.25,7.11,3c2.62,2,5.88,4.55,11.71,4.55s9.1-2.52,11.72-4.55c2.23-1.73,3.84-3,7.1-3s4.87,1.25,7.1,3c2.62,2,5.88,4.55,11.72,4.55a18.64,18.64,0,0,0,4.71-.51V58.14A7.54,7.54,0,0,1,283,59.2Z" fill="#3b7097"/><path d="M131.43,59.2c-3.26,0-4.87-1.25-7.1-3-2.62-2-5.88-4.56-11.72-4.56s-9.09,2.53-11.71,4.56l-.06,0a11.58,11.58,0,0,1-10.41,2,9.45,9.45,0,0,1-2.58-1.18l-1.16-.88-.06-.06a20.13,20.13,0,0,0-8.58-4.24,15.45,15.45,0,0,0-4.27-.22c-5.09.32-8.08,2.63-10.51,4.52-2.24,1.72-3.85,3-7.11,3s-4.87-1.25-7.1-3c-2.62-2-5.88-4.56-11.72-4.56s-9.09,2.53-11.71,4.56c-2.22,1.71-3.83,3-7,3-.05,2.51-.24,5-.1,7.53h0c5.84,0,9.1-2.52,11.72-4.55,2.23-1.73,3.84-3,7.1-3s4.88,1.25,7.11,3c2.62,2,5.88,4.55,11.71,4.55s9.09-2.52,11.71-4.55c2.24-1.73,3.85-3,7.11-3s4.87,1.25,7.1,3c2.62,2,5.88,4.55,11.72,4.55s9.09-2.52,11.71-4.55c2.23-1.73,3.84-3,7.1-3s4.88,1.25,7.11,3c2.62,2,5.88,4.55,11.71,4.55a18.72,18.72,0,0,0,4.72-.51V58.14A7.57,7.57,0,0,1,131.43,59.2Z" fill="#3b7097"/><path d="M390.51,57.92a9.75,9.75,0,0,1-1.57-.81l-1.15-.88-.07-.06a20.1,20.1,0,0,0-8.57-4.24,15.48,15.48,0,0,0-4.27-.22c-5.1.32-8.09,2.63-10.52,4.52-2.23,1.72-3.84,3-7.1,3s-4.88-1.25-7.11-3c-2.62-2-5.88-4.56-11.71-4.56s-9.1,2.53-11.72,4.56c-2.23,1.72-3.84,3-7.1,3s-4.87-1.25-7.1-3c-2.62-2-5.89-4.56-11.72-4.56h-.06a12.6,12.6,0,0,0-7.69,2.53,20.68,20.68,0,0,1-4,2.41,13.45,13.45,0,0,0-2,1.08A8.63,8.63,0,0,1,282,59.2c-.34,0-.66,0-1,0-4.38-1.06-8.55-4.64-11.25-6.18a16.4,16.4,0,0,0-6.59-1.31c-5.84,0-9.1,2.53-11.72,4.56-2.23,1.72-3.84,3-7.1,3s-4.88-1.25-7.11-3l-.42-.33-3.42-1.74c.07.14.13.3.19.45a53.24,53.24,0,0,1,8.36,12,18,18,0,0,0,2.4.16c5.83,0,9.09-2.52,11.71-4.55,2.23-1.73,3.84-3,7.11-3s4.87,1.25,7.1,3c2.62,2,5.88,4.55,11.71,4.55s9.1-2.52,11.72-4.55c2.23-1.73,3.84-3,7.1-3s4.87,1.25,7.11,3c2.62,2,5.88,4.55,11.71,4.55s9.09-2.52,11.71-4.55c2.24-1.73,3.85-3,7.11-3s4.87,1.25,7.1,3c2.62,2,5.88,4.55,11.72,4.55s9.09-2.52,11.71-4.55c2.23-1.73,3.84-3,7.1-3s4.88,1.25,7.11,3a19.73,19.73,0,0,0,7.33,4Z" fill="#3b7097"/></svg> 
