<svg id="ea3f5b64-2529-4027-8897-e5ca7578354f" data-name="Camada 1" xmlns="http://www.w3.org/2000/svg" viewBox="0 0 410 173"><path d="M286.19,122.25l-20.25-6-18.47,5.36-17.88-5.36-19.05,6-18.49-6-19.66,4.77-17.87-4.77-19.66,4.17L117,116.89l-3.14.47c1.14,1.73,2.25,3.47,3.23,5.28,1.07,2,2.18,4.51,3.14,6.82.49.45,1,.87,1.45,1.24,1.87,1.44.8,19.43,1.26,21.65H290.53l.17-32.22Z" fill="#3b7097" opacity="0.87"/><path d="M286,116.9c-3.27,0-4.88-1.25-7.11-3-2.62-2-5.88-4.55-11.71-4.55s-9.1,2.52-11.72,4.55c-2.23,1.73-3.84,3-7.1,3s-4.87-1.25-7.1-3c-2.62-2-5.88-4.55-11.72-4.55s-9.09,2.52-11.71,4.55c-2.23,1.73-3.85,3-7.11,3s-4.87-1.25-7.1-3c-2.62-2-5.88-4.55-11.71-4.55s-9.1,2.52-11.72,4.55c-2.23,1.73-3.84,3-7.1,3s-4.88-1.25-7.11-3c-2.62-2-5.88-4.55-11.71-4.55s-9.09,2.52-11.71,4.55c-2.23,1.73-3.85,3-7.11,3s-4.87-1.25-7.1-3c-2.62-2-5.88-4.55-11.72-4.55a16.1,16.1,0,0,0-7,1.52c1.35,2.16,2.81,4.27,4.22,6.41a9.09,9.09,0,0,1,2.82-.4c3.27,0,4.88,1.25,7.11,3,2.62,2,5.88,4.56,11.71,4.56s9.1-2.53,11.72-4.56c2.23-1.72,3.84-3,7.1-3s4.87,1.25,7.1,3c2.62,2,5.88,4.56,11.72,4.56s9.09-2.53,11.71-4.56c2.23-1.72,3.85-3,7.11-3s4.87,1.25,7.1,3c2.62,2,5.88,4.56,11.71,4.56s9.1-2.53,11.72-4.56c2.23-1.72,3.84-3,7.1-3s4.87,1.25,7.11,3c2.62,2,5.88,4.56,11.71,4.56s9.09-2.53,11.71-4.56c2.24-1.72,3.85-3,7.11-3s4.87,1.25,7.1,3c2.62,2,5.88,4.56,11.72,4.56a19.1,19.1,0,0,0,4.71-.51V116A11.27,11.27,0,0,1,286,116.9Z" fill="#3b7097"/><polygon points="23.11 74.39 25.32 152.69 194.45 152.69 183.75 132.59 136.8 115.48 126.43 86.86 82.74 68.25 23.11 74.39" fill="#89644c"/><g id="ac08428f-0d94-4a86-a715-333b65a1b5ec" data-name="outline"><path d="M204.32,148.07l-13.27-17.68a4.91,4.91,0,0,0-2.51-1.76l-46.68-14-9-27.06a5,5,0,0,0-2.84-3L86.16,65.08A4.9,4.9,0,0,0,84,64.56H64.32l-45.18.06L19.19,153a4.91,4.91,0,0,0,4.91,4.92H211.41C210.46,154.58,204.32,148.07,204.32,148.07Zm-177.72,0V74.39H82.81l41.43,18.45,9.1,27.31a4.92,4.92,0,0,0,3.25,3.15l47.57,14.28L192,148.07Z" fill="#724f2b"/></g><g id="eda1b804-ce58-42e4-af54-9b80e74ec0e1" data-name="outline"><path d="M95.06,69.53,90,67A11,11,0,0,0,95.06,69.53Z" fill="#386539"/></g><polygon points="386.02 74.39 383.81 152.69 214.68 152.69 225.38 132.59 272.33 115.48 282.7 86.86 326.39 68.25 386.02 74.39" fill="#89644c"/><g id="e5a59e58-ea7c-4ee1-90d1-28100a3faa79" data-name="outline"><path d="M197.72,157.9H385a4.92,4.92,0,0,0,4.92-4.92L390,64.62l-45.18-.06H325.16a4.9,4.9,0,0,0-2.19.52L279.13,84.56a5,5,0,0,0-2.84,3l-9,27.06-46.68,14a4.93,4.93,0,0,0-2.52,1.76l-13.26,17.68S198.67,154.58,197.72,157.9Zm19.37-9.83L225,137.58l47.58-14.28a4.92,4.92,0,0,0,3.25-3.15l9.1-27.31,41.43-18.45h56.21v73.68Z" fill="#724f2b"/></g><g id="b6749239-d2ef-496c-9236-cc406fa2254c" data-name="outline"><path d="M314.07,69.53l5.1-2.55A11,11,0,0,1,314.07,69.53Z" fill="#386539"/></g><rect x="110.99" y="43.91" width="22.8" height="29.74" rx="9.62" fill="#386539" opacity="0.42"/><path d="M122.39,40.22A13.39,13.39,0,0,0,109,53.6v9.56a13.39,13.39,0,0,0,11.48,13.23V88.62c1.27,0,2.55,0,3.82,0V76.39a13.38,13.38,0,0,0,11.47-13.23V53.6A13.38,13.38,0,0,0,122.39,40.22ZM132,63.16a9.59,9.59,0,0,1-7.65,9.37V68l4.89-3.26a1.91,1.91,0,0,0-2.09-3.2l0,0-2.76,1.84V49.78a1.91,1.91,0,1,0-3.82,0v6l-2.77-1.84a1.91,1.91,0,0,0-2.12,3.18l4.89,3.26V72.53a9.58,9.58,0,0,1-7.65-9.37V53.6a9.56,9.56,0,1,1,19.12,0Z" fill="#386539"/><rect x="283.24" y="38.7" width="22.8" height="29.74" rx="9.62" fill="#386539" opacity="0.42"/><path d="M294.64,35a13.39,13.39,0,0,0-13.39,13.39V58a13.4,13.4,0,0,0,11.48,13.23V83.4h3.82V71.18A13.39,13.39,0,0,0,308,58V48.39A13.38,13.38,0,0,0,294.64,35Zm9.56,23a9.57,9.57,0,0,1-7.65,9.36V62.79l4.89-3.25a1.91,1.91,0,0,0-2.09-3.2l0,0-2.76,1.84V44.56a1.91,1.91,0,0,0-3.82,0v6L290,48.71a1.91,1.91,0,0,0-2.12,3.18l4.89,3.26V67.31A9.56,9.56,0,0,1,285.08,58V48.39a9.56,9.56,0,1,1,19.12,0Z" fill="#386539"/><rect x="21.67" y="42.22" width="38.73" height="24.13" fill="#f2f2f2"/><path d="M44.91,50h7.75v15.5H44.91Z" fill="#4298d1"/><path d="M29.42,50h7.74v15.5H29.42Z" fill="#4298d1"/><path d="M66.62,67.6l28.64-1.25V42.22H60.4l.4,25.38C61.22,67.31,65.14,66.77,66.62,67.6Z" fill="#ebebeb"/><rect x="72.02" y="53.84" width="11.62" height="12.51" fill="#c94536"/><path d="M44.91,57.71h7.75v7.75H44.91Z" fill="#69b9e7"/><path d="M29.42,57.71h7.74v7.75H29.42Z" fill="#69b9e7"/><path d="M95.26,42.22H21.67L41,24.79H77.83Z" fill="#de4c3b"/><path d="M60.4,42.22,77.83,24.79,95.26,42.22Z" fill="#c94536"/><path d="M50.72,17H62.34v7.75H50.72Z" fill="#c94536"/><path d="M54.36,66.35a1.93,1.93,0,0,0,.23-.89V50A1.93,1.93,0,0,0,52.66,48H44.91A1.93,1.93,0,0,0,43,50v15.5a1.93,1.93,0,0,0,.23.89ZM46.85,51.9h3.87v3.87H46.85Zm0,7.75h3.87v3.87H46.85Z"/><path d="M38.87,66.35a1.93,1.93,0,0,0,.23-.89V50A1.93,1.93,0,0,0,37.16,48H29.42A1.93,1.93,0,0,0,27.48,50v15.5a1.93,1.93,0,0,0,.23.89ZM31.35,51.9h3.88v3.87H31.35Zm0,7.75h3.88v3.87H31.35Z"/><path d="M23.17,66.35c.39,0,.58,0,.44-.1V44.15H58.46V67.76a14.47,14.47,0,0,1,3.66-.05c0-.54.22-23.56.22-23.56h31v22.2H97.2V42.22a.42.42,0,0,0,0-.12,1.71,1.71,0,0,0-.1-.51,1.65,1.65,0,0,0-.44-.74h0L79.2,23.42a2,2,0,0,0-1.37-.57H64.27V17a1.93,1.93,0,0,0-1.93-1.94H50.72A1.94,1.94,0,0,0,48.78,17v5.81H41a2,2,0,0,0-1.3.5L20.37,40.78l0,0a1.49,1.49,0,0,0-.12.14,2.36,2.36,0,0,0-.28.42,1.19,1.19,0,0,0-.08.2,1.78,1.78,0,0,0-.1.51.61.61,0,0,0,0,.13L20,66.08ZM90.59,40.28H65.08L77.83,27.53ZM52.66,19H60.4v3.87H52.66ZM41.78,26.72H73.16L59.6,40.28H26.72Z"/><path d="M74,66.35V55.77H81.7V66.35h3.88V53.84a1.94,1.94,0,0,0-1.94-1.94H72a1.94,1.94,0,0,0-1.94,1.94V66.35Z"/><rect x="19.96" y="66.08" width="77.19" height="3.32"/><rect x="315.33" y="42.45" width="38.73" height="24.13" fill="#f2f2f2"/><path d="M338.57,50.19h7.74V65.68h-7.74Z" fill="#4298d1"/><path d="M323.08,50.19h7.74V65.68h-7.74Z" fill="#4298d1"/><path d="M360.28,67.83l28.64-1.25V42.45H354.06l.4,25.38C354.88,67.54,358.8,67,360.28,67.83Z" fill="#ebebeb"/><rect x="365.68" y="54.07" width="11.62" height="12.51" fill="#c94536"/><path d="M338.57,57.94h7.74v7.74h-7.74Z" fill="#69b9e7"/><path d="M323.08,57.94h7.74v7.74h-7.74Z" fill="#69b9e7"/><path d="M388.92,42.45H315.33L334.7,25h36.79Z" fill="#de4c3b"/><path d="M354.06,42.45,371.49,25l17.43,17.43Z" fill="#c94536"/><path d="M344.38,17.27H356V25H344.38Z" fill="#c94536"/><path d="M348,66.58a1.94,1.94,0,0,0,.23-.9V50.19a1.93,1.93,0,0,0-1.94-1.93h-7.74a1.93,1.93,0,0,0-1.94,1.93V65.68a1.94,1.94,0,0,0,.23.9ZM340.5,52.13h3.88V56H340.5Zm0,7.75h3.88v3.87H340.5Z"/><path d="M332.53,66.58a1.94,1.94,0,0,0,.23-.9V50.19a1.93,1.93,0,0,0-1.94-1.93h-7.74a1.93,1.93,0,0,0-1.94,1.93V65.68a1.94,1.94,0,0,0,.23.9ZM325,52.13h3.88V56H325Zm0,7.75h3.88v3.87H325Z"/><path d="M316.83,66.58c.39,0,.58-.06.44-.1V44.38h34.85V68a14.47,14.47,0,0,1,3.66,0c0-.54.22-23.56.22-23.56h31v22.2h3.88V42.45a.42.42,0,0,0,0-.12,1.84,1.84,0,0,0-.1-.52,1.67,1.67,0,0,0-.44-.73h0L372.86,23.65a1.91,1.91,0,0,0-1.37-.57H357.93V17.27A1.93,1.93,0,0,0,356,15.33H344.38a1.94,1.94,0,0,0-1.94,1.94v5.81H334.7a1.94,1.94,0,0,0-1.3.5L314,41l0,0a1.49,1.49,0,0,0-.12.14,2.71,2.71,0,0,0-.28.41,1.8,1.8,0,0,0-.08.21,1.78,1.78,0,0,0-.1.51.61.61,0,0,0,0,.13l.23,23.86Zm67.41-26.07h-25.5l12.75-12.76Zm-37.93-21.3h7.75v3.87h-7.75ZM335.44,27h31.38L353.26,40.51H320.38Z"/><path d="M367.62,66.58V56h7.74V66.58h3.88V54.07a1.94,1.94,0,0,0-1.94-1.94H365.68a1.94,1.94,0,0,0-1.94,1.94V66.58Z"/><rect x="313.62" y="66.31" width="77.19" height="3.32"/></svg> 

