<svg id="b07f96c3-e349-48fb-b8c4-e05a0191cc97" data-name="Camada 1" xmlns="http://www.w3.org/2000/svg" viewBox="0 0 410 410"><circle cx="202.5" cy="159.5" r="120.5" fill="#fff"/><path d="M205,14.64c-79.95,0-145,65.05-145,145a143.68,143.68,0,0,0,28.93,86.93L196.06,390.86c.27.35.68.48,1,.8a10.79,10.79,0,0,0,16.89-.8c30.85-41.16,87.4-118,109.14-147a.14.14,0,0,1,0,0l.13-.18a144,144,0,0,0,26.78-84C350,79.69,285,14.64,205,14.64Zm-.26,258.84c-62.79,0-114.1-51.32-114.1-114.1S142,45.28,204.74,45.28s114.09,51.31,114.09,114.1S267.52,273.48,204.74,273.48Z" fill="#3b7097"/><path d="M244.79,178.53l-9.93-2.92-9.05,2.63-8.76-2.63-9.33,2.92-9.06-2.92L189,178l-8.76-2.34-9.63,2-8.76-1.75-1.54.24c.56.84,1.1,1.7,1.58,2.58s1.07,2.21,1.54,3.34a9.3,9.3,0,0,0,.71.61c.92.71.39,9.53.61,10.61h82.15l.08-15.79Z" fill="#3b7097" opacity="0.87"/><path d="M244.69,175.91a5,5,0,0,1-3.48-1.46,8.52,8.52,0,0,0-11.49,0,4.88,4.88,0,0,1-7,0,8.5,8.5,0,0,0-11.48,0,4.88,4.88,0,0,1-7,0,8.5,8.5,0,0,0-11.48,0,4.88,4.88,0,0,1-7,0,8.52,8.52,0,0,0-11.49,0,4.88,4.88,0,0,1-7,0,8.59,8.59,0,0,0-5.74-2.23,7.73,7.73,0,0,0-3.45.75c.66,1.05,1.37,2.09,2.07,3.13a4.65,4.65,0,0,1,1.38-.19,5,5,0,0,1,3.48,1.46,8.5,8.5,0,0,0,11.48,0,4.89,4.89,0,0,1,7,0,8.5,8.5,0,0,0,11.48,0,4.88,4.88,0,0,1,7,0,8.5,8.5,0,0,0,11.48,0,4.88,4.88,0,0,1,7,0,8.5,8.5,0,0,0,11.48,0,4.89,4.89,0,0,1,7,0,8.59,8.59,0,0,0,5.74,2.23,9.46,9.46,0,0,0,2.31-.25v-3.87A5.45,5.45,0,0,1,244.69,175.91Z" fill="#3b7097"/><polygon points="115.86 155.08 116.95 193.45 199.83 193.45 194.59 183.6 171.58 175.21 166.5 161.19 145.09 152.07 115.86 155.08" fill="#89644c"/><g id="a69a8e90-1a34-47ee-a84e-a8a6616996b8" data-name="outline"><path d="M204.67,191.19l-6.5-8.67a2.42,2.42,0,0,0-1.24-.86l-22.87-6.86-4.42-13.26a2.48,2.48,0,0,0-1.39-1.48l-21.49-9.54a2.35,2.35,0,0,0-1.07-.26h-9.63l-22.14,0,0,43.3a2.41,2.41,0,0,0,2.41,2.41h91.79C207.67,194.37,204.67,191.19,204.67,191.19Zm-87.1,0V155.08h27.55l20.3,9,4.46,13.38a2.43,2.43,0,0,0,1.6,1.55l23.31,7,3.86,5.15Z" fill="#724f2b"/></g><g id="bda753fa-563b-4c34-92cc-3c97f649e0aa" data-name="outline"><path d="M151.12,152.7l-2.5-1.25A5.46,5.46,0,0,0,151.12,152.7Z" fill="#386539"/></g><polygon points="293.71 155.08 292.63 193.45 209.74 193.45 214.99 183.6 238 175.21 243.08 161.19 264.49 152.07 293.71 155.08" fill="#89644c"/><g id="fdb32b28-387a-440f-811c-c105ac5ebc1f" data-name="outline"><path d="M201.43,196h91.79a2.41,2.41,0,0,0,2.41-2.41l0-43.3-22.14,0h-9.62a2.36,2.36,0,0,0-1.08.26l-21.48,9.54a2.42,2.42,0,0,0-1.39,1.48l-4.42,13.26-22.88,6.86a2.43,2.43,0,0,0-1.23.86l-6.5,8.67S201.9,194.37,201.43,196Zm9.5-4.81,3.85-5.15,23.32-7a2.41,2.41,0,0,0,1.59-1.55l4.46-13.38,20.3-9H292v36.11Z" fill="#724f2b"/></g><g id="a9979c63-64b1-474b-bde0-4993d7ae88d3" data-name="outline"><path d="M258.45,152.7l2.5-1.25A5.41,5.41,0,0,1,258.45,152.7Z" fill="#386539"/></g><rect x="158.93" y="140.14" width="11.17" height="14.57" rx="4.71" fill="#386539" opacity="0.42"/><path d="M164.52,138.33a6.56,6.56,0,0,0-6.56,6.56v4.69a6.56,6.56,0,0,0,5.62,6.48v6c.62,0,1.25,0,1.87,0v-6a6.57,6.57,0,0,0,5.63-6.48v-4.69A6.56,6.56,0,0,0,164.52,138.33Zm4.68,11.25a4.7,4.7,0,0,1-3.75,4.59V152l2.4-1.6a.93.93,0,1,0-1-1.56h0l-1.36.9V143a.94.94,0,1,0-1.87,0V146l-1.36-.9a.93.93,0,0,0-1,1.56l2.39,1.59v6a4.7,4.7,0,0,1-3.75-4.59v-4.69a4.69,4.69,0,1,1,9.37,0Z" fill="#386539"/><rect x="243.34" y="137.59" width="11.17" height="14.57" rx="4.71" fill="#386539" opacity="0.42"/><path d="M248.93,135.78a6.55,6.55,0,0,0-6.56,6.55V147A6.55,6.55,0,0,0,248,153.5v6h1.87v-6a6.56,6.56,0,0,0,5.63-6.48v-4.69A6.56,6.56,0,0,0,248.93,135.78ZM253.61,147a4.69,4.69,0,0,1-3.75,4.59V149.4l2.4-1.6a.94.94,0,0,0-1-1.57h0l-1.36.9v-6.68a.94.94,0,1,0-1.87,0v2.94l-1.35-.91a.94.94,0,0,0-1.3.27.93.93,0,0,0,.26,1.29l2.39,1.6v6a4.7,4.7,0,0,1-3.75-4.59v-4.69a4.69,4.69,0,0,1,9.37,0Z" fill="#386539"/><rect x="115.16" y="139.31" width="18.98" height="11.83" fill="#f2f2f2"/><path d="M126.55,143.11h3.79v7.59h-3.79Z" fill="#4298d1"/><path d="M119,143.11h3.8v7.59H119Z" fill="#4298d1"/><path d="M137.19,151.75l14-.61V139.31H134.14l.19,12.44A5,5,0,0,1,137.19,151.75Z" fill="#ebebeb"/><rect x="139.83" y="145.01" width="5.69" height="6.13" fill="#c94536"/><path d="M126.55,146.9h3.79v3.8h-3.79Z" fill="#69b9e7"/><path d="M119,146.9h3.8v3.8H119Z" fill="#69b9e7"/><path d="M151.22,139.31H115.16l9.49-8.54h18Z" fill="#de4c3b"/><path d="M134.14,139.31l8.54-8.54,8.54,8.54Z" fill="#c94536"/><path d="M129.39,127h5.7v3.8h-5.7Z" fill="#c94536"/><path d="M131.18,151.14a.93.93,0,0,0,.11-.44v-7.59a.94.94,0,0,0-.95-1h-3.79a.94.94,0,0,0-1,1v7.59a.93.93,0,0,0,.11.44Zm-3.68-7.08h1.89V146H127.5Zm0,3.79h1.89v1.9H127.5Z"/><path d="M123.59,151.14a.93.93,0,0,0,.11-.44v-7.59a1,1,0,0,0-1-1H119a.94.94,0,0,0-.94,1v7.59a.93.93,0,0,0,.11.44Zm-3.69-7.08h1.9V146h-1.9Zm0,3.79h1.9v1.9h-1.9Z"/><path d="M115.89,151.14c.19,0,.29,0,.22,0V140.26h17.08v11.57a6.71,6.71,0,0,1,1.79,0c0-.27.11-11.55.11-11.55h15.18v10.88h1.9V139.31s0,0,0-.06a1.11,1.11,0,0,0,0-.25.9.9,0,0,0-.22-.36h0l-8.54-8.54a1,1,0,0,0-.67-.28H136V127a1,1,0,0,0-.95-1h-5.7a1,1,0,0,0-.94,1v2.85h-3.8a1,1,0,0,0-.64.24l-9.49,8.55v0a.2.2,0,0,0-.06.07,1.43,1.43,0,0,0-.14.2,1,1,0,0,0,0,.1,1,1,0,0,0,0,.25s0,0,0,.06l.11,11.7Zm33-12.78h-12.5l6.25-6.25Zm-18.59-10.44h3.8v1.9h-3.8Zm-5.33,3.8h15.38l-6.64,6.64H117.63Z"/><path d="M140.78,151.14V146h3.8v5.19h1.9V145a1,1,0,0,0-.95-.95h-5.7a1,1,0,0,0-1,.95v6.13Z"/><rect x="114.32" y="151.01" width="37.83" height="1.63"/><rect x="259.07" y="139.42" width="18.98" height="11.83" fill="#f2f2f2"/><path d="M270.46,143.22h3.79v7.59h-3.79Z" fill="#4298d1"/><path d="M262.86,143.22h3.8v7.59h-3.8Z" fill="#4298d1"/><path d="M281.1,151.86l14-.61V139.42H278.05l.19,12.44A5,5,0,0,1,281.1,151.86Z" fill="#ebebeb"/><rect x="283.74" y="145.12" width="5.69" height="6.13" fill="#c94536"/><path d="M270.46,147h3.79v3.79h-3.79Z" fill="#69b9e7"/><path d="M262.86,147h3.8v3.79h-3.8Z" fill="#69b9e7"/><path d="M295.13,139.42H259.07l9.49-8.54h18Z" fill="#de4c3b"/><path d="M278.05,139.42l8.54-8.54,8.54,8.54Z" fill="#c94536"/><path d="M273.3,127.09H279v3.79h-5.7Z" fill="#c94536"/><path d="M275.09,151.25a.93.93,0,0,0,.11-.44v-7.59a1,1,0,0,0-.95-.95h-3.79a1,1,0,0,0-.95.95v7.59a.93.93,0,0,0,.11.44Zm-3.69-7.08h1.9v1.9h-1.9Zm0,3.79h1.9v1.9h-1.9Z"/><path d="M267.5,151.25a.93.93,0,0,0,.11-.44v-7.59a1,1,0,0,0-.95-.95h-3.8a1,1,0,0,0-.95.95v7.59a.93.93,0,0,0,.12.44Zm-3.69-7.08h1.9v1.9h-1.9Zm0,3.79h1.9v1.9h-1.9Z"/><path d="M259.8,151.25c.19,0,.29,0,.22-.05V140.37H277.1v11.57a7.15,7.15,0,0,1,1.79,0c0-.27.11-11.55.11-11.55h15.18v10.88h1.9V139.42s0,0,0-.06a1.11,1.11,0,0,0-.05-.25.9.9,0,0,0-.22-.36h0l-8.54-8.54a1,1,0,0,0-.67-.28H280v-2.84a1,1,0,0,0-.95-1h-5.7a1,1,0,0,0-.95,1v2.84h-3.79a1,1,0,0,0-.64.25l-9.49,8.54s0,0,0,0l-.05.07a.9.9,0,0,0-.14.2l0,.1a1.11,1.11,0,0,0-.05.25s0,0,0,.06l.11,11.7Zm33-12.78h-12.5l6.25-6.25ZM274.25,128h3.8v1.9h-3.8Zm-5.33,3.8H284.3l-6.65,6.64H261.54Z"/><path d="M284.69,151.25v-5.18h3.8v5.18h1.9v-6.13a1,1,0,0,0-.95-1h-5.7a1,1,0,0,0-.95,1v6.13Z"/><rect x="258.23" y="151.12" width="37.83" height="1.63"/></svg>