<svg id="a4752417-fea0-42ac-93f8-2871bd16eff1" data-name="Camada 1" xmlns="http://www.w3.org/2000/svg" viewBox="0 0 410 410"><circle cx="205.5" cy="159.5" r="120.5" fill="#fff"/><path d="M205,14.64c-79.95,0-145,65.05-145,145a143.68,143.68,0,0,0,28.93,86.93L196.06,390.86c.27.35.68.48,1,.8a10.79,10.79,0,0,0,16.89-.8c30.85-41.16,87.4-118,109.14-147a.14.14,0,0,1,0,0l.13-.18a144,144,0,0,0,26.78-84C350,79.69,285,14.64,205,14.64Zm-.26,258.84c-62.79,0-114.1-51.32-114.1-114.1S142,45.28,204.74,45.28s114.09,51.31,114.09,114.1S267.52,273.48,204.74,273.48Z" fill="#3b7097"/><rect x="186.81" y="110.16" width="36.3" height="135.45" fill="#ececec"/><path d="M226.5,249H183.43V106.78H226.5Zm-36.3-6.77h29.53V113.55H190.2Z" fill="#3b7097"/><rect x="189.34" y="108.68" width="15.76" height="136.35" fill="#d9d9d9"/><path d="M188.56,207.7,190,205c5.69-3.5,7.27-5.29,12.33-1.52.46.33.91.67,1.39,1l3.74,2.72C211,210,214,206.76,215,206l3.79-2.87a2.59,2.59,0,0,1,4.21,2v36.54a2.59,2.59,0,0,1-2.48,2.58l-29.13,1.26a2.58,2.58,0,0,1-2.7-2.48l-1.36-33A2.6,2.6,0,0,1,188.56,207.7Z" fill="#9fdfff"/><path d="M205.09,205.44l-1.37-1c-.48-.3-.93-.64-1.39-1-5.06-3.77-6.64-2-12.33,1.52l-1.44,2.7a2.6,2.6,0,0,0-1.23,2.32l1.36,33a2.58,2.58,0,0,0,2.7,2.48l13.7-.59Z" fill="#7dd6f9"/><path d="M226.5,249H183.43V106.78H226.5Zm-36.3-6.77h29.53V113.55H190.2Z" fill="#727272"/><path d="M162.09,75.72h85.82a0,0,0,0,1,0,0V79.9a28.62,28.62,0,0,1-28.62,28.62H190.72A28.62,28.62,0,0,1,162.09,79.9V75.72a0,0,0,0,1,0,0Z" fill="#ececec"/><path d="M215.43,111.91H194.57a35.9,35.9,0,0,1-35.86-35.86V72.34h92.58v3.71A35.9,35.9,0,0,1,215.43,111.91Zm-49.79-32.8a29.12,29.12,0,0,0,28.93,26h20.86a29.12,29.12,0,0,0,28.93-26Z" fill="#3b7097"/><path d="M165.51,75.63h39.36a0,0,0,0,1,0,0v33a0,0,0,0,1,0,0H194.34a28.84,28.84,0,0,1-28.84-28.84V75.63A0,0,0,0,1,165.51,75.63Z" fill="#d9d9d9"/><path d="M215.43,111.91H194.57a35.9,35.9,0,0,1-35.86-35.86V72.34h92.58v3.71A35.9,35.9,0,0,1,215.43,111.91Zm-49.79-32.8a29.12,29.12,0,0,0,28.93,26h20.86a29.12,29.12,0,0,0,28.93-26Z" fill="#727272"/><rect x="183.79" y="139.33" width="25.94" height="2.71" fill="#727272"/><rect x="183.79" y="157.95" width="25.94" height="2.71" fill="#727272"/><rect x="183.79" y="176.58" width="25.94" height="2.71" fill="#727272"/><rect x="183.79" y="195.2" width="25.94" height="2.71" fill="#727272"/><rect x="183.79" y="213.83" width="25.94" height="2.71" fill="#727272"/></svg>