<svg id="fd8d8996-45b1-4283-b50f-51dc7c7995ee" data-name="Camada 1" xmlns="http://www.w3.org/2000/svg" viewBox="0 0 410 410"><rect x="170.34" y="108.75" width="69.18" height="258.13" fill="#ececec"/><path d="M246,373.33H163.89v-271H246Zm-69.18-12.9h56.28V115.2H176.79Z" fill="#3b7097"/><rect x="175.17" y="105.92" width="30.03" height="259.83" fill="#d9d9d9"/><path d="M173.67,294.63l2.74-5.15c10.85-6.67,13.85-10.08,23.51-2.9.86.64,1.73,1.28,2.64,1.85l7.13,5.18c6.74,5.4,12.55-.77,14.37-2.22l7.23-5.47a4.93,4.93,0,0,1,8,3.85v69.62a4.93,4.93,0,0,1-4.72,4.93l-55.53,2.4a4.93,4.93,0,0,1-5.14-4.72l-2.59-63A4.93,4.93,0,0,1,173.67,294.63Z" fill="#9fdfff"/><path d="M205.17,290.32l-2.61-1.89c-.91-.57-1.78-1.21-2.64-1.85-9.66-7.18-12.66-3.77-23.51,2.9l-2.74,5.15a4.93,4.93,0,0,0-2.35,4.41l2.59,63a4.93,4.93,0,0,0,5.14,4.72l26.12-1.12Z" fill="#7dd6f9"/><path d="M246,373.33H163.89v-271H246Zm-69.18-12.9h56.28V115.2H176.79Z" fill="#727272"/><path d="M123.23,43.12H286.77a0,0,0,0,1,0,0v8a54.55,54.55,0,0,1-54.55,54.55H177.78a54.55,54.55,0,0,1-54.55-54.55v-8A0,0,0,0,1,123.23,43.12Z" fill="#ececec"/><path d="M224.88,112.07H185.12a68.41,68.41,0,0,1-68.34-68.33V36.67H293.22v7.07A68.41,68.41,0,0,1,224.88,112.07ZM130,49.57a55.52,55.52,0,0,0,55.14,49.61h39.76A55.52,55.52,0,0,0,280,49.57Z" fill="#3b7097"/><path d="M129.73,42.95h75a0,0,0,0,1,0,0v63a0,0,0,0,1,0,0H184.69a55,55,0,0,1-55-55v-8A0,0,0,0,1,129.73,42.95Z" fill="#d9d9d9"/><path d="M224.88,112.07H185.12a68.41,68.41,0,0,1-68.34-68.33V36.67H293.22v7.07A68.41,68.41,0,0,1,224.88,112.07ZM130,49.57a55.52,55.52,0,0,0,55.14,49.61h39.76A55.52,55.52,0,0,0,280,49.57Z" fill="#727272"/><rect x="164.58" y="164.33" width="49.43" height="5.16" fill="#727272"/><rect x="164.58" y="199.82" width="49.43" height="5.16" fill="#727272"/><rect x="164.58" y="235.32" width="49.43" height="5.16" fill="#727272"/><rect x="164.58" y="270.81" width="49.43" height="5.16" fill="#727272"/><rect x="164.58" y="306.31" width="49.43" height="5.16" fill="#727272"/></svg>