<svg id="fc28f198-3d69-49fe-bc4c-6342fd97a74b" data-name="Camada 1" xmlns="http://www.w3.org/2000/svg" width="300" height="300" viewBox="0 0 300 300"><path d="M231.71,220.7a12.44,12.44,0,0,1-1.18,7.14,41,41,0,0,0-2.65,6.84c-.53,2.39-.27,5.13,1.38,6.93a5.62,5.62,0,0,0,6.26,1.3,6.85,6.85,0,0,0,3.59-4.48,12.83,12.83,0,0,0,0-5.88,22.86,22.86,0,0,0-4.18-9.3A6.35,6.35,0,0,0,231.71,220.7Z" fill="#86d4ef"/><rect width="300" height="300" fill="#4f4f4f"/><path d="M252.05,114.38c-10.83-15.51-32-22.95-48.32-16.5C192.9,70.5,154.12,60.57,125,68.22,91.75,77,76.91,110.16,85.56,139.63a38.7,38.7,0,0,0-27.41,4.31C41.68,153.47,36.2,174,41,191.7c5,18.76,20.95,33.28,40.3,35.65,16.2,2,30.88-3.85,43.82-12.67,13.84,21.51,47.59,23.53,71.84,16.4,15.46-4.55,29.43-13.74,38.38-27.3,4.79-7.27,8.88-17.14,8.64-26.3C265.59,168,265.13,133.09,252.05,114.38Z" fill="#f2f3f4"/><path d="M143.4,145.34c-.47-2.5.66-4.81,2.52-5.16s4,1.42,4.47,3.92-.92,4.78-2.78,5.13S143.87,147.83,143.4,145.34Z" fill="#152040"/><path d="M169.59,142.13a.88.88,0,0,0-1.22.13,1.3,1.3,0,0,0-.23.86,1.85,1.85,0,0,1,0,.46,2.51,2.51,0,0,1-.35.82,3.14,3.14,0,0,1-1.73,1.35,3.27,3.27,0,0,1-1.91,0,3.73,3.73,0,0,1-1.61-1.09.79.79,0,0,0-1-.23.78.78,0,0,0-.37,1,4.23,4.23,0,0,0,.91,1.31,4.38,4.38,0,0,0,1.31.75,5.21,5.21,0,0,0,3.29.06,4.88,4.88,0,0,0,2.62-2,5,5,0,0,0,.68-1.52A1.82,1.82,0,0,0,169.59,142.13Z" fill="#152040"/><path d="M177,137.25a1.14,1.14,0,0,0,1.62-.17,1.74,1.74,0,0,0,.32-1.15,2.66,2.66,0,0,1,.06-.62,3.43,3.43,0,0,1,.47-1.09,4.2,4.2,0,0,1,2.31-1.81,4.38,4.38,0,0,1,2.56,0,3.9,3.9,0,0,1,1.17.59,3.72,3.72,0,0,1,1,.87,1.06,1.06,0,0,0,1.84-1,5.72,5.72,0,0,0-1.21-1.75,5.88,5.88,0,0,0-1.75-1A6.9,6.9,0,0,0,181,130a6.71,6.71,0,0,0-4.41,4.7A2.42,2.42,0,0,0,177,137.25Z" fill="#152040"/><path d="M115.24,232.17a12.44,12.44,0,0,1-1.18,7.14,41,41,0,0,0-2.65,6.84c-.53,2.39-.27,5.13,1.38,6.93a5.62,5.62,0,0,0,6.26,1.3,6.85,6.85,0,0,0,3.59-4.48,12.7,12.7,0,0,0,0-5.88,22.71,22.71,0,0,0-4.17-9.3A6.35,6.35,0,0,0,115.24,232.17Z" fill="#86d4ef"/><path d="M214.57,247.67c-.49,2.83.43,5.71,1.62,8.33s2.65,5.13,3.34,7.92.49,6-1.39,8.17a6.58,6.58,0,0,1-7.29,1.73,8,8,0,0,1-4.36-5.13,15.07,15.07,0,0,1-.22-6.88,26.92,26.92,0,0,1,4.58-11.05A7.38,7.38,0,0,1,214.57,247.67Z" fill="#86d4ef"/><path d="M101.63,256.49c-.49,2.83.43,5.71,1.61,8.33s2.66,5.14,3.35,7.92.49,6-1.39,8.18a6.58,6.58,0,0,1-7.29,1.73,8.08,8.08,0,0,1-4.36-5.13,15.12,15.12,0,0,1-.22-6.89,26.83,26.83,0,0,1,4.58-11A7.4,7.4,0,0,1,101.63,256.49Z" fill="#86d4ef"/></svg>