<svg id="f8762e5e-f451-4e94-834b-206143e8901c" data-name="Camada 1" xmlns="http://www.w3.org/2000/svg" xmlns:xlink="http://www.w3.org/1999/xlink" width="300" height="300" viewBox="0 0 300 300"><defs><clipPath id="aa12b75e-b2b4-401b-9305-9fbc7a562c71"><rect width="300" height="300" fill="none"/></clipPath></defs><rect width="300" height="300" fill="#c1e3f4"/><g clip-path="url(#aa12b75e-b2b4-401b-9305-9fbc7a562c71)"><path d="M254,146.22c-7.46-11.11-21.27-15.44-33.85-13.19.67-28.89-22.44-56-53.62-56.73-33.58-.81-59.86,24.94-64.35,55.67-18.85-15.5-49.8-12.16-60.59,14.37-11.81,29,13.13,55,40.39,52.53,3.4,14.81,20.22,23.94,35.91,24.86,20.06,1.18,39.73-5.76,55.75-17.51,20.5,18.21,53.82,12.83,67.58-11.78C257.49,185,265.25,163,254,146.22Z" fill="#fff"/><path d="M175.2,146.6c.41-2.31,2.14-3.94,3.86-3.63s3,2.54,2.59,4.86-2.36,3.83-4.08,3.52S174.78,148.92,175.2,146.6Z" fill="#222221"/><path d="M139.08,145.51c.41-2.31,2.15-3.94,3.87-3.63s3,2.54,2.58,4.85-2.36,3.84-4.08,3.53S138.67,147.83,139.08,145.51Z" fill="#222221"/><path d="M162.79,151.32a.82.82,0,0,0-1.1-.29,1.25,1.25,0,0,0-.48.67,2.78,2.78,0,0,1-.19.39,2.67,2.67,0,0,1-.57.59,3,3,0,0,1-1.94.6,2.91,2.91,0,0,1-2.28-1.29,2.79,2.79,0,0,1-.42-.8.73.73,0,0,0-1.43.19,3.31,3.31,0,0,0,1.24,2.51,4.82,4.82,0,0,0,2.83,1.13,4.56,4.56,0,0,0,2.92-.87,4.7,4.7,0,0,0,1.09-1.09A1.7,1.7,0,0,0,162.79,151.32Z" fill="#222221"/></g></svg>