<svg id="f2602589-bf4a-446c-a1b7-7080d1ef1688" data-name="Camada 1" xmlns="http://www.w3.org/2000/svg" xmlns:xlink="http://www.w3.org/1999/xlink" width="300" height="300" viewBox="0 0 300 300"><defs><clipPath id="bc341db0-f7df-41ca-970f-b48dc64060ec"><rect x="0.14" y="0.07" width="299.86" height="299.86" fill="none"/></clipPath></defs><rect y="-2.58" width="299.86" height="305.15" fill="#cfd0d1"/><g clip-path="url(#bc341db0-f7df-41ca-970f-b48dc64060ec)"><path d="M244.85,116.93c-10.13-14.51-29.89-21.48-45.21-15.44C189.5,75.87,153.22,66.59,126,73.74,94.86,81.93,81,113,89.07,140.56a36.18,36.18,0,0,0-25.65,4C48,153.5,42.89,172.75,47.33,189.28c4.73,17.55,19.6,31.14,37.7,33.35,15.17,1.85,28.9-3.6,41-11.85,12.94,20.12,44.53,22,67.21,15.34,14.48-4.26,27.54-12.85,35.92-25.55,4.48-6.79,8.3-16,8.08-24.6C257.52,167.07,257.08,134.43,244.85,116.93Z" fill="#8c8c8c"/><ellipse cx="128.58" cy="166.18" rx="15.98" ry="15.39" transform="translate(-38.12 38.27) rotate(-14.77)" fill="#fff" opacity="0.33"/><ellipse cx="213.87" cy="143.7" rx="15.98" ry="15.39" transform="translate(-29.57 59.27) rotate(-14.77)" fill="#fff" opacity="0.33"/><path d="M185.18,125.67c-.26-3.17,1.44-5.9,3.81-6.1s4.81,2.3,5.06,5.48-1.77,5.84-4.13,6S185.43,128.85,185.18,125.67Z" fill="#222221"/><path d="M137.47,136.72c-.26-3.18,1.45-5.91,3.81-6.1s4.81,2.3,5.07,5.47-1.77,5.84-4.13,6S137.73,139.9,137.47,136.72Z" fill="#222221"/><path d="M170.54,136.14a1.1,1.1,0,0,0-1.53,0,1.8,1.8,0,0,0-.41,1.05,2,2,0,0,1-.11.57,3.67,3.67,0,0,1-.54,1,4,4,0,0,1-2.34,1.46,4.09,4.09,0,0,1-2.39-.24,3.57,3.57,0,0,1-1-.66,3.77,3.77,0,0,1-.83-.91,1,1,0,0,0-1.23-.41,1,1,0,0,0-.58,1.16,5.4,5.4,0,0,0,1,1.74A5.49,5.49,0,0,0,162,142a6.57,6.57,0,0,0,4.1.5,6.17,6.17,0,0,0,3.52-2.15,6.08,6.08,0,0,0,1.05-1.81A2.28,2.28,0,0,0,170.54,136.14Z" fill="#222221"/><polygon points="211.17 70.56 221.47 70.56 221.47 89.65 228.82 84.47 215.04 120.11 218.53 94.5 215.04 97.99 211.17 70.56" fill="#ffc200"/><polyline points="83.87 182.12 92.35 172.91 93.12 192.21 101.1 188.48 90.83 221.69 92.99 199.25 86.82 203.55" fill="#ffc200"/></g></svg>