<svg id="e3350d9d-30da-4002-8b9f-74caf1467a51" data-name="Camada 1" xmlns="http://www.w3.org/2000/svg" width="300" height="300" viewBox="0 0 300 300"><rect y="-2" width="300" height="300" fill="#dcf8ff"/><path d="M125,60.27c-.14-.05-.27.12-.23.26a64.07,64.07,0,0,1-8.08,54.12c-5.78,8.5-13.54,15.48-19.57,23.8-7.7,10.62-30.17,50.58,9.77,81.4,15.84,12.22,40.51,13,59.9,8.06,21.38-5.41,59.71-33.83,48.09-81.36C209.67,125.13,175.51,80.18,125,60.27Z" fill="#5eaeea"/><path d="M146.46,125.44c.29-1.64,1.51-2.79,2.73-2.57s2.13,1.8,1.83,3.43a2.78,2.78,0,0,1-2.89,2.5C146.91,128.58,146.16,127.08,146.46,125.44Z" fill="#152040"/><path d="M120.9,124.67c.29-1.64,1.52-2.79,2.74-2.58s2.12,1.8,1.83,3.44a2.78,2.78,0,0,1-2.89,2.5C121.36,127.81,120.61,126.3,120.9,124.67Z" fill="#152040"/><path d="M137.68,128.78a.58.58,0,0,0-.78-.21.93.93,0,0,0-.34.48,2.34,2.34,0,0,1-.14.27,1.78,1.78,0,0,1-.4.42,2,2,0,0,1-1.37.42,2.14,2.14,0,0,1-1.18-.43,2.39,2.39,0,0,1-.43-.48,1.84,1.84,0,0,1-.3-.57.51.51,0,0,0-.56-.37c-.23,0-.49.25-.45.51a2.78,2.78,0,0,0,.25,1,3,3,0,0,0,.62.76,3.37,3.37,0,0,0,2,.8,3.15,3.15,0,0,0,2.06-.61,3.31,3.31,0,0,0,.77-.77A1.2,1.2,0,0,0,137.68,128.78Z" fill="#152040"/></svg>