<svg xmlns="http://www.w3.org/2000/svg" width="150" height="140" viewBox="0 0 150 140"><g id="f69be0cc-6e06-4fc9-a613-cdea987835cb" data-name="Camada 1"><path d="M144.36,77a10,10,0,0,1-.21,14.16c-2.17,2.06-4.92,3.5-7.43,5.19a15.53,15.53,0,0,1-1.84,1c.88.75,1.67,1.39,2.4,2.09,4.57,4.46,4.6,9.77,0,14.22a24.78,24.78,0,0,1-7.88,5c1.72-.94,1.88-1.6,1.64-2.4-.45-1.41-8.13.08-9.44.42l-.57.15a84.24,84.24,0,0,0,8.4-3.24,20,20,0,0,0,5.26-3.8c2.11-2.06,2.13-4.38,0-6.42a34.63,34.63,0,0,0-5.5-4c-1-.65-2-1.2-1.85-2.58s1-1.78,2.12-2.18a35.48,35.48,0,0,0,10.23-5.36c4.38-3.54,4.38-7-.07-10.46-4.67-3.65-10.16-5.52-15.76-7.08-12.85-3.59-26-4.87-39.29-5.09-14.49-.23-28.85.77-43,4.18a59.55,59.55,0,0,0-16.25,6A22.29,22.29,0,0,0,21.14,80c-2.76,2.69-2.76,5.51.08,8.13a25.44,25.44,0,0,0,5.19,3.68C32.9,95.24,40,97,47.14,98.43c1.84.36,3.71.61,5.56,1a2.28,2.28,0,0,1,1.53,3.8c-2,2.93-1.83,5,.86,7.4a27.31,27.31,0,0,0,9.49,5.11,74.92,74.92,0,0,0,22.16,4.08c6,.21,11.93-.08,17.89-.23a19.25,19.25,0,0,0,2.15-.15c5.25-.63,12.18-2.17,14.29-2.67l-.19.06c-.18.06-1.95.51-2.14.57-4.27,1.2-1.54.7-1.19,2s2.68,2.46,4.38,2c1.19-.34,2.34-.83,3.51-1.24,1.34-.48,2.67-1,4-1.53a49.66,49.66,0,0,1-7.09,2.77c-1.82.61-16.32,2.68-18.24,2.82-13.37,1-26.57.21-39.46-3.74a33.06,33.06,0,0,1-12.21-6.29c-3.29-2.82-5.15-6.17-3.63-10.46-6-1.68-11.89-3.16-17.67-5a59.18,59.18,0,0,1-8.73-4.09,16.92,16.92,0,0,1-3.48-2.53c-5.71-5.09-5.71-11.15,0-16.2,4-3.51,8.79-5.51,13.74-7.18,10.61-3.56,21.58-5.17,32.7-6a205,205,0,0,1,33.7.18c11.5,1,22.84,2.88,33.68,7.08C137,71.54,141.13,73.58,144.36,77Z" fill="#7ba5bf"/><path d="M139.68,78.72c4.45,3.47,4.45,6.92.07,10.46a35.48,35.48,0,0,1-10.23,5.36c-1.08.4-2,.88-2.12,2.18s.85,1.93,1.85,2.58a34.63,34.63,0,0,1,5.5,4c2.11,2,2.09,4.36,0,6.42a20,20,0,0,1-5.26,3.8,84.24,84.24,0,0,1-8.4,3.24c-2.11.5-9,2-14.29,2.67a19.25,19.25,0,0,1-2.15.15c-6,.15-11.94.44-17.89.23a74.92,74.92,0,0,1-22.16-4.08,27.31,27.31,0,0,1-9.49-5.11c-2.69-2.43-2.91-4.47-.86-7.4a2.28,2.28,0,0,0-1.53-3.8c-1.85-.37-3.72-.62-5.56-1C40,97,32.9,95.24,26.41,91.76a25.44,25.44,0,0,1-5.19-3.68c-2.84-2.62-2.84-5.44-.08-8.13a22.29,22.29,0,0,1,4.26-3.2,59.55,59.55,0,0,1,16.25-6c14.13-3.41,28.49-4.41,43-4.18,13.28.22,26.44,1.5,39.29,5.09C129.52,73.2,135,75.07,139.68,78.72Z" fill="#7ba5bf"/><path d="M131.08,116.18c.24.8.08,1.46-1.64,2.4h0c-1.3.56-2.63,1-4,1.53-1.17.41-2.32.9-3.51,1.24-1.7.47-4-.59-4.38-2s-3.08-.79,1.19-2c.19-.06,2-.51,2.14-.57l.19-.06.57-.15C123,116.26,130.63,114.77,131.08,116.18Z" fill="#7ba5bf"/><path d="M48.78,103.69c-6-1.68-11.89-3.15-17.68-5a58.48,58.48,0,0,1-8.72-4.08,17.48,17.48,0,0,1-3.48-2.53c-5.71-5.09-5.7-11.15,0-16.2,4-3.51,8.8-5.51,13.76-7.17,10.6-3.57,21.57-5.19,32.68-6.05a204,204,0,0,1,33.71.19c11.5,1,22.84,2.87,33.68,7.07,4.28,1.65,8.36,3.69,11.61,7.07a10,10,0,0,1-.22,14.15c-2.17,2.06-4.92,3.51-7.43,5.21a17.18,17.18,0,0,1-1.83.93c.86.76,1.66,1.4,2.38,2.1,4.58,4.46,4.61,9.77.06,14.22-3.35,3.28-7.57,5-11.89,6.55-1.17.41-2.32.9-3.51,1.24-1.69.47-4-.59-4.38-2s-3.08-.79,1.19-2c.19,0,2-.51,2.14-.57a85.53,85.53,0,0,0,8.59-3.3,20,20,0,0,0,5.26-3.79c2.11-2.06,2.13-4.38,0-6.43a34.8,34.8,0,0,0-5.5-4c-1-.65-2-1.2-1.85-2.58s1-1.78,2.12-2.18a35.61,35.61,0,0,0,10.23-5.36c4.38-3.54,4.38-7-.07-10.47-4.66-3.64-10.17-5.51-15.77-7.07-12.84-3.59-26-4.87-39.28-5.09-14.48-.23-28.85.77-43,4.18a59.55,59.55,0,0,0-16.25,6A22.34,22.34,0,0,0,21.14,80c-2.76,2.68-2.76,5.5.08,8.12a25.17,25.17,0,0,0,5.19,3.68C32.9,95.24,40,97,47.14,98.43c1.84.36,3.71.61,5.56,1a2.28,2.28,0,0,1,1.53,3.8c-2,2.94-1.84,5,.86,7.4a27.27,27.27,0,0,0,9.5,5.11,74.47,74.47,0,0,0,22.15,4.07c6,.22,11.93-.06,17.89-.21.72,0,1.44-.07,2.15-.15,5.92-.72,14-2.59,14.86-2.82,1.31-.35,9-1.84,9.44-.43s-.4,2.39-8.76,5.18c-1.83.6-16.32,2.68-18.24,2.82-13.37,1-26.57.2-39.47-3.73a33.42,33.42,0,0,1-12.2-6.3C49.12,111.33,47.26,108,48.78,103.69Z" fill="#3b7097"/><path d="M40.28,112.78a2.18,2.18,0,0,1-.44,0C22,109.16,9.25,101.35,1.94,89.54a2.25,2.25,0,0,1,3.82-2.36c6.63,10.71,18.39,17.83,35,21.16a2.24,2.24,0,0,1-.44,4.44Z" fill="#3b7097"/><path d="M128.12,127.05a2.24,2.24,0,0,1-.35-4.46c6.19-1,11.75-5.06,16.52-12.11A2.25,2.25,0,0,1,148,113c-5.5,8.12-12.07,12.83-19.54,14A2.07,2.07,0,0,1,128.12,127.05Z" fill="#3b7097"/><g id="f60e873c-bcf0-4536-93d8-db4f4b124968" data-name="filled outline"><path d="M41.54,86.47c1.84,1.09,3.55,2.58,5.53,3.45,0,0,1.08.34,1,.33.59.19,1.19.36,1.79.52,1.29.32,2.59.56,3.9.75,1.87.27,4.6.49,6.82.65,4.53.34,8.31-1,12.18-2.77A60.57,60.57,0,0,1,85.9,84.78V49H34.38V84.06A16.79,16.79,0,0,1,41.54,86.47Z" fill="#f2f2f2"/><path d="M65.29,59.32h10.3v20.6H65.29Z" fill="#4298d1"/><path d="M44.68,59.32H55v20.6H44.68Z" fill="#4298d1"/><path d="M88,79.14c4.26-.11,7.62,3.08,11.29,4.77a45.92,45.92,0,0,0,7.26,2.71,38.44,38.44,0,0,0,10.31-1.53c2.82-.88,5.07-2.54,8.16-2.56,2,0,4.21.91,6.26.77a5.89,5.89,0,0,1,1-.27V49H85.9V79.8A3.74,3.74,0,0,1,88,79.14Z" fill="#ebebeb"/><path d="M116.47,83.18h.34V64.47H101.35V84.82a10.17,10.17,0,0,1,3.81,2.93,3.8,3.8,0,0,1,1.68-.28,18.73,18.73,0,0,0,6-.73A3.55,3.55,0,0,1,116.47,83.18Z" fill="#c94536"/><path d="M65.29,69.62h10.3v10.3H65.29Z" fill="#69b9e7"/><path d="M44.68,69.62H55v10.3H44.68Z" fill="#69b9e7"/><path d="M132.26,49H34.38L60.14,25.83h48.94Z" fill="#de4c3b"/><path d="M85.9,49l23.18-23.18L132.26,49Z" fill="#c94536"/><path d="M73,15.53H88.47v10.3H73Z" fill="#c94536"/><path d="M65.29,82.5h10.3a2.57,2.57,0,0,0,2.58-2.58V59.32a2.57,2.57,0,0,0-2.58-2.58H65.29a2.58,2.58,0,0,0-2.58,2.58v20.6A2.58,2.58,0,0,0,65.29,82.5ZM73,77.35H67.87V72.2H73ZM67.87,61.89H73V67H67.87Z"/><path d="M57.56,79.92V59.32A2.57,2.57,0,0,0,55,56.74H44.68a2.57,2.57,0,0,0-2.57,2.58v20.6a2.57,2.57,0,0,0,2.57,2.58H55A2.57,2.57,0,0,0,57.56,79.92Zm-10.3-18h5.15V67H47.26Zm5.15,15.46H47.26V72.2h5.15Z"/><path d="M134.8,48.85a2.64,2.64,0,0,0-.13-.68,2.22,2.22,0,0,0-.59-1h0L110.9,24a2.58,2.58,0,0,0-1.82-.75h-18V15.53A2.58,2.58,0,0,0,88.47,13H73a2.59,2.59,0,0,0-2.58,2.58v7.73H60.14a2.53,2.53,0,0,0-1.72.66L32.66,47.1l0,.06a1.39,1.39,0,0,0-.15.19,2,2,0,0,0-.37.55,1.19,1.19,0,0,0-.11.26,2.42,2.42,0,0,0-.14.69,1.1,1.1,0,0,0,0,.16V80c-.82-.07-1.67-.12-2.58-.12s-.7,1.25.08,1.25c2.21,0,8.41,0,7.65-.19V51.59H83.32V80.34a18.83,18.83,0,0,1,4.86-.06c0-.73,0-1.45,0-2.18a3.9,3.9,0,0,1,.25-1.38V51.59h41.21V84.43a12.85,12.85,0,0,1,2.31-.6,5.15,5.15,0,0,1,2.42.2v0q.21-.32.42-.6V49A1.24,1.24,0,0,0,134.8,48.85ZM75.59,18.1H85.9v5.16H75.59Zm9.24,28.34H41.09l20-18h41.73Zm7.28,0,17-17,17,17Z"/><path d="M100.87,87.42l.38.27a2.56,2.56,0,0,1,.49-.16,3.63,3.63,0,0,1,1.75-1c.82-.2,1.64-.42,2.44-.65l-.56-.38-1.44-1V67h10.3V81.42a3.83,3.83,0,0,1,5,.26l.11.12V64.47a2.58,2.58,0,0,0-2.57-2.58H101.35a2.58,2.58,0,0,0-2.57,2.58V81.71l-.61-.23a24.19,24.19,0,0,1,.32,4l1.26,1.28C100.13,87,100.51,87.18,100.87,87.42Z"/><path d="M28.4,76.48c43.21,4.49,75.06,4.37,106.76,1-.48,4.09,6.12,8,.15,10.83-7.91,3.79-30,6.24-42.87,9.51C69.13,96.06,46.19,94.8,34.73,90,25.52,86,29.6,80.79,28.4,76.48Z" fill="#7ba5bf"/><path d="M97.85,99.46a30.7,30.7,0,0,1-10.6-1.84,2.24,2.24,0,1,1,1.53-4.22c8,2.91,17.24,1.75,27.48-3.44a2.25,2.25,0,0,1,2,4C111.07,97.63,104.23,99.46,97.85,99.46Z" fill="#3b7097"/></g><path d="M80.06,90C62.69,90,47.48,88,34.24,83.06a2.25,2.25,0,1,1,1.57-4.21c24.18,9.06,55.63,7.66,95.42,2.77a2.25,2.25,0,0,1,.55,4.46C112.73,88.42,95.53,90,80.06,90Z" fill="#3b7097"/></g></svg>