<svg xmlns="http://www.w3.org/2000/svg" viewBox="0 0 150 150"><g id="e3cbf645-e7c8-4364-916f-de6c5bc9cbbc" data-name="Camada 2"><rect width="150" height="150" fill="#fff" opacity="0.1"/></g><g id="a11b303b-1131-4c8d-8a80-bc758c8ea1cc" data-name="Camada 1"><rect x="30.78" y="91.63" width="9.07" height="9.07" fill="#222221" opacity="0.6"/><polygon points="21.06 59.24 27.86 52.44 125.34 52.44 132.17 60.54 128.21 88.91 24.48 88.91 21.06 59.24" fill="#222221" opacity="0.2"/><circle cx="36.12" cy="72.04" r="4.7" fill="#ffb000" opacity="0.3"/><circle cx="116.78" cy="72.04" r="4.7" fill="#ffb000" opacity="0.3"/><polygon points="54.15 24.75 104.96 25.88 112.09 31.68 122.78 52.44 30.69 51.71 45.65 26.94 54.15 24.75" fill="#3b7097" opacity="0.2"/><polygon points="47.74 24.75 60.6 26.39 44 53.64 30.69 51.71 47.74 24.75" fill="#fff" opacity="0.36"/><polygon points="22.37 43.07 16.98 47.68 16.98 51.21 30.69 51.71 34.16 44.02 22.37 43.07" fill="#222221" opacity="0.2"/><polygon points="129.83 43.07 135.23 47.68 135.23 51.21 121.52 51.71 118.05 44.02 129.83 43.07" fill="#222221" opacity="0.2"/><path d="M35.93,64.71a7,7,0,1,0,7,7A7,7,0,0,0,35.93,64.71Zm0,10.33a3.36,3.36,0,1,1,3.36-3.35h0A3.35,3.35,0,0,1,35.93,75Z" fill="#222221"/><path d="M116.81,64.71a7,7,0,1,0,7,7A7,7,0,0,0,116.81,64.71Zm0,10.33a3.36,3.36,0,1,1,3.36-3.35h0A3.37,3.37,0,0,1,116.81,75Z" fill="#222221"/><path d="M137.07,52.62a1.75,1.75,0,0,0,.5-1.33,18.37,18.37,0,0,0-.89-4.47c-1.05-3.18-4.39-5.23-8.49-5.23l-9,0-4-7.4c-2.82-5.07-6.94-10.85-13.8-10.85H51.78c-5.59,0-10.54,3.84-14,10.86l-4.2,7.44-9.06,0c-4.1,0-7.43,2-8.49,5.22a18.46,18.46,0,0,0-.89,4.47,2,2,0,0,0,.5,1.38,1.88,1.88,0,0,0,1.31.61h0l6.27-.06a11.86,11.86,0,0,0-4.49,9.54,1.55,1.55,0,0,0,0,.22l2.9,23a6.86,6.86,0,0,0,5.64,6.56v7.37a4.26,4.26,0,0,0,4.3,4.24h7.58a4.33,4.33,0,0,0,4.39-4.24V92.53h65.59v7.38a4.32,4.32,0,0,0,4.38,4.24h7.57a4.28,4.28,0,0,0,4.32-4.23h0V92.52a6.8,6.8,0,0,0,5.5-6.55l3-23a1.93,1.93,0,0,0,0-.24,11.91,11.91,0,0,0-4.65-9.56h6.43A1.79,1.79,0,0,0,137.07,52.62ZM41,35.9s0,0,0-.08c1.62-3.32,5.15-8.88,10.74-8.88h49.6c3.94,0,7.12,2.69,10.64,9l8.29,15.27H111.4a12.13,12.13,0,0,0-24.09,0H32.37Zm66.76,15.31H91a8.52,8.52,0,0,1,16.79,0ZM19.06,49.56a15.12,15.12,0,0,1,.43-1.6c.55-1.65,2.58-2.75,5.06-2.75h7l-2.45,4.33ZM40,99.91a.72.72,0,0,1-.77.62H31.63a.65.65,0,0,1-.71-.6v-7.4h9Zm81.86,0a.66.66,0,0,1-.68.63h-7.59a.72.72,0,0,1-.77-.62V92.53h9Zm8.55-37.27-3,23a1.09,1.09,0,0,0,0,.18,3.14,3.14,0,0,1-3.15,3.12H28.47a3.12,3.12,0,0,1-3.17-3.09v0a1.5,1.5,0,0,0,0-.2l-2.91-23c.05-3.8,2.5-7.65,6.59-7.86l.31.07h94s0,0,0,0C127.18,54.8,130.32,58.3,130.37,62.64Zm-6.81-13.07-2.38-4.38,7,0c2.48,0,4.51,1.11,5.06,2.75a12.73,12.73,0,0,1,.43,1.61Z" fill="#222221"/><path d="M52.45,75.49h47.84a1.81,1.81,0,0,0,1.81-1.79,1.7,1.7,0,0,0-.1-.59l-1.65-4.85a9.24,9.24,0,0,0-8.3-5.94H60.56a9.14,9.14,0,0,0-8.25,6l-1.57,4.84a1.8,1.8,0,0,0,1.71,2.35Zm3.3-6.08a5.57,5.57,0,0,1,4.81-3.48H92.05a5.66,5.66,0,0,1,4.88,3.49l.83,2.45H55Z" fill="#222221"/><path d="M106.6,78.33h-59a1.81,1.81,0,1,0,0,3.61h59a1.81,1.81,0,1,0,0-3.61Z" fill="#222221"/><rect x="112.41" y="91.63" width="10.37" height="9.07" fill="#222221" opacity="0.6"/><polygon points="142.32 103.3 128.59 98.16 115.95 102.83 103.71 98.16 90.67 103.35 78.02 98.16 64.56 102.31 52.32 98.16 38.86 101.79 26.62 98.68 13.16 101.27 7.67 100.34 7.67 124.25 142.32 124.25 142.32 103.3" fill="#3b7097" opacity="0.58"/><polygon points="142.32 86.8 128.59 81.89 115.95 86.36 103.71 81.89 90.67 86.85 78.02 81.89 64.56 85.86 52.32 81.89 38.86 85.36 26.62 82.39 13.16 84.87 7.67 83.98 7.67 100.39 13.57 102.24 27.44 95.78 39.68 102.24 52.73 96.28 64.97 101.25 78.02 96.78 91.07 100.25 103.31 96.28 116.36 100.25 129.41 95.78 142.32 100.07 142.32 86.8" fill="#3b7097" opacity="0.54"/><polygon points="142.32 72.61 128.59 67.2 115.95 72.12 103.71 67.2 90.67 72.67 78.02 67.2 64.56 71.57 52.32 67.2 38.86 71.03 26.62 67.75 13.16 70.48 7.67 69.5 7.67 87.56 13.57 89.59 27.44 82.49 39.68 89.59 52.73 83.04 64.97 88.5 78.02 83.59 91.07 87.41 103.31 83.04 116.36 87.41 129.41 82.49 142.32 87.21 142.32 72.61" fill="#3b7097" opacity="0.24"/><path d="M142.33,69.13c-2.1,0-3.19-.88-4.67-2a11.9,11.9,0,0,0-16,0l0,0a7.94,7.94,0,0,1-7.12,1.39,6.71,6.71,0,0,1-1.77-.82c-.26-.18-.52-.39-.79-.6l-.05,0A13.75,13.75,0,0,0,106,64.16a10.68,10.68,0,0,0-2.92-.15,12.16,12.16,0,0,0-7.2,3.09c-1.53,1.19-2.63,2-4.87,2s-3.33-.85-4.86-2a11.9,11.9,0,0,0-16,0c-1.52,1.19-2.63,2-4.86,2s-3.34-.85-4.86-2a12,12,0,0,0-8-3.11h0A8.55,8.55,0,0,0,47,65.72a14.05,14.05,0,0,1-2.73,1.65A8.8,8.8,0,0,0,43,68.1a5.83,5.83,0,0,1-3.49,1c-.24,0-.46,0-.67,0-3-.73-5.85-3.17-7.7-4.23A11.15,11.15,0,0,0,26.58,64a12,12,0,0,0-8,3.11c-1.52,1.19-2.63,2-4.86,2s-3.34-.85-4.86-2l-.29-.22-.88-.45V72.6a11,11,0,0,0,6,1.69,12,12,0,0,0,8-3.11c1.53-1.19,2.63-2,4.86-2s3.34.85,4.87,2a11.88,11.88,0,0,0,16,0c1.53-1.19,2.64-2,4.87-2s3.33.85,4.86,2a11.9,11.9,0,0,0,16,0c1.53-1.19,2.63-2,4.86-2s3.34.85,4.87,2a11.88,11.88,0,0,0,16,0c1.53-1.19,2.64-2,4.87-2s3.33.85,4.86,2a11.9,11.9,0,0,0,16,0c1.53-1.19,2.63-2,4.86-2s3.34.85,4.86,2a12.11,12.11,0,0,0,7.83,3.1Z" fill="#3b7097"/><path d="M142.33,85.28h-.21c-2.24,0-3.34-.85-4.87-2a11.87,11.87,0,0,0-16,0c-1.52,1.18-2.63,2-4.86,2s-3.33-.85-4.86-2a11.87,11.87,0,0,0-16,0c-1.53,1.18-2.63,2-4.86,2s-3.34-.85-4.87-2a11.85,11.85,0,0,0-16,0c-1.53,1.18-2.64,2-4.87,2s-3.33-.85-4.86-2a11.87,11.87,0,0,0-16,0c-1.53,1.18-2.63,2-4.86,2s-3.34-.85-4.87-2a11.85,11.85,0,0,0-16,0c-1.53,1.18-2.63,2-4.87,2s-3.33-.85-4.86-2c-.24-.19-.5-.38-.76-.57V89a10.92,10.92,0,0,0,5.62,1.45,12,12,0,0,0,8-3.12c1.53-1.18,2.63-2,4.86-2s3.34.86,4.87,2a11.87,11.87,0,0,0,16,0c1.52-1.18,2.63-2,4.86-2s3.34.86,4.86,2a11.87,11.87,0,0,0,16,0c1.53-1.18,2.63-2,4.86-2s3.34.86,4.87,2a11.87,11.87,0,0,0,16,0c1.52-1.18,2.63-2,4.86-2s3.34.86,4.86,2a11.87,11.87,0,0,0,16,0c1.53-1.18,2.63-2,4.86-2s3.34.86,4.87,2a12,12,0,0,0,8,3.12h.21Z" fill="#3b7097"/><path d="M142.33,99.79c-2.1-.05-3.19-.88-4.67-2a11.9,11.9,0,0,0-16,0c-1.52,1.18-2.63,2-4.86,2s-3.34-.86-4.86-2a11.9,11.9,0,0,0-16,0c-1.53,1.18-2.63,2-4.87,2s-3.33-.86-4.86-2a11.9,11.9,0,0,0-16,0c-1.52,1.18-2.63,2-4.86,2s-3.34-.86-4.86-2a11.9,11.9,0,0,0-16,0c-1.53,1.18-2.63,2-4.86,2s-3.34-.86-4.87-2a11.9,11.9,0,0,0-16,0c-1.52,1.18-2.63,2-4.86,2s-3.34-.86-4.86-2c-.37-.28-.75-.57-1.17-.86v6.36a11,11,0,0,0,6,1.69,12,12,0,0,0,8-3.11c1.53-1.19,2.63-2,4.86-2s3.34.85,4.87,2a11.88,11.88,0,0,0,16,0c1.53-1.19,2.64-2,4.87-2s3.33.85,4.86,2a11.9,11.9,0,0,0,16,0c1.53-1.19,2.63-2,4.86-2s3.34.85,4.87,2a11.88,11.88,0,0,0,16,0c1.53-1.19,2.64-2,4.87-2s3.33.85,4.86,2a11.9,11.9,0,0,0,16,0c1.53-1.19,2.63-2,4.86-2s3.34.85,4.86,2a12.11,12.11,0,0,0,7.83,3.1Z" fill="#3b7097"/><rect x="7.67" y="121.53" width="134.65" height="5.15" fill="#3b7097"/></g></svg>