<svg xmlns="http://www.w3.org/2000/svg" viewBox="0 0 150 150"><g id="e717138d-e1d9-4f9b-960c-d11d86fb7015" data-name="Camada 2"><rect width="150" height="150" fill="#fff" opacity="0.1"/></g><g id="a2ebe021-e490-4e03-af0a-981d96972a5e" data-name="Camada 1"><rect x="27.58" y="91.43" width="9.07" height="9.07" fill="#222221" opacity="0.6"/><polygon points="17.86 59.04 24.66 52.23 122.14 52.23 128.97 60.33 125 88.71 21.27 88.71 17.86 59.04" fill="#222221" opacity="0.2"/><circle cx="32.92" cy="71.83" r="4.7" fill="#ffb000" opacity="0.3"/><circle cx="113.58" cy="71.83" r="4.7" fill="#ffb000" opacity="0.3"/><polygon points="50.94 24.55 101.76 25.67 108.88 31.48 119.57 52.23 27.48 51.51 42.44 26.73 50.94 24.55" fill="#3b7097" opacity="0.2"/><polygon points="44.54 24.55 57.4 26.19 40.79 53.44 27.48 51.51 44.54 24.55" fill="#fff" opacity="0.36"/><polygon points="19.17 42.87 13.77 47.48 13.77 51.01 27.48 51.51 30.96 43.81 19.17 42.87" fill="#222221" opacity="0.2"/><polygon points="126.63 42.87 132.03 47.48 132.03 51.01 118.31 51.51 114.84 43.81 126.63 42.87" fill="#222221" opacity="0.2"/><path d="M32.73,64.51a7,7,0,1,0,7,7A7,7,0,0,0,32.73,64.51Zm0,10.33a3.36,3.36,0,1,1,3.36-3.36h0a3.36,3.36,0,0,1-3.36,3.36Z" fill="#222221"/><path d="M113.6,64.51a7,7,0,1,0,7,7A7,7,0,0,0,113.6,64.51Zm0,10.33A3.36,3.36,0,1,1,117,71.48h0a3.35,3.35,0,0,1-3.36,3.36Z" fill="#222221"/><path d="M133.87,52.42a1.84,1.84,0,0,0,.5-1.34,18.46,18.46,0,0,0-.89-4.47c-1.06-3.17-4.39-5.22-8.49-5.22l-9,0L112,34c-2.82-5.07-7-10.85-13.8-10.85H48.58C43,23.12,38,27,34.61,34L30.4,41.42l-9,0c-4.1,0-7.44,2-8.49,5.22A18.29,18.29,0,0,0,12,51.08a1.89,1.89,0,0,0,.5,1.39,1.79,1.79,0,0,0,1.3.6h0L20,53a11.86,11.86,0,0,0-4.49,9.54,1.49,1.49,0,0,0,0,.21l2.9,23a6.84,6.84,0,0,0,5.63,6.56V99.7A4.29,4.29,0,0,0,28.41,104H36a4.33,4.33,0,0,0,4.38-4.25V92.33H106V99.7a4.34,4.34,0,0,0,4.39,4.25h7.56a4.28,4.28,0,0,0,4.32-4.24h0V92.31a6.79,6.79,0,0,0,5.51-6.54l3-23a.91.91,0,0,0,0-.23A11.87,11.87,0,0,0,126.13,53h6.43A1.79,1.79,0,0,0,133.87,52.42ZM37.79,35.7a.35.35,0,0,1,.05-.08c1.61-3.33,5.15-8.89,10.74-8.89h49.6c3.93,0,7.11,2.7,10.63,9L117.1,51h-8.9a12.13,12.13,0,0,0-24.09,0H29.16ZM104.54,51H87.76a8.52,8.52,0,0,1,16.78,0ZM15.85,49.36a14.55,14.55,0,0,1,.44-1.6c.54-1.65,2.58-2.75,5.06-2.75h7l-2.44,4.34ZM36.76,99.7a.72.72,0,0,1-.77.63H28.42a.66.66,0,0,1-.7-.61V92.33h9Zm81.86,0a.66.66,0,0,1-.69.63h-7.58a.72.72,0,0,1-.77-.63V92.33h9Zm8.55-37.27-3,23a1.1,1.1,0,0,0,0,.18A3.13,3.13,0,0,1,121,88.71H25.27a3.14,3.14,0,0,1-3.18-3.09v0a1.34,1.34,0,0,0,0-.2l-2.91-23c0-3.79,2.49-7.64,6.58-7.85a1.8,1.8,0,0,0,.32.06h94l.05,0C124,54.6,127.11,58.1,127.17,62.43Zm-6.82-13.06L118,45l7,0c2.48,0,4.51,1.1,5.06,2.75a14.5,14.5,0,0,1,.43,1.6Z" fill="#222221"/><path d="M49.25,75.28H97.08a1.78,1.78,0,0,0,1.81-1.78,2,2,0,0,0-.09-.59l-1.65-4.85a9.25,9.25,0,0,0-8.3-6H57.36a9.12,9.12,0,0,0-8.25,6l-1.58,4.83a1.8,1.8,0,0,0,1.15,2.26A1.88,1.88,0,0,0,49.25,75.28Zm3.3-6.07a5.53,5.53,0,0,1,4.81-3.48H88.85a5.65,5.65,0,0,1,4.87,3.48l.84,2.46H51.74Z" fill="#222221"/><path d="M103.4,78.12h-59a1.81,1.81,0,0,0,0,3.62h59a1.81,1.81,0,0,0,0-3.62Z" fill="#222221"/><rect x="109.21" y="91.43" width="10.37" height="9.07" fill="#222221" opacity="0.6"/><polygon points="143.34 113.86 129.47 109.78 116.83 113.45 104.59 109.78 91.56 113.86 78.9 109.78 65.44 113.05 53.2 109.78 39.74 112.64 27.5 110.19 14.04 112.23 4.58 110.97 4.58 123.24 145.42 123.24 145.42 112.89 143.34 113.86" fill="#3b7097" opacity="0.49"/><polygon points="143.34 101.67 129.47 97.59 116.83 101.26 104.59 97.59 91.56 101.67 78.9 97.59 65.44 100.86 53.2 97.59 39.74 100.45 27.5 98 14.04 100.04 4.58 98.78 4.58 111.77 14.45 114.31 28.32 109.01 40.56 114.31 53.61 109.42 65.84 113.5 78.9 109.83 91.95 112.68 104.19 109.42 117.24 112.68 130.29 109.01 143.75 112.68 145.42 112.27 145.42 100.69 143.34 101.67" fill="#3b7097" opacity="0.3"/><path d="M138.34,109.39a11.87,11.87,0,0,0-16,0c-1.53,1.18-2.63,2-4.86,2s-3.34-.85-4.87-2a11.87,11.87,0,0,0-16,0c-1.52,1.18-2.63,2-4.86,2s-3.33-.85-4.86-2a11.87,11.87,0,0,0-16,0c-1.53,1.18-2.63,2-4.86,2s-3.34-.85-4.87-2a11.85,11.85,0,0,0-16,0c-1.53,1.18-2.64,2-4.87,2s-3.33-.85-4.86-2a11.87,11.87,0,0,0-16,0c-1.53,1.18-2.63,2-4.86,2s-3.34-.85-4.87-2a13.59,13.59,0,0,0-4.93-2.72v5.55a12.07,12.07,0,0,1,1.78,1.24,11.87,11.87,0,0,0,16,0c1.52-1.18,2.63-2,4.86-2s3.34.86,4.86,2a11.87,11.87,0,0,0,16,0c1.53-1.18,2.63-2,4.86-2s3.34.86,4.87,2a11.87,11.87,0,0,0,16,0c1.52-1.18,2.63-2,4.86-2s3.34.86,4.86,2a11.87,11.87,0,0,0,16,0c1.53-1.18,2.63-2,4.86-2s3.34.86,4.87,2a11.87,11.87,0,0,0,16,0c1.52-1.18,2.63-2,4.86-2s3.33.86,4.86,2a12,12,0,0,0,8,3.12,12.62,12.62,0,0,0,2.22-.16v-5.25a8.77,8.77,0,0,1-2.22.25C141,111.42,139.86,110.57,138.34,109.39Z" fill="#3b7097"/><rect x="4.58" y="121.73" width="140.84" height="5.15" fill="#3b7097"/><path d="M143.2,98.54c-2.23,0-3.34-.85-4.86-2a11.9,11.9,0,0,0-16,0c-1.53,1.19-2.63,2-4.86,2s-3.34-.85-4.87-2a11.9,11.9,0,0,0-16,0c-1.52,1.19-2.63,2-4.86,2s-3.33-.85-4.86-2a11.9,11.9,0,0,0-16,0c-1.53,1.19-2.63,2-4.86,2s-3.34-.85-4.87-2a11.88,11.88,0,0,0-16,0c-1.53,1.19-2.64,2-4.87,2s-3.33-.85-4.86-2a11.9,11.9,0,0,0-16,0c-1.53,1.19-2.63,2-4.86,2s-3.34-.85-4.87-2a14.84,14.84,0,0,0-4-2.41,8.12,8.12,0,0,1-1-.43v5.68a12.07,12.07,0,0,1,1.78,1.24,11.9,11.9,0,0,0,16,0c1.52-1.18,2.63-2,4.86-2s3.34.86,4.86,2a11.9,11.9,0,0,0,16,0c1.53-1.18,2.63-2,4.86-2s3.34.86,4.87,2a11.9,11.9,0,0,0,16,0c1.52-1.18,2.63-2,4.86-2s3.34.86,4.86,2a11.9,11.9,0,0,0,16,0c1.53-1.18,2.63-2,4.86-2s3.34.86,4.87,2a11.9,11.9,0,0,0,16,0c1.52-1.18,2.63-2,4.86-2s3.33.86,4.86,2a12,12,0,0,0,8,3.11,12.62,12.62,0,0,0,2.22-.15V98.29A8.77,8.77,0,0,1,143.2,98.54Z" fill="#3b7097"/></g></svg>