<svg id="b1d468e8-462a-4798-96ea-8221215c19b9" data-name="Camada 1" xmlns="http://www.w3.org/2000/svg" viewBox="0 0 410 410"><path d="M338.66,134.4A115.2,115.2,0,0,0,155.41,47.9,77.28,77.28,0,0,0,54.24,145.44q-2.76,2.31-5.31,4.86A80.73,80.73,0,0,0,106,288.12H304.11a80.7,80.7,0,0,0,80.73-80.69v0A81.15,81.15,0,0,0,338.66,134.4Zm8.42,116a60.38,60.38,0,0,1-43,17.79H106A60.78,60.78,0,0,1,72,157a10,10,0,0,0,3.4-12.6,56.48,56.48,0,0,1-5.57-24.67,57.29,57.29,0,0,1,57.24-57.24A56.68,56.68,0,0,1,152.4,68.4a10,10,0,0,0,10.78-1.24A95.22,95.22,0,0,1,318.86,140.7v.38a10,10,0,0,0,6.49,9.36,61,61,0,0,1,39.52,56.95A60.36,60.36,0,0,1,347.08,250.36Z" fill="#3b7097"/><path d="M111.61,356.45l-10.12,10.11A10,10,0,0,0,115.6,380.7l10.13-10.11a10,10,0,0,0-14.12-14.14Z" fill="#3b7097"/><path d="M237,356.45l-10.11,10.11A10,10,0,0,0,241,380.7l10.12-10.11A10,10,0,1,0,237,356.45Z" fill="#3b7097"/><path d="M77.15,310.88a10,10,0,0,0-14.12,0L52.92,321a10,10,0,1,0,14.14,14.12L77.17,325a10,10,0,0,0,0-14.13Z" fill="#3b7097"/><path d="M202.6,310.88a10,10,0,0,0-14.13,0L178.37,321a10,10,0,1,0,14.13,14.12L202.6,325A10,10,0,0,0,202.6,310.88Z" fill="#3b7097"/><path d="M313.91,310.89,303.8,321a10,10,0,0,0,14.07,14.19l.06-.06L328,325A10,10,0,1,0,314,310.82Z" fill="#3b7097"/><path d="M89.7,209.11a70.58,70.58,0,0,1,20.74-50.06,71.73,71.73,0,0,1,10.43-8.62,67.3,67.3,0,0,1,31.74-89.72c1.31-.63,2.64-1.21,4-1.75A67.29,67.29,0,0,0,70.9,150.43,70.8,70.8,0,0,0,110.53,279.9h38.76l.17-.86A70.8,70.8,0,0,1,89.7,209.11Z" fill="#3b7097" opacity="0.2"/></svg>