<svg id="bb9f6b17-f102-4e89-8945-7127bf574890" data-name="Camada 1" xmlns="http://www.w3.org/2000/svg" viewBox="0 0 410 410"><path d="M338.17,133.57A115.19,115.19,0,0,0,154.92,47.08a76.31,76.31,0,0,0-28.32-5.36A77.28,77.28,0,0,0,53.75,144.61q-2.76,2.32-5.31,4.86A80.74,80.74,0,0,0,105.53,287.3h198.1a80.72,80.72,0,0,0,80.73-80.69v-.05A81.18,81.18,0,0,0,338.17,133.57Zm8.42,116a60.34,60.34,0,0,1-43,17.79H105.53a60.78,60.78,0,0,1-34-111.12,10,10,0,0,0,3.4-12.59,56.67,56.67,0,0,1-5.57-24.68A57.3,57.3,0,0,1,126.6,61.69a56.69,56.69,0,0,1,25.31,5.89,10,10,0,0,0,10.78-1.25,95.22,95.22,0,0,1,155.68,73.55v.37a10,10,0,0,0,6.49,9.36,61.05,61.05,0,0,1,39.52,56.95A60.34,60.34,0,0,1,346.59,249.53Z" fill="#3b7097"/><path d="M113.61,355.76,103.5,365.87A10,10,0,0,0,117.63,380l10.11-10.1a10,10,0,0,0-14.13-14.13Z" fill="#3b7097"/><path d="M180.05,355.76l-10.11,10.11A10,10,0,0,0,184.07,380l10.11-10.1a10,10,0,0,0-14.13-14.13Z" fill="#3b7097"/><path d="M244.49,358.76l-10.11,10.11a10,10,0,1,0,14.06,14.18l.06-.06,10.11-10.11a10,10,0,1,0-14.12-14.12Z" fill="#3b7097"/><path d="M112.89,310.18a10,10,0,0,0-14.13,0L88.65,320.3a10,10,0,0,0,14.14,14.12l10.11-10.11a10,10,0,0,0,0-14.13Z" fill="#3b7097"/><path d="M175.62,310.18a10,10,0,0,0-14.13,0L151.38,320.3a10,10,0,1,0,14,14.26l.13-.13,10.12-10.12A10,10,0,0,0,175.62,310.18Z" fill="#3b7097"/><path d="M238.33,310.18a10,10,0,0,0-14.13,0L214.1,320.3a10,10,0,1,0,14.13,14.12l10.11-10.11A10,10,0,0,0,238.33,310.18Z" fill="#3b7097"/><path d="M301.05,310.18a10,10,0,0,0-14.12,0L276.81,320.3a10,10,0,0,0,14.13,14.13l10.12-10.12A10,10,0,0,0,301.05,310.18Z" fill="#3b7097"/><path d="M86.81,211.39a70.57,70.57,0,0,1,20.74-50.06A71.73,71.73,0,0,1,118,152.71,67.3,67.3,0,0,1,149.72,63c1.31-.63,2.64-1.22,4-1.76A67.29,67.29,0,0,0,68,152.71a70.8,70.8,0,0,0,39.63,129.47h38.77l.16-.86A70.82,70.82,0,0,1,86.81,211.39Z" fill="#3b7097" opacity="0.2"/></svg>