<svg id="a0056b41-73af-4d7c-83be-491eaabde457" data-name="Camada 1" xmlns="http://www.w3.org/2000/svg" viewBox="0 0 410 410"><path d="M348.32,134.75A115.2,115.2,0,0,0,165.06,48.26a76.44,76.44,0,0,0-28.32-5.36A77.28,77.28,0,0,0,63.9,145.79q-2.77,2.33-5.31,4.86a80.73,80.73,0,0,0,57.09,137.83H313.77a80.72,80.72,0,0,0,80.73-80.69v0A81.17,81.17,0,0,0,348.32,134.75Zm8.42,116a60.34,60.34,0,0,1-43,17.79H115.68a60.78,60.78,0,0,1-34-111.12,10,10,0,0,0,3.41-12.59,56.53,56.53,0,0,1-5.58-24.68,57.31,57.31,0,0,1,57.24-57.23,56.55,56.55,0,0,1,25.31,5.88,10,10,0,0,0,10.78-1.25,95.21,95.21,0,0,1,155.68,73.55v.38a10,10,0,0,0,6.49,9.35,61,61,0,0,1,39.52,57A60.37,60.37,0,0,1,356.74,250.71Z" fill="#3b7097"/><path d="M91.26,356.81,81.14,366.92a10,10,0,0,0,14.12,14.13l10.12-10.11a10,10,0,1,0-14.12-14.13Z" fill="#3b7097"/><path d="M154,356.82l-10.1,10.1A10,10,0,0,0,158,381.05l10.11-10.11A10,10,0,1,0,154,356.82Z" fill="#3b7097"/><path d="M216.7,356.81l-10.12,10.11a10,10,0,1,0,14.12,14.13l10.12-10.11a10,10,0,1,0-14.12-14.13Z" fill="#3b7097"/><path d="M279.41,356.82l-10.11,10.1a10,10,0,1,0,14.06,14.18l.07-.06,10.11-10.1a10,10,0,1,0-14.13-14.12Z" fill="#3b7097"/><path d="M86.81,311.23a10,10,0,0,0-14.12,0L62.58,321.36a10,10,0,1,0,14.13,14.12l10.11-10.12a10,10,0,0,0,0-14.13Z" fill="#3b7097"/><path d="M149.54,311.24a10,10,0,0,0-14.13,0L125.3,321.36a10,10,0,1,0,14,14.26l.13-.14,10.12-10.11A10,10,0,0,0,149.54,311.24Z" fill="#3b7097"/><path d="M212.25,311.23a10,10,0,0,0-14.13,0L188,321.36a10,10,0,1,0,14.13,14.12l10.11-10.12A10,10,0,0,0,212.25,311.23Z" fill="#3b7097"/><path d="M275,311.24a10,10,0,0,0-14.13,0l-10.11,10.12a10,10,0,0,0,14.12,14.12L275,325.37A10,10,0,0,0,275,311.24Z" fill="#3b7097"/><path d="M323.56,311.24l-10.1,10.12a10,10,0,1,0,14.07,14.18l.05-.06,10.11-10.12a10,10,0,1,0-14.07-14.18Z" fill="#3b7097"/><path d="M99.59,209.21a70.57,70.57,0,0,1,20.74-50.06,71.73,71.73,0,0,1,10.43-8.62A67.31,67.31,0,0,1,162.5,60.8c1.31-.62,2.64-1.21,4-1.75a67.29,67.29,0,0,0-85.71,91.48A70.8,70.8,0,0,0,120.42,280h38.76l.17-.86A70.81,70.81,0,0,1,99.59,209.21Z" fill="#3b7097" opacity="0.2"/></svg>