<svg id="a5a0a068-f930-4363-bcfa-3b3510949e44" data-name="Camada 1" xmlns="http://www.w3.org/2000/svg" viewBox="0 0 410 410"><path d="M255.62,97.6a81.42,81.42,0,0,0-33.84,15A65.71,65.71,0,0,1,238.13,117a125.78,125.78,0,0,1,18.36,7.49,15.41,15.41,0,0,1,4.21,3l.95-.2c77.18-14.7,88.94,32.08,89.62,35.13A81.82,81.82,0,0,0,255.62,97.6Z" fill="#ffb000" opacity="0.2"/><path d="M349.94,93.39l6.1-5.92a8.41,8.41,0,0,1,11.9.18h0a8.42,8.42,0,0,1-.17,11.9l-6.11,5.92a8.42,8.42,0,0,1-11.9-.17h0A8.42,8.42,0,0,1,349.94,93.39Z" fill="#ffb000"/><path d="M295.06,65.6l2.32-8.18a8.41,8.41,0,0,1,10.4-5.8h0A8.41,8.41,0,0,1,313.57,62l-2.32,8.18A8.41,8.41,0,0,1,300.86,76h0A8.41,8.41,0,0,1,295.06,65.6Z" fill="#ffb000"/><path d="M242.2,50.64h0a8.43,8.43,0,0,1,10.22,6.11L254.5,65a8.43,8.43,0,0,1-6.11,10.22h0a8.43,8.43,0,0,1-10.22-6.11l-2.08-8.25A8.43,8.43,0,0,1,242.2,50.64Z" fill="#ffb000"/><path d="M184.92,82.59h0a8.42,8.42,0,0,1,11.9.17l5.92,6.11a8.42,8.42,0,0,1-.17,11.9h0a8.42,8.42,0,0,1-11.91-.18l-5.92-6.1A8.41,8.41,0,0,1,184.92,82.59Z" fill="#ffb000"/><path d="M348.6,253.83a77.44,77.44,0,0,0-7.19-13.59c.42-.43-10.35-13.56-10.83-13a76.57,76.57,0,0,0-21-14.42,110.53,110.53,0,0,0-73.28-98.68c-4-1.8-20-4.8-20.88-5.18a110.47,110.47,0,0,0-81.94,20.68,72.83,72.83,0,0,0-27.62-5.36,73.6,73.6,0,0,0-69.08,98.82A76.95,76.95,0,0,0,85.44,359.61H277.32a76.81,76.81,0,0,0,75.42-92.06Zm-28.77,71.35a59.68,59.68,0,0,1-42.51,17.6H85.44A60.12,60.12,0,0,1,51.79,232.85a8.42,8.42,0,0,0,2.88-10.61,56,56,0,0,1-5.53-24.45,56.76,56.76,0,0,1,56.7-56.7,55.89,55.89,0,0,1,25.07,5.83,8.42,8.42,0,0,0,9.09-1,93.49,93.49,0,0,1,152.85,72.2v.37a8.43,8.43,0,0,0,5.47,7.89,60.4,60.4,0,0,1,39.11,56.34A59.74,59.74,0,0,1,319.83,325.18Z" fill="#3b7097"/><path d="M376.81,207.51h0a8.42,8.42,0,0,1,10.4-5.8l8.18,2.32a8.42,8.42,0,0,1,5.8,10.4h0a8.42,8.42,0,0,1-10.4,5.8l-8.18-2.33A8.41,8.41,0,0,1,376.81,207.51Z" fill="#ffb000"/><path d="M357.16,246h0A8.42,8.42,0,0,1,369,244.75l6.61,5.36A8.42,8.42,0,0,1,376.84,262h0A8.42,8.42,0,0,1,365,263.18l-6.61-5.36A8.42,8.42,0,0,1,357.16,246Z" fill="#ffb000"/><path d="M381.42,140.9l8.25-2.08a8.43,8.43,0,0,1,10.22,6.11h0a8.43,8.43,0,0,1-6.11,10.22l-8.24,2.08a8.42,8.42,0,0,1-10.22-6.11h0A8.41,8.41,0,0,1,381.42,140.9Z" fill="#ffb000"/><path d="M341.86,113.31c-34.05-35.48-89-36.88-125.61-4,0,0,20.68,5.24,20,5,29.75-19,68.53-14.89,93.13,10.39h0a74.4,74.4,0,0,1,1.09,102.36c1.78,2.25,6.24,5.42,10.85,13A91.15,91.15,0,0,0,341.86,113.31Z" fill="#ffb000"/><path d="M72.1,283.39a67.4,67.4,0,0,1,19.81-47.82,68.92,68.92,0,0,1,10-8.23,64.28,64.28,0,0,1,30.31-85.69c1.25-.6,2.53-1.16,3.82-1.67a64.27,64.27,0,0,0-81.86,87.36A67.62,67.62,0,0,0,92,351h37l.15-.82A67.62,67.62,0,0,1,72.1,283.39Z" fill="#3b7097" opacity="0.2"/></svg>